<?xml version="1.0" encoding="utf-8"?>
<!-- Generator: Adobe Illustrator 24.2.0, SVG Export Plug-In . SVG Version: 6.00 Build 0)  -->
<svg version="1.1" id="Layer_1" xmlns="http://www.w3.org/2000/svg" xmlns:xlink="http://www.w3.org/1999/xlink" x="0px" y="0px"
	 viewBox="0 0 491 474.3" style="enable-background:new 0 0 491 474.3;" xml:space="preserve">
<style type="text/css">
	.st0{fill:url(#SVGID_1_);}
	.st1{fill-rule:evenodd;clip-rule:evenodd;fill:#E0E0E0;}
	.st2{fill:none;stroke:#FFFFFF;stroke-width:5.5953;stroke-linecap:round;stroke-linejoin:round;}
	.st3{fill:none;stroke:#DFDFDF;stroke-width:1.263;stroke-linecap:round;}
	.st4{fill-rule:evenodd;clip-rule:evenodd;fill:#E49D75;}
	.st5{fill-rule:evenodd;clip-rule:evenodd;}
	.st6{fill-rule:evenodd;clip-rule:evenodd;fill:#FFFFFF;}
	.st7{fill-rule:evenodd;clip-rule:evenodd;fill:#A4A4A4;}
	.st8{fill-rule:evenodd;clip-rule:evenodd;fill:#5FC5D1;}
	.st9{fill-rule:evenodd;clip-rule:evenodd;fill:#6BD5E1;}
	.st10{fill-rule:evenodd;clip-rule:evenodd;fill:#FFD98E;}
	.st11{fill-rule:evenodd;clip-rule:evenodd;fill:#FFE4AD;}
	.st12{fill:#A4A4A4;}
</style>
<linearGradient id="SVGID_1_" gradientUnits="userSpaceOnUse" x1="31.7107" y1="203.8535" x2="464.9144" y2="203.8535">
	<stop  offset="0" style="stop-color:#856CE0"/>
	<stop  offset="0.2928" style="stop-color:#7E5FD6"/>
	<stop  offset="0.8325" style="stop-color:#6C3DBC"/>
	<stop  offset="1" style="stop-color:#6631B3"/>
</linearGradient>
<path class="st0" d="M89.3,40.3c-47,32.9-90.7,126.5-21.8,224s201,148.5,274,124.3S502.4,237.2,448,145
	C378.4,26.7,178.2-21.9,89.3,40.3z"/>
<g id="Layer_2_1_">
	<g id="Layer_1-2">
		<path class="st1" d="M72.7,70.4h345.6v233H72.7V70.4z"/>
		<path class="st2" d="M268.5,118.8h40.5"/>
		<path class="st2" d="M268.5,132.1h36.1"/>
		<path class="st3" d="M159,303.8v-233"/>
		<path class="st3" d="M245.2,303.8v-233"/>
		<path class="st3" d="M331.5,303.8v-233"/>
		<path class="st4" d="M223.8,390.5l0.8,8.9l7.9,0.2l-1.5-9.5L223.8,390.5z"/>
		<path class="st4" d="M152.2,374.5l-3.7,12.3l3.7,3.9l6.6-10.8L152.2,374.5z"/>
		<path class="st5" d="M223.2,397.4L223,404l20.6-0.1c0.1,0.1,0.1-3.2,0.1-3.2l-12.2-3.4L223.2,397.4z"/>
		<path class="st5" d="M148.2,384.7l-4.2,5.7l8.7,12.4l8.2,0.1l-0.1-4.2l-3.3-1.5l-3-7.2L148.2,384.7z"/>
		<path class="st6" d="M230.9,133.5h40.3v40.2H231L230.9,133.5L230.9,133.5z"/>
		<path class="st7" d="M230.9,133.5h40.3v9H231L230.9,133.5L230.9,133.5z"/>
		<path class="st4" d="M184.7,181.3c2.1-0.5,9.6-0.3,11.5-1.3c2-1.1,26.6-19.5,29.1-22c2.5-2.5,5.6-4.7,7.7-7.5s0.1,4.9-1.8,6.3
			c-0.2,2-0.3,6.3-0.3,6.3c-1.1-0.2-2.1,0.1-3,0.7c-1.4,1.1-21.6,24.8-21.6,24.8S182.6,181.8,184.7,181.3z"/>
		<path class="st8" d="M166.4,252.3c-1.3,4.7-3.7,37.9,3.7,54.5c-3.2,12.2-19.6,68.8-19.6,68.8l8.1,7.2l41.9-63.3
			C200.6,319.4,191.9,250.1,166.4,252.3z"/>
		<path class="st9" d="M209.1,250.3c1.7,4.7,19,66.5,19,66.5l3.9,75.1l-8.9,0.7L195.3,317c-3.4-3.9-25-55.5-26-62.1
			C173.6,250.4,207.4,245.6,209.1,250.3z"/>
		<path class="st10" d="M178,178.4c3.4,0,22.7,4.7,26.3,12.2c2,4.2,10.8,54.8,5.9,62.8c-4.9,8-38.4,7.6-44.9,1.6
			C161.6,251.6,160.5,178.3,178,178.4z"/>
		<path class="st7" d="M72.7,70.4h345.6v31.2H72.7V70.4z"/>
		<path class="st2" d="M88.8,119.8h53.6"/>
		<path class="st4" d="M173.7,169.7h7.4v14.4c-2.7,2.1-7.4,0-7.4,0V169.7z"/>
		<path class="st4" d="M164.2,156.8c0-8.9,6.1-16.2,13.6-16.2c7.5,0,13.6,7.2,13.6,16.2s-6.1,16.2-13.6,16.2
			C170.3,172.9,164.2,165.7,164.2,156.8z"/>
		<path class="st5" d="M176.2,137.9c4.4-0.1,9.9,2.7,9.9,4.6c0,3.3-5.1,10.8-9,13.9c1.1,2.5,2,4.1,2,6.2c0,2.1-3.2,10.3-3.2,16
			c0,4.4,1,7.4,1,11c0,10-6.5,16-15.9,16s-15.7-10.2-15.8-18.5c-0.1-10.1,11.2-22.6,13.9-30.3C161.4,150.4,165.8,137.9,176.2,137.9z
			"/>
		<path class="st4" d="M173.3,157.6c0-1.9,1.5-3.4,3.4-3.4s3.4,1.5,3.4,3.4s-1.5,3.4-3.4,3.4l0,0C174.8,161,173.3,159.4,173.3,157.6
			L173.3,157.6z"/>
		<path class="st4" d="M209.8,205.9c3.8,0.9,19.4,3.5,22.4,2.6c3-0.9,33.9-30.4,36.2-32.5c2.4-2.1,7.2-5.3,7.8-9
			c0.6-3.7,0-7-5.2-8.9c0.1,2.5,0.2,6.2,0.1,5.6c-0.9-3-1-6.3-2.6-6.2c-0.8,2.7,0.4,7.9-1.8,11.4c-2.5,2.7-34.8,23.9-38.1,24.9
			c-4.4,0-15.8-3.9-15.8-3.9S206,205,209.8,205.9z"/>
		<path class="st11" d="M184.5,190.7c2.6-11,25.8-5.2,29.7-2.1c1.3,4.2-0.8,16.8-4.2,19.1C204.9,208.4,181.7,202.5,184.5,190.7z"/>
		<path class="st2" d="M88.8,143.4h40.5"/>
		<path class="st2" d="M88.8,183.9h22"/>
		<path class="st2" d="M88.8,199.2h40.5"/>
		<path class="st2" d="M88.8,212.5h36"/>
		<path class="st2" d="M346.4,118H400"/>
		<path class="st2" d="M346.4,132.6h37.5"/>
		<path class="st2" d="M346.4,148.3h50.4"/>
		<path class="st2" d="M346.4,162.5h25.4"/>
		<path class="st12" d="M243.9,151.6L243.9,151.6l-2.7,1.4l-0.4-1.6l3.4-1.8h1.8V165h-2V151.6z"/>
		<path class="st12" d="M261.5,149.6v1.4l-6.7,14h-2.2l6.7-13.7v-0.1h-7.5v-1.7H261.5z"/>
	</g>
</g>
</svg>
