<?xml version="1.0" encoding="utf-8"?>
<!-- Generator: Adobe Illustrator 24.2.0, SVG Export Plug-In . SVG Version: 6.00 Build 0)  -->
<svg version="1.1" id="Layer_1" xmlns="http://www.w3.org/2000/svg" xmlns:xlink="http://www.w3.org/1999/xlink" x="0px" y="0px"
	 viewBox="0 0 491 474.3" style="enable-background:new 0 0 491 474.3;" xml:space="preserve">
<style type="text/css">
	.st0{fill:url(#SVGID_1_);}
	.st1{fill:#FFFFFF;}
	.st2{fill:#F3F3F3;}
	.st3{fill:#E2E2E2;}
	.st4{fill:#DE8E68;}
	.st5{fill:#56CAD8;}
	.st6{fill:#74D5DE;}
	.st7{fill:#FED385;}
	.st8{fill:#333333;}
	.st9{fill:#FED892;}
	.st10{fill:#D37C59;}
	.st11{fill:#FD8369;}
</style>
<linearGradient id="SVGID_1_" gradientUnits="userSpaceOnUse" x1="31.7107" y1="217.6014" x2="464.9144" y2="217.6014">
	<stop  offset="0" style="stop-color:#856CE0"/>
	<stop  offset="0.2928" style="stop-color:#7E5FD6"/>
	<stop  offset="0.8325" style="stop-color:#6C3DBC"/>
	<stop  offset="1" style="stop-color:#6631B3"/>
</linearGradient>
<path class="st0" d="M89.3,54c-47,32.9-90.7,126.5-21.8,224s201,148.5,274,124.3c73-24.2,160.9-151.4,106.6-243.7
	C378.4,40.5,178.2-8.1,89.3,54z"/>
<g id="Background_elements">
	<path class="st1" d="M319.9,250.4v132.8c0,9.7-7.9,17.6-17.6,17.6l0,0H199c-9.7,0-17.6-7.9-17.6-17.6l0,0V119.7
		c0-9.7,7.9-17.6,17.6-17.6h103.3c9.7,0,17.6,7.9,17.6,17.6V250.4"/>
	<path class="st2" d="M220.3,95.2H281c2.3,0,4.2,1.9,4.2,4.2v8.8c0,2.3-1.9,4.2-4.2,4.2h-60.6c-2.3,0-4.2-1.9-4.2-4.2v-8.8
		C216.1,97.1,218,95.2,220.3,95.2z"/>
	<path class="st2" d="M302.8,92.7H198.5c-14,0-25.4,11.4-25.4,25.4v266.8c0,14,11.4,25.4,25.4,25.4h104.3
		c14.1,0,25.4-11.4,25.4-25.4V118.1C328.3,104,316.9,92.7,302.8,92.7z M319.9,250.4v132.8c0,9.7-7.9,17.6-17.6,17.6l0,0H199
		c-9.7,0-17.6-7.9-17.6-17.6l0,0V119.7c0-9.7,7.9-17.6,17.6-17.6h103.3c9.7,0,17.6,7.9,17.6,17.6V250.4z"/>
	<rect x="193.9" y="131" class="st2" width="113.5" height="55.6"/>
	<rect x="200.3" y="231.7" class="st2" width="151.4" height="5.2"/>
	<rect x="200.3" y="245.5" class="st2" width="151.4" height="5.2"/>
	<rect x="200.3" y="259.2" class="st2" width="151.4" height="5.2"/>
	<rect x="200.3" y="273" class="st2" width="151.4" height="5.2"/>
	<rect x="200.3" y="286.7" class="st2" width="151.4" height="5.2"/>
	<rect x="200.3" y="300.5" class="st2" width="151.4" height="5.2"/>
	<rect x="200.3" y="314.2" class="st2" width="151.4" height="5.2"/>
	<rect x="200.3" y="328" class="st2" width="151.4" height="5.2"/>
	<rect x="230" y="351.8" class="st2" width="105.3" height="5.2"/>
	<rect x="230" y="362.8" class="st2" width="116.1" height="5.2"/>
	<rect x="193.3" y="217.6" class="st2" width="17.1" height="5.4"/>
	<rect x="214.6" y="217.6" class="st2" width="17.1" height="5.4"/>
	<rect x="237.3" y="217.6" class="st2" width="17.1" height="5.4"/>
	<circle class="st2" cx="212.6" cy="359.2" r="11.4"/>
	<rect x="200.3" y="196.7" class="st3" width="140.8" height="11.2"/>
</g>
<g id="Vector">
	
		<rect x="172.9" y="378.6" transform="matrix(0.5994 -0.8004 0.8004 0.5994 -235.3542 295.7629)" class="st4" width="9.9" height="8.9"/>
	<rect x="154.5" y="393.3" class="st4" width="10.8" height="7"/>
	<path class="st5" d="M132.2,259.5c0,0-21.8,74.6-21.8,76.1c0,1.5,61,51.3,62.1,51.3s5.8-9.1,5.8-10.7s-14.5-13.6-14.5-13.6
		L132.2,259.5z"/>
	<path class="st6" d="M165.7,393.4l6.8-135.1c-3.2,2.3-19.6,7-40.2,1.2c1.4,11.9,21.7,134.6,21.7,134.6h11.7L165.7,393.4z"/>
	<path class="st4" d="M131.1,219.3c-2.7-1.5-31.8-20.7-36.5-20.7c-4.7,0-4.4,2.8-4.4,3.6s0.6,6.4,13.9,9.9
		c1.2,1.4,20.6,21.1,26.3,23.4C130.5,229.4,131.1,219.3,131.1,219.3z"/>
	<path class="st7" d="M153.6,160.4c-36,0-23.4,96.4-21.4,99.1c2,2.8,38.7,4.7,41-2.4C174.7,252.5,182.4,160.4,153.6,160.4z"/>
	<polygon class="st8" points="101.6,207.8 85.8,197.5 94.5,192.8 109.9,202.5 	"/>
	<path class="st4" d="M156.5,200.7c-0.1,2.7,2.2,20.8,5.5,29.6c-1.2,6.4-8.1,42.4-8.1,42.4l4.8,6.2c0,0,17.6-37.4,18.5-43.3
		s-1.2-34.9-1.6-36.3S156.5,200.7,156.5,200.7z"/>
	<path class="st9" d="M165.2,169.6c10.8-0.2,13.8,28.3,12,30.9s-21,4.5-23.1,2.1C151.8,200.1,153.8,169.8,165.2,169.6z"/>
	<path class="st10" d="M157,146.3h-12v18.8c0,2.4,12,2.3,12,0V146.3z"/>
	
		<ellipse transform="matrix(5.686708e-02 -0.9984 0.9984 5.686708e-02 2.3987 277.6404)" class="st4" cx="148.2" cy="137.6" rx="19.4" ry="11.3"/>
	<path class="st11" d="M124.6,131.7c0-1.9,1.1-4,1.1-6.2c0-1.9-0.8-4-0.8-6.7c0-4.6,4.6-6.7,7-6.7c4.6,0,5.6,3.2,12.8,3.2
		c4.3,0,6.2-1.1,8.6-1.1c7.5,0,8.6,9.4,8.6,10.4c0,4.6,6.2,4.8,6.2,9.6c0,4.6-4.8,9.9-8.6,9.9s-7.2-3.5-7.2-4.6
		c0-2.4,0.5-2.9,0.5-4.6c0-5.6-12.2-7-14.1-7c-0.9,2.9-1.5,5.8-1.7,8.8c-0.5,0.3-2.4,0.8-4.3,0.8
		C131.3,137.9,124.6,136.3,124.6,131.7z"/>
	<circle class="st4" cx="157.4" cy="145" r="2.8"/>
	<polygon points="165.5,399.5 154,399.5 135.5,406.8 135.5,409.6 165.5,409.6 	"/>
	<polygon points="183.9,381.1 177.6,389.6 172.7,407.2 174.8,408.7 191.3,386.7 	"/>
	<path class="st5" d="M278.6,280.1c-1.7,0-2.5,4.3-2.5,7.9c0,10.9,1,21.7,3,32.4c0.4,0,0.7,0,1.1,0c5.1,0,9.3,1.4,9.3,3.2
		s-4.1,3.2-9.1,3.2c0.1,0.4,0.2,0.7,0.2,1.1c4.9,0.1,8.9,1.5,8.9,3.2c0,1.5-3.2,2.8-7.3,3.1c9.1,35.1,26.4,62.8,38.1,75.8h15.2
		v-12.8C335.3,374.9,296.9,280.1,278.6,280.1z"/>
	<path class="st6" d="M394.9,317.3c-10,0-11.1,10.8-17.9,10.8c-2.6,0-3.3-2.8-3.3-5.4c0-4.5,7.2-21,7.8-31.7
		c-0.7,0.1-1.4,0.2-2.1,0.2c-4.7,0-8.6-2.8-8.6-6.2c0-3.4,3.9-6.2,8.6-6.2c0.2,0,0.4,0,0.6,0c-2.3-7.8-7.6-16-19.3-16
		c-19.2,0-24.4,34-27.4,47.9c-1.8,8.6-21,39.3-21,62c0,20,6.2,37.1,7.8,37.1h19.3c0-6.2,12-17.5,14.8-20.6
		c19.7-21.5,52.2-31.3,52.2-56.5C406.5,327.2,405.1,317.3,394.9,317.3z"/>
</g>
</svg>
