<?xml version="1.0" encoding="utf-8"?>
<!-- Generator: Adobe Illustrator 24.2.0, SVG Export Plug-In . SVG Version: 6.00 Build 0)  -->
<svg version="1.1" id="Layer_1" xmlns="http://www.w3.org/2000/svg" xmlns:xlink="http://www.w3.org/1999/xlink" x="0px" y="0px"
	 viewBox="0 0 80.6 72.7" style="enable-background:new 0 0 80.6 72.7;" xml:space="preserve">
<style type="text/css">
	.st0{fill:#FFFFFF;}
</style>
<g>
	<path class="st0" d="M11.3,39.3c3.1,0,6.1-1.9,7.9-3.9c1.1-1.2,2-2.5,3.1-4.5c0.3-0.6,0.6-1.2,0.9-1.8c0,0.1,0.1,0.1,0.1,0.2
		c0,0,0,0,0,0.1c0,0,0.1,0.1,0.1,0.1c0,0,0,0,0.1,0.1c0,0,0.1,0.1,0.1,0.1c0,0,0,0,0.1,0.1c0,0,0.1,0.1,0.1,0.1c0,0,0,0,0.1,0.1
		c0,0,0.1,0.1,0.1,0.1c0,0,0,0,0.1,0c0,0,0.1,0.1,0.1,0.1c0,0,0,0,0.1,0c0.1,0,0.1,0.1,0.2,0.1c0,0,0,0,0,0c0.1,0,0.1,0.1,0.2,0.1
		c0,0,0,0,0.1,0c0,0,0.1,0,0.1,0c0,0,0.1,0,0.1,0c0,0,0.1,0,0.1,0c0,0,0.1,0,0.1,0c0,0,0.1,0,0.1,0c0,0,0.1,0,0.1,0c0,0,0.1,0,0.1,0
		c0,0,0.1,0,0.1,0c0.1,0,0.1,0,0.2,0c0,0,0,0,0,0c0.1,0,0.1,0,0.2,0h0c0.1,0,0.1,0,0.2,0c0,0,0.1,0,0.1,0c0.1,0,0.2,0,0.3,0
		c0,0,0,0,0,0c1-0.1,1.8-0.5,2.5-1.1c0.1,0,0.1-0.1,0.2-0.2c0.3-0.2,0.5-0.5,0.8-0.7c0.2-0.2,0.5-0.5,0.7-0.7s0.4-0.5,0.6-0.8
		c0,0.3,0,0.5,0.1,0.8c0,0.3,0.1,0.5,0.2,0.8c0,0.1,0,0.1,0.1,0.2c0.1,0.2,0.2,0.3,0.3,0.5c0.1,0.1,0.2,0.2,0.2,0.3s0.2,0.2,0.3,0.3
		c0,0,0.1,0.1,0.2,0.1c0,0,0,0,0,0c0,0,0.1,0,0.1,0.1c0,0,0,0,0,0c0,0,0.1,0,0.1,0c0,0,0,0,0,0c0,0,0.1,0,0.2,0.1c0,0,0,0,0,0
		c0,0,0.1,0,0.1,0c0,0,0,0,0,0c0,0,0.1,0,0.1,0c0,0,0,0,0,0c0,0,0.1,0,0.1,0c0,0,0,0,0,0c0,0,0.1,0,0.2,0h0c0,0,0,0,0,0
		c0,0,0.1,0,0.1,0c0,0,0,0,0,0c0,0,0.1,0,0.1,0c0,0,0,0,0,0c0.1,0,0.1,0,0.2,0c0,0,0,0,0,0c0,0,0.1,0,0.1,0c0,0,0,0,0,0
		c0,0,0.1,0,0.2,0c0,0,0,0,0,0c0.1,0,0.1,0,0.2-0.1c0,0,0,0,0,0c0,0,0.1,0,0.1-0.1c0,0,0,0,0,0c0,0,0.1,0,0.2-0.1c0,0,0,0,0,0
		c0,0,0.1,0,0.1-0.1c0,0,0,0,0,0c0,0,0.1,0,0.1-0.1c0,0,0,0,0,0c0,0,0.1-0.1,0.2-0.1c0,0,0,0,0,0c0,0,0.1-0.1,0.1-0.1l0,0
		c0,0,0,0,0,0c0.3,0.5,0.8,0.9,1.2,1.3c0.8,0.5,1.6,0.8,2.4,0.8c0,0,0,0,0,0c0.1,0,0.2,0.1,0.3,0.1c0.1,0,0.2,0,0.4,0
		c1,0,2.1-0.5,3.2-1.4c1.1-0.8,1.9-1.9,2.6-2.8c0.4-0.5,0.8-1.1,1.1-1.6c0,0.4-0.1,0.7-0.1,1.1c-0.1,1.2,0.2,2.2,0.8,2.9
		c0.7,0.8,1.8,1,2.8,0.5c0.9-0.4,1.7-1.1,2.2-1.7c0.5-0.5,0.8-1.1,1.2-1.7c0.1-0.1,0.2-0.3,0.2-0.4c0.4-0.6,0.7-1.2,1.1-2
		c-0.1,1.3-0.3,2.6-0.4,3.8c0,0,0,0,0,0c-0.4,0.3-0.8,0.6-1.2,0.9c-0.7,0.5-1.3,1-2,1.6c-1.7,1.4-3.8,3.3-5.4,5.7
		c-1,1.5-3,5.1-1.7,8.2c0.6,1.3,1.8,2.2,3.1,2.2c0.1,0,0.2,0,0.3,0c1.2,0,2.5-0.4,3.6-1.2c1.2-0.9,2.2-2.2,3.1-4
		c1.9-3.7,2.7-7.9,3.2-11.5c0.1-0.9,0.3-1.8,0.4-2.7c1.8-1.9,3.1-3.6,4-5.4c0.3-0.5,0.5-1.1,0.7-1.7l0,0c0-0.2,0-0.4-0.1-0.5
		c-0.1-0.1-0.2-0.2-0.4-0.3c-0.4,0-0.7,0.3-0.8,0.5c-0.6,1.7-1.6,3.2-3.1,4.8c0.2-2.3,0.4-4.6,0.5-6.9c0-0.4,0-0.7,0-1.2
		c0-0.5-0.2-0.9-0.6-1.2c-0.3-0.2-0.7-0.3-1.1-0.2c-0.9,0.2-1.6,1-1.7,1.9c-0.1,0.9-0.1,1.8-0.1,2.6c0,0.2,0,0.4,0,0.6
		c-0.2,0.4-0.4,0.9-0.6,1.3c-0.1,0.3-0.2,0.5-0.3,0.7c-0.4,0.8-0.7,1.5-1.1,2.1c-0.7,1.1-1.6,2-2.8,2.6c-0.1,0-0.4,0.2-0.6,0.2h0
		c0,0,0,0-0.1,0c0,0,0,0,0,0l0-0.1c0,0,0,0,0,0c0,0,0-0.1-0.1-0.1c0,0,0,0,0-0.1c0,0,0,0,0,0l0,0c0-0.1,0-0.1,0-0.2
		c0-0.3,0-0.7,0.1-1c0-0.4,0.1-0.5,0.1-0.9s0.2-0.8,0.2-1.2c0.2-0.8,0.4-1.5,0.6-2.2l0,0c0.1-0.4,0.3-0.8,0.4-1.2l0.1-0.2
		c0,0,0.1-0.2,0.1-0.3c0.1-0.2,0.1-0.3,0.2-0.5c0.1-0.2,0.2-0.4,0.3-0.7c0.3-0.7,0.7-1.5,0.8-2.3c0-0.5-0.2-0.9-0.6-1.2
		c-0.5-0.3-1.2-0.2-1.6,0.2c-0.9,0.8-1.3,1.7-1.7,2.8c-0.3,0.8-0.7,1.8-1,2.8c0,0.1-0.1,0.3-0.1,0.5c-1,1.8-2,3.1-3.1,4.3
		c-0.1,0.1-0.2,0.2-0.3,0.3c0-0.2,0-0.3,0-0.5c0.2-2.3-0.4-4.6-1.7-7c0-0.1-0.1-0.1-0.1-0.2c0.1,0,0.2,0,0.3-0.1
		c1.3-0.8,2.7-2.5,2.8-4c0.1-0.8-0.2-1.5-0.8-2.1c-0.8-0.7-2-0.9-3.1-0.5c-1.1,0.4-2,1.4-2.5,2.8c-0.6,2,0.2,3.8,1,5.5
		c0.3,0.6,0.5,1.1,0.7,1.7c0.4,1.1,0.6,2.3,0.7,3.4c0,0.5,0,1.1-0.1,1.4c-0.1,0.5-0.2,0.8-0.4,1.2c0,0-0.1,0.1-0.1,0.1c0,0,0,0,0,0
		c0,0-0.1,0.1-0.1,0.1c0,0-0.1,0.1-0.1,0.1c-0.1,0-0.1,0.1-0.2,0.2l0,0c-0.1,0-0.1,0.1-0.2,0.1c-0.2,0.1-0.2,0.1-0.4,0.1l-0.1,0
		c-0.1,0-0.2,0-0.4-0.1l-0.1,0c-0.2-0.1-0.2-0.1-0.3-0.2l-0.1-0.1c-0.2-0.1-0.3-0.3-0.5-0.5c0,0-0.1-0.1-0.2-0.2l0,0
		c-0.1-0.1-0.3-0.3-0.4-0.4l0,0c-0.1-0.1-0.2-0.2-0.3-0.3c0.1-0.2,0.2-0.4,0.3-0.6c0.2-0.3,0.3-0.6,0.5-1c0.3-0.6,0.5-1.1,0.7-1.7
		c0.1-0.4,0.3-0.8,0.4-1.2c0.1-0.2,0.1-0.4,0.2-0.6c0.1-0.4,0.2-0.8,0.3-1.2c0,0,0-0.1,0-0.1c0,0,0,0,0,0c0,0,0,0,0,0c0,0,0,0,0,0
		c0,0,0,0,0,0s0,0,0,0c0,0,0,0,0,0c0,0,0,0,0,0c0,0,0,0,0,0c0,0,0,0,0,0c0,0,0,0,0,0s0,0,0,0s0,0,0,0s0,0,0,0s0,0,0,0c0,0,0,0,0,0
		s0,0,0,0s0,0,0,0s0,0,0,0c0,0,0,0,0,0c0,0,0,0,0,0s0,0,0,0c0,0,0,0,0,0s0,0,0,0s0,0,0,0c0,0,0,0,0,0c0,0,0,0,0,0s0,0,0,0
		c0,0,0,0,0,0c0,0,0,0,0,0c0,0,0,0,0,0.1c-0.3,0.9-0.6,1.9-1,2.8c-0.2,0.5-0.5,1.1-0.8,1.6c-0.1,0.2-0.3,0.5-0.4,0.7
		c0,0.1-0.1,0.1-0.1,0.2c-0.1,0.1-0.2,0.3-0.3,0.5c-0.1,0.1-0.2,0.3-0.3,0.4c-0.4,0.1-0.7,0.4-0.9,0.7c0,0.1-0.1,0.2-0.1,0.3
		c-0.2,0.1-0.4,0.3-0.6,0.4l0,0c0,0-0.1,0-0.1,0c0,0,0,0,0,0c0,0,0,0-0.1,0c0,0,0,0,0,0c0,0,0,0-0.1,0c0,0,0,0,0,0c0,0,0,0-0.1,0
		c0,0,0,0,0,0c0,0,0,0-0.1,0c0,0,0,0,0,0c0,0-0.1,0-0.1,0c0,0,0,0,0,0c0,0,0,0,0,0h0l0,0l0,0l0,0l0,0c0,0,0,0,0,0l0,0c0,0,0,0,0,0h0
		c0,0,0,0,0,0c0,0,0,0-0.1,0c0,0,0,0,0,0c0-0.1-0.1-0.1-0.1-0.2c0,0,0,0,0,0c0-0.1,0-0.1-0.1-0.2c0,0,0,0,0,0c0,0,0-0.1,0-0.1
		c0,0,0-0.1,0-0.1v0c0,0,0,0,0,0v0c0,0,0,0,0,0c0,0,0,0,0,0v0l0,0c0-0.2,0-0.3,0-0.5s0-0.3,0-0.5c0-0.1,0-0.2,0-0.3
		c0-0.3,0-0.6,0-0.9c0-0.1,0-0.2,0-0.3c0,0,0,0,0,0c0,0,0,0,0,0c0-0.2,0.1-0.4,0.1-0.6c0.1-0.6,0.5-1.3,0.5-2c0-0.1,0-0.1,0-0.2
		c0-0.2-0.1-0.5-0.2-0.7c0,0,0-0.1-0.1-0.1c0,0,0,0,0,0c0,0,0,0-0.1-0.1c0,0,0,0,0,0c0,0-0.1,0-0.1-0.1c0,0,0,0,0,0
		c0,0-0.1,0-0.1-0.1c0,0,0,0,0,0c0,0,0,0-0.1,0c0,0,0,0,0,0c0,0-0.1,0-0.1,0h0c0,0-0.1,0-0.1,0c0,0,0,0,0,0c0,0-0.1,0-0.1,0
		c0,0,0,0,0,0c0,0,0,0,0,0c0,0-0.1,0-0.1,0h0c0,0-0.1,0-0.1,0c0,0,0,0,0,0c0,0-0.1,0-0.1,0c0,0,0,0,0,0c0,0-0.1,0-0.1,0
		c-1,0.4-1.4,1.6-1.6,2.6c-0.2,0.6-0.3,1.3-0.4,1.9c-0.1,0.1-0.2,0.3-0.3,0.4c-0.1,0.2-0.3,0.4-0.5,0.6c-0.2,0.2-0.4,0.4-0.6,0.5
		c-0.6,0.5-1.5,0.9-2.2,1.2c-0.1,0-0.1,0-0.2,0c0,0,0,0,0,0c0,0-0.1,0-0.1,0c0,0,0,0-0.1,0c0,0-0.1,0-0.1,0c0,0,0,0-0.1,0
		c0,0-0.1,0-0.1,0c0,0,0,0,0,0c-0.1,0-0.1,0-0.2,0c0,0,0,0,0,0c-0.1,0-0.1,0-0.2,0c0,0,0,0,0,0c0,0,0,0-0.1,0
		c-0.1,0-0.2-0.1-0.3-0.1c0,0,0,0,0,0c0,0-0.1,0-0.1,0c-0.1,0-0.1-0.1-0.2-0.2c0,0,0,0-0.1,0c0,0,0,0,0,0l0,0l0,0l0,0c0,0,0,0,0,0
		c0,0,0,0,0,0c0,0,0,0,0,0s0,0,0,0s0,0,0,0s0,0,0,0s0,0,0,0s0,0,0,0s0,0,0,0c0,0,0,0,0,0c0,0,0,0,0,0s0,0,0,0c0,0,0,0,0,0
		c0,0,0,0,0,0c0,0,0,0,0,0c0,0,0,0,0,0c0,0,0,0,0,0c0,0,0,0,0,0v0v0c0,0,0,0,0,0v0v0l0,0l0,0l0,0c0-0.1,0-0.2-0.1-0.3c0,0,0,0,0,0
		c0,0,0,0,0-0.1c0-0.1,0-0.1,0-0.2s0-0.1,0-0.2c0-0.2,0-0.5,0-0.7c0-0.1,0-0.1,0-0.2c0-0.1,0-0.1,0-0.2c0,0,0,0,0,0s0,0,0,0
		c0-0.2,0.1-0.4,0.1-0.6c0.1-0.5,0.3-0.9,0.4-1.3c0,0,0,0,0,0c0,0,0,0,0,0c0-0.1,0.1-0.2,0.1-0.3c0-0.1,0.1-0.2,0.1-0.3
		c0-0.1,0.1-0.2,0.1-0.3c0.1-0.2,0.2-0.4,0.3-0.6c0.1-0.1,0.1-0.2,0.2-0.3c0,0,0,0,0,0c0,0,0,0,0.1-0.1c0.1-0.1,0.1-0.2,0.2-0.3
		c0.2-0.3,0.4-0.5,0.6-0.7c0.1-0.1,0.1-0.2,0.2-0.2c0,0,0,0,0,0c0,0,0.1-0.1,0.2-0.2c0,0,0,0,0,0c0,0,0.1,0,0.1,0
		c0.1-0.1,0.3-0.2,0.4-0.3c0.1-0.1,0.2-0.1,0.3-0.2c0,0,0,0,0,0c0,0,0.1-0.1,0.1-0.1c0,0,0,0,0,0c0.1,0,0.2-0.1,0.3-0.1
		c0.1,0,0.2-0.1,0.3-0.1c0,0,0,0,0.1,0c0.1,0,0.2,0,0.2,0c0,0,0.2,0,0.3,0c0.1,0,0.2,0,0.3,0c0,0,0.2,0,0.2,0c0.1,0,0.2,0,0.2,0.1
		c0,0,0.1,0,0.1,0l0,0c0,0,0,0,0,0l0,0l0,0l0,0l0,0c0,0,0,0,0,0l0,0c0,0,0,0,0,0h0c0,0,0,0,0,0h0c0,0,0,0,0,0l0,0l0,0l0,0l0,0
		c0,0,0,0,0,0c0,0,0,0,0,0s0,0,0,0h0c0,0,0,0,0.1,0c0,0,0,0,0,0c0,0,0,0,0.1,0c0,0,0,0,0,0c0,0,0,0,0.1,0l0,0c0,0,0,0,0,0s0,0,0,0h0
		c0,0,0,0,0,0l0,0h0l0,0l0,0l0,0h0c0,0,0,0,0,0s0,0,0,0h0c0,0,0,0,0,0c0.2,0.1,0.4,0.1,0.6,0.3c0,0,0,0,0,0c0,0,0.1,0.1,0.2,0.1
		c0,0,0,0,0,0c0,0,0,0,0,0c0,0,0,0,0,0l0,0l0,0c0,0,0,0,0,0l0,0c0,0,0,0,0,0c0,0,0,0,0,0c0,0,0,0,0,0c0,0,0,0,0,0c0,0,0,0,0.1,0.1
		c0.1,0.1,0.1,0.1,0.2,0.1c0,0,0,0,0.1,0c0,0,0,0,0,0h0c0,0,0,0,0,0s0,0,0,0h0l0,0l0,0l0,0h0l0,0c0,0,0,0,0,0c0,0,0.1,0.1,0.1,0.1
		c0,0,0,0,0.1,0.1c0,0,0,0,0,0c0,0,0,0,0,0c0,0,0,0,0,0c0,0,0,0,0,0s0,0,0,0c0,0,0,0,0.1,0c0,0,0,0,0,0h0c0,0,0.1,0,0.1,0
		c0,0,0,0,0,0c0,0,0.1,0,0.1,0c0,0,0,0,0,0c0,0,0.1,0,0.1,0h0c0,0,0.1,0,0.1,0c0,0,0,0,0,0c0,0,0,0,0.1,0c0,0,0,0,0,0
		c0,0,0,0,0.1-0.1c0,0,0,0,0,0c0,0,0,0,0-0.1c0,0,0,0,0,0c0,0,0,0,0-0.1c0.1-0.1,0.1-0.3,0.2-0.4c0,0,0,0,0-0.1
		c0-0.1,0.1-0.2,0.1-0.2c0.1-0.4,0-0.8-0.2-1.2c-0.1-0.2-0.2-0.4-0.3-0.6c-0.1-0.1-0.2-0.2-0.2-0.3c0,0,0,0,0,0c0,0,0,0,0,0l0,0l0,0
		l0,0c0,0,0-0.1-0.1-0.1s0,0,0-0.1c0,0,0,0,0,0c0,0,0,0-0.1-0.1c0,0,0,0,0,0c0,0-0.1-0.1-0.1-0.1c-0.1-0.1-0.1-0.1-0.2-0.2
		c0,0,0,0-0.1,0c0,0-0.1-0.1-0.2-0.1c0,0-0.1,0-0.1,0c0,0-0.1-0.1-0.1-0.1c0,0-0.1,0-0.1,0c0,0-0.1,0-0.1-0.1c0,0-0.1,0-0.1,0
		c0,0-0.1,0-0.1,0c0,0-0.1,0-0.1,0c0,0-0.1,0-0.1,0c0,0-0.1,0-0.1,0c0,0-0.1,0-0.1,0c0,0-0.1,0-0.1,0c0,0-0.1,0-0.1,0c0,0,0,0,0,0
		c0,0-0.1,0-0.1,0s-0.1,0-0.1,0c0,0-0.1,0-0.1,0c0,0-0.1,0-0.1,0c0,0-0.1,0-0.1,0c0,0-0.1,0-0.1,0c0,0-0.1,0-0.1,0c0,0-0.1,0-0.1,0
		c0,0-0.1,0-0.1,0c0,0-0.1,0-0.1,0c0,0-0.1,0-0.1,0c0,0-0.1,0-0.1,0c0,0-0.1,0-0.2,0.1c0,0,0,0-0.1,0c-0.1,0-0.2,0.1-0.2,0.1
		c-1.3,0.5-2.3,1.4-3.2,2.4c-0.5,0.5-1,1.2-1.4,1.8c-0.2,0.4-0.5,0.8-0.7,1.2c-0.1,0.1-0.1,0.3-0.2,0.4c-0.1,0.1-0.1,0.3-0.2,0.4
		c-0.1,0.3-0.2,0.6-0.3,0.9c-0.2,0.6-0.3,1.2-0.4,1.8c0,0.1,0,0.2,0,0.3c0,0.2,0,0.3-0.1,0.5c0,0.1,0,0.2,0,0.3c0,0.3,0,0.5,0,0.8
		c0,0.2,0,0.3,0,0.5c-1.1,2-2.3,3.9-3.7,5.6c-1,1.1-2,2-3.1,2.5c-0.6,0.3-1.1,0.5-1.7,0.6c-0.3,0.1-0.6,0.1-0.9,0.1
		c-0.1,0-0.1,0-0.1,0h0c0,0-0.1,0-0.1,0c-0.2,0-0.4,0-0.6,0c-0.3,0-0.7-0.1-1-0.1c-0.1,0-0.1,0-0.2,0l-0.1,0c-0.2,0-0.4-0.1-0.5-0.2
		c-0.3-0.1-0.6-0.2-0.8-0.4c0,0-0.1,0-0.1-0.1c0,0-0.1,0-0.1-0.1c-0.1-0.1-0.3-0.2-0.4-0.3c-0.1-0.1-0.2-0.2-0.4-0.3
		c0,0-0.1-0.1-0.1-0.1c0,0-0.1-0.1-0.1-0.1c-0.2-0.2-0.4-0.5-0.5-0.8c0-0.1-0.1-0.1-0.1-0.2l0-0.1C8.1,33.3,8,33.1,8,33
		c0-0.1,0-0.2-0.1-0.3c0-0.1,0-0.2-0.1-0.3c0,0,0,0,0,0c0-0.1,0-0.2,0-0.3c0-0.3,0-0.7,0-1c0-0.2,0-0.3,0.1-0.5l0-0.1
		c0-0.1,0-0.1,0-0.2c0.1-0.6,0.3-1.2,0.5-1.8l0.1-0.2c0-0.1,0.1-0.2,0.1-0.3c0.1-0.3,0.3-0.6,0.4-0.9s0.3-0.5,0.5-0.8l0.1-0.1
		c0,0,0,0,0,0l0,0l0,0c0,0,0,0,0,0c0,0,0,0,0,0c0,0,0.1-0.1,0.1-0.1C9.9,26,10,25.9,10,25.9c0.4-0.5,0.9-1,1.3-1.5
		c0,0,0.1-0.1,0.1-0.1s0.1-0.1,0.1-0.1l0.1-0.1c0.1-0.1,0.2-0.2,0.3-0.3c0.3-0.2,0.5-0.4,0.8-0.6c0.3-0.2,0.6-0.4,0.9-0.6
		c0,0,0,0,0,0l0,0c0.1,0,0.1-0.1,0.2-0.1c0.1-0.1,0.3-0.1,0.4-0.2c0.3-0.2,0.7-0.3,1-0.5c0.3-0.1,0.6-0.3,1-0.4
		c0.8-0.4,1.3-1.2,1.2-2c0-0.4-0.2-0.7-0.5-0.9c-0.3-0.2-0.7-0.3-1.1-0.3c-0.2,0-0.4,0.1-0.6,0.1c0,0,0,0-0.1,0l-0.3,0
		c-0.4,0-0.8,0-1.1,0c-0.7,0-1.6-0.1-2.4-0.4c-0.2,0-0.3-0.1-0.5-0.2c-0.1,0-0.2-0.1-0.3-0.1c0,0,0,0-0.1,0c0,0-0.1,0-0.1,0
		c-0.1-0.1-0.3-0.2-0.3-0.3l0,0c-0.1,0-0.1-0.1-0.1-0.1c0,0,0,0-0.1,0C9.8,17,9.8,17,9.8,17c-0.1-0.1-0.2-0.2-0.2-0.4
		c0-0.1-0.1-0.1-0.1-0.2v0c0-0.1-0.1-0.3-0.1-0.5c0-0.1,0-0.1,0-0.2c0,0,0,0,0-0.1v0c0,0,0,0,0-0.1c0-0.3,0-0.6,0-1v0v0
		c0-0.1,0-0.1,0-0.2c0,0,0-0.1,0-0.1c0-0.1,0.1-0.3,0.1-0.5c0-0.1,0.1-0.3,0.1-0.4l0-0.1v0c0-0.1,0.1-0.1,0.1-0.2c0,0,0-0.1,0.1-0.1
		c0.1-0.3,0.3-0.7,0.5-1c0.1-0.1,0.1-0.2,0.2-0.3l0.1-0.1l0,0c0,0,0.1-0.1,0.1-0.1c0,0,0.1-0.1,0.1-0.1c0.3-0.3,0.5-0.6,0.8-0.9
		l0.1-0.1c0.2-0.2,0.4-0.4,0.6-0.6c0,0,0.1-0.1,0.1-0.1c0.1-0.1,0.2-0.1,0.2-0.2C12.7,9.2,12.9,9,13,8.9c0.3-0.2,0.6-0.4,0.9-0.6
		C14,8.2,14.2,8.1,14.4,8c0.1,0,0.1-0.1,0.2-0.1c0,0,0.1-0.1,0.1-0.1c0.8-0.4,1.5-0.8,2.1-1c0.2-0.1,0.3-0.1,0.5-0.2l0.1,0
		c0,0,0,0,0.1,0l0.1,0c0,0,0.1,0,0.1,0c0.4-0.1,0.9-0.2,1.3-0.3c0.2,0,0.4-0.1,0.5-0.1h0c0,0,0.1,0,0.2,0c0,0,0.1,0,0.1,0
		c0.4,0,0.8,0,1.2,0.1c0.1,0,0.2,0,0.2,0c0,0,0.1,0,0.2,0.1c0,0,0.1,0,0.1,0c0,0,0,0,0,0l0,0c0.1,0,0.2,0.1,0.2,0.1
		c0.2,0.1,0.3,0.1,0.5,0.2c0.1,0,0.2,0.1,0.3,0.2c0,0,0.1,0,0.1,0.1l0.1,0c0.3,0.2,0.5,0.4,0.7,0.6c0,0,0,0.1,0,0.1c0,0,0,0.1,0,0.1
		c0,0.1,0.1,0.1,0.1,0.2c0,0,0,0.1,0,0.1c0,0,0,0,0,0.1c0,0.1,0.1,0.2,0.1,0.3c0,0,0,0.1,0,0.2c0,0.1,0,0.1,0,0.2c0,0.2,0,0.4,0,0.5
		c0,0,0,0.1,0,0.1c0,0,0,0.1,0,0.1l0,0c0,0,0,0.1,0,0.1c0,0.2-0.1,0.4-0.1,0.6c0,0,0,0,0,0.1c0,0,0,0.1,0,0.1c0,0,0,0.1,0,0.1
		c-0.1,0.2-0.1,0.3-0.2,0.5c0,0,0,0.1-0.1,0.1c0,0,0,0.1,0,0.1c0,0,0,0.1-0.1,0.1c-0.1,0.1-0.1,0.2-0.2,0.3c0,0,0,0.1-0.1,0.1
		c0,0.1-0.1,0.1-0.2,0.2c0,0,0,0,0,0l0,0.1c-0.1,0.1-0.3,0.2-0.4,0.3c0,0-0.1,0.1-0.1,0.1l-0.1,0.1l0,0c-0.1,0-0.2,0.1-0.3,0.1
		c-0.1,0.1-0.2,0.1-0.4,0.2c-0.2,0.1-0.4,0.2-0.6,0.2c0,0-0.1,0-0.1,0s-0.1,0-0.1,0.1c0,0,0,0,0,0c0,0,0,0-0.1,0
		c-0.4,0.1-0.9,0.2-1.4,0.3c-0.2,0-0.4,0.1-0.7,0.1c-0.1,0-0.1,0-0.2,0l-0.1,0c0,0-0.1,0-0.1,0c0,0,0,0-0.1,0c-0.5,0-1,0-1.4,0
		c-0.3,0-0.6-0.1-0.9-0.1c-0.8-0.1-1.7-0.2-2.5,0c-0.6,0.2-1,0.5-1.3,1.1c-0.2,0.5-0.2,1.1,0.3,1.5l0.1,0.1c0.2,0.2,0.4,0.4,0.7,0.5
		c0.2,0.1,0.5,0.1,0.8,0.2c0.1,0,0.1,0,0.2,0c0.5,0.1,1.1,0.2,1.6,0.2c1.1,0.1,2.1,0.1,3.2-0.1c1.3-0.1,3.8-0.6,5.6-2.2
		c1.7-1.5,2.8-3.4,3-5.6c0.1-1.2-0.2-2.4-0.8-3.3c-0.6-0.8-1.5-1.6-2.6-2c-4.5-1.9-9.6,0.9-11.5,2.2c-3.7,2.4-6.1,6-6.3,9.5
		c-0.2,2.6,1.1,4.7,3.1,5.4c0.5,0.2,1,0.3,1.6,0.4c-1,0.7-1.9,1.6-2.7,2.5c-2.1,2.5-3.4,5.5-3.6,8.5c-0.1,1.1,0,3.3,1.3,5
		c1.1,1.4,2.6,2.3,4.3,2.5C10.5,39.3,10.9,39.3,11.3,39.3 M42.7,17.7C42.6,17.8,42.6,17.8,42.7,17.7c-0.3-0.6-0.5-1.2-0.6-1.8
		c0-0.4,0.1-0.8,0.2-1.1c0,0,0-0.1,0.1-0.1l0,0c0,0,0.1-0.1,0.1-0.2l0,0c0,0,0,0,0,0c0,0,0,0,0.1,0c0,0,0.1-0.1,0.1-0.1
		c0,0,0.1,0,0.1-0.1h0c0,0,0.1,0,0.1,0c0,0,0,0,0.1,0c0.3,0,0.3,0,0.5,0.1c0.1,0.1,0.4,0.2,0.4,0.7C44,16.3,43,17.3,42.7,17.7
		 M54.9,31.1c-0.2,1.1-0.4,2-0.5,2.9c-0.4,2.1-0.9,3.7-1.5,5.3c0,0.1,0,0.1-0.1,0.2l-0.1,0.2c-0.1,0.2-0.1,0.3-0.2,0.5
		c-0.2,0.3-0.3,0.7-0.5,1c-0.2,0.3-0.3,0.7-0.5,0.9c0,0-0.1,0.1-0.1,0.1l-0.1,0.1c-0.1,0.1-0.2,0.2-0.2,0.3
		c-0.1,0.2-0.3,0.3-0.4,0.5c-0.1,0.1-0.1,0.2-0.2,0.2c0,0-0.1,0-0.1,0.1c-0.1,0.1-0.2,0.1-0.2,0.2c0,0-0.1,0.1-0.2,0.1
		c0,0-0.1,0-0.1,0.1c-0.2,0.1-0.4,0.2-0.6,0.3l0,0c0,0-0.1,0-0.1,0c-0.2,0-0.3,0.1-0.4,0.1c0,0-0.1,0-0.1,0l-0.1,0h0c0,0,0,0,0,0
		c-0.1,0-0.2-0.1-0.3-0.1c0,0-0.1-0.1-0.1-0.1c0,0-0.1-0.1-0.1-0.1c-0.3-0.3-0.5-0.6-0.6-1c-0.1-0.5-0.1-1,0-1.7
		c0.2-1.1,0.6-2,1.2-3.1c0.5-0.9,1.1-1.7,2-2.7c0.7-0.8,1.5-1.6,2.5-2.5C53.7,32.2,54.3,31.7,54.9,31.1"/>
	<path class="st0" d="M24.3,39.2c0.4-0.1,0.7-0.2,1.1-0.2c0.7-0.1,1.4-0.3,2.1-0.4c1.1-0.2,2.1-0.3,3.2-0.4c0.3,0,0.6-0.1,0.8-0.1
		s0.6,0,0.8-0.1c0.3,0,0.5,0,0.7,0c0,0,0,0,0.1,0c0,0,0,0,0.1,0c0,0,0,0,0,0c0,0,0,0,0,0c0,0,0.1,0,0.1,0l0,0l0,0c0.2,0,0.3,0,0.4,0
		c0.1,0,0.3,0,0.4,0c0,0,0.1,0,0.1,0c0.1,0,0.2,0,0.3,0c0,0,0.1,0,0.1,0c0.1,0,0.3,0,0.4,0c0,0,0.1,0,0.1,0c0.1,0,0.3,0,0.4,0
		c0.1,0,0.2,0,0.3,0c0,0,0.1,0,0.2,0c0.1,0,0.2,0,0.3,0c0,0,0.1,0,0.1,0c0.1,0,0.3,0,0.4,0l0,0c0.2,0,0.3,0,0.5,0
		c0.3,0,0.6-0.1,0.9-0.2c0.5-0.2,0.8-0.6,0.9-1.1c0-0.2,0-0.3,0-0.4s0-0.3-0.1-0.4c-0.1-0.4-0.5-0.7-1-0.8c-0.1,0-0.2,0-0.3-0.1
		c0,0,0,0-0.1,0c-0.1,0-0.2,0-0.3,0c0,0,0,0-0.1,0c-0.1,0-0.2,0-0.3,0c0,0,0,0,0,0c-0.1,0-0.2,0-0.4,0c0,0,0,0-0.1,0
		c-0.1,0-0.2,0-0.3,0h0c-0.2,0-0.4,0-0.6,0c-0.2,0-0.4,0-0.7,0c-0.3,0-0.5,0-0.8,0c-0.5,0-1.1,0-1.7,0.1c-0.3,0-0.5,0-0.8,0.1
		c-1.3,0.1-2.6,0.3-3.9,0.6c-0.8,0.2-1.5,0.4-2.3,0.6c-0.3,0.1-0.5,0.2-0.8,0.2c-0.8,0.2-1.5,0.5-2.3,0.7c-0.5,0.2-1,0.4-1.5,0.5
		c-1,0.4-2,0.8-3,1.2c-1.5,0.7-2.9,1.4-4.4,2.1c-0.5,0.3-1.1,0.6-1.6,0.9s-1.1,0.6-1.6,0.9c-1,0.6-2,1.3-3,2l0,0c0,0,0,0-0.1,0
		c0,0,0,0,0,0c0,0,0,0,0,0s0,0,0,0c0,0,0,0,0,0c0,0,0,0,0,0c0,0,0,0,0,0s0,0,0,0c0,0,0,0,0,0s0,0,0,0c0,0,0,0,0,0v0c0,0,0,0,0,0v0
		c0,0,0,0,0,0c0,0,0,0,0,0c0,0,0,0,0,0s0,0,0,0c0,0,0,0,0,0c0,0,0,0,0,0c0,0,0,0,0,0l0,0c0,0,0,0,0,0l0,0c0,0,0,0,0.1,0l0,0
		c0,0,0,0,0,0l0,0c0,0,0,0,0,0c0,0,0,0,0,0c0,0,0.1,0,0.1,0l0,0c1.2-0.5,2.3-1,3.5-1.6c0.7-0.3,1.4-0.7,2.1-1
		c1.4-0.6,2.9-1.2,4.3-1.8c0.5-0.2,1-0.4,1.5-0.5c0.5-0.2,1-0.3,1.4-0.5c-0.1,0.6-0.1,1.2-0.2,1.7c-0.1,1-0.3,1.9-0.5,2.9
		c-0.1,0.5-0.2,1-0.3,1.5s-0.2,1-0.3,1.4c-0.2,1-0.4,1.9-0.6,2.9c-0.8,3.3-1.7,6.6-2.9,9.8c-0.2,0.5-0.3,0.9-0.5,1.4
		c-0.1,0.3-0.2,0.5-0.3,0.8c0,0.1-0.1,0.2-0.1,0.3c0,0,0,0.1-0.1,0.1c0,0,0,0.1,0,0.1c-0.2,0.5-0.4,1-0.6,1.5
		c-0.1,0.3-0.2,0.5-0.3,0.8c-0.1,0.3-0.2,0.5-0.3,0.8c-0.1,0.2-0.1,0.3-0.2,0.5C13,66.8,13,67,12.9,67.2c0,0.1,0,0.1-0.1,0.2
		c-0.1,0.3-0.1,0.6,0,0.9l0,0c0,0,0,0.1,0,0.1c0,0,0,0,0,0c0,0,0,0.1,0,0.1c0,0,0,0,0,0c0,0,0,0.1,0.1,0.1l0,0c0,0,0,0.1,0.1,0.1
		c0,0,0,0,0,0c0,0,0,0,0.1,0.1c0,0,0,0,0,0c0,0,0.1,0.1,0.1,0.1c0,0,0,0,0,0c0,0,0.1,0,0.1,0.1c0,0,0,0,0,0c0,0,0.1,0,0.1,0
		c0,0,0,0,0,0c0,0,0.1,0,0.1,0c0,0,0,0,0,0c0,0,0.1,0,0.1,0c0,0,0,0,0,0c0,0,0.1,0,0.1,0c0,0,0,0,0,0c0,0,0.1,0,0.1,0h0
		c0,0,0.1,0,0.1,0c0,0,0,0,0.1,0c0,0,0.1,0,0.1,0c0,0,0,0,0.1,0c0,0,0.1,0,0.1,0c0,0,0,0,0,0c0,0,0.1,0,0.1-0.1l0,0
		c0.1-0.1,0.2-0.1,0.3-0.2c0.3-0.2,0.6-0.4,0.8-0.8c0-0.1,0.1-0.1,0.1-0.2c0.1-0.2,0.2-0.3,0.2-0.5c0.2-0.5,0.4-0.9,0.6-1.4
		c0.1-0.2,0.2-0.5,0.3-0.7c0.3-0.7,0.6-1.5,0.9-2.2c0.5-1.4,1-2.8,1.5-4.3c0.1-0.5,0.3-1,0.4-1.4c0.5-1.7,0.9-3.4,1.3-5.1
		c0.1-0.7,0.3-1.5,0.4-2.2c0.1-0.5,0.2-1,0.2-1.5s0.1-1,0.2-1.5c0.1-0.5,0.1-1,0.2-1.5c0.1-0.8,0.1-1.6,0.2-2.4c0-0.3,0-0.5,0-0.8
		c0-0.2,0-0.4,0-0.6c0-0.1,0-0.2,0-0.3c0-0.2,0-0.4,0-0.6c0-0.3,0-0.6,0-0.9C22.9,39.6,23.6,39.4,24.3,39.2"/>
	<path class="st0" d="M77.5,52.7C77.5,52.6,77.5,52.6,77.5,52.7C77.5,52.6,77.5,52.6,77.5,52.7C77.5,52.6,77.5,52.6,77.5,52.7
		c0-0.1,0-0.1,0-0.1s0,0,0,0c0,0,0,0,0,0c0,0,0,0,0,0c0,0,0,0,0,0c0,0,0,0,0,0c0,0,0,0,0,0c0,0,0,0,0,0c0,0,0,0,0,0c0,0,0,0,0,0
		c0,0,0,0,0,0c0,0,0,0,0,0s0,0,0,0c0,0,0,0,0,0c0,0,0,0,0,0c0,0,0,0,0,0c0,0,0,0,0,0s0,0,0,0c0,0,0,0,0,0c0,0,0,0,0,0c0,0,0,0,0,0
		c0,0,0,0,0,0c0,0,0,0,0,0c0,0,0,0,0,0c0,0,0,0,0,0s0,0,0,0c0,0,0,0,0,0.1c-0.2,0.8-0.5,1.5-1,2.2c-0.1,0.1-0.1,0.2-0.2,0.3
		c-0.1,0.1-0.1,0.2-0.2,0.2c-0.2,0.2-0.4,0.5-0.6,0.7c-0.1,0.1-0.3,0.3-0.5,0.3c-0.1,0-0.2,0.1-0.3,0.1c-0.1,0-0.2,0.1-0.3,0.1
		c-0.1,0-0.1,0-0.2,0.1c0.2-0.7,0.4-1.4,0.6-2.1c0.2-1.2,0.3-2.4,0.3-3.6c0-0.2,0-0.4,0-0.6c0-0.5-0.1-0.9-0.1-1.3
		c0-0.1,0-0.1,0-0.2c0-0.1-0.1-0.3-0.1-0.4c-0.1-0.2-0.1-0.4-0.2-0.5c-0.1-0.1-0.1-0.3-0.2-0.4c0-0.1-0.1-0.1-0.1-0.2
		c-0.3-0.7-0.8-1.2-1.5-1.5c-0.1,0-0.3-0.1-0.4-0.1c-0.1,0-0.1,0-0.2,0c0,0,0,0-0.1,0c-0.1,0-0.1,0-0.1,0c0,0-0.1,0-0.1,0
		c0,0-0.1,0-0.1,0c0,0-0.1,0-0.1,0c0,0,0,0-0.1,0c0,0-0.1,0-0.1,0c0,0,0,0-0.1,0c-0.1,0-0.1,0-0.2,0c0,0,0,0,0,0c-0.1,0-0.1,0-0.2,0
		c0,0,0,0-0.1,0c-0.1,0-0.1,0-0.1,0c0,0-0.1,0-0.1,0c-0.1,0-0.1,0-0.2,0c0,0,0,0-0.1,0c-0.1,0-0.1,0-0.2,0.1c0,0,0,0-0.1,0
		c-0.1,0-0.1,0-0.2,0c0,0,0,0-0.1,0c0,0-0.1,0-0.1,0.1c0,0,0,0-0.1,0c-0.1,0-0.1,0-0.2,0.1c0,0,0,0,0,0c-0.1,0-0.1,0.1-0.2,0.1
		c0,0,0,0-0.1,0c0,0-0.1,0-0.1,0.1c0,0,0,0-0.1,0c0,0-0.1,0-0.1,0.1c0,0,0,0-0.1,0c-0.1,0-0.1,0.1-0.2,0.1c-1.4,1-2.3,2.7-2.6,4.4
		c0,0.1,0,0.2-0.1,0.3c-0.1-0.1-0.1-0.2-0.2-0.2c0,0-0.1-0.1-0.1-0.1c0,0-0.1,0-0.1,0s-0.1,0-0.1,0c0,0-0.1,0-0.1,0c0,0,0,0,0,0
		c0,0-0.1,0-0.1,0c0,0,0,0,0,0c0,0,0,0,0,0c0,0-0.1,0-0.1,0c0,0,0,0,0,0c0,0-0.1,0-0.1,0h0c0,0-0.1,0-0.1,0c0,0,0,0,0,0
		c0,0-0.1,0-0.1,0c0,0,0,0,0,0c0,0-0.1,0-0.1,0.1l0,0c0,0-0.1,0-0.1,0.1c0,0,0,0,0,0c0,0-0.1,0-0.1,0.1c0,0,0,0,0,0
		c0,0-0.1,0.1-0.1,0.1c-0.3,0.2-0.5,0.5-0.7,0.8c0,0.1-0.1,0.1-0.2,0.2c-0.1,0.1-0.2,0.3-0.3,0.4c-0.3,0.4-0.5,0.9-0.7,1.4
		c-0.1,0.2-0.2,0.5-0.3,0.7c0,0,0,0.1,0,0.1c-0.2,0.4-0.5,0.8-0.7,1.3c-0.7,1.1-1.4,2.2-2.2,3.1c-0.1,0.1-0.2,0.2-0.3,0.3
		c0,0-0.1,0.1-0.1,0.2c0,0-0.1,0.1-0.2,0.1c0,0-0.1,0.1-0.2,0.1c-0.2,0.1-0.3,0.2-0.5,0.3c0,0-0.1,0-0.1,0c0,0,0,0,0,0
		c0,0-0.1,0-0.1,0c0,0,0,0,0,0c0,0-0.1,0-0.1,0h0c0,0-0.1,0-0.1,0c0,0,0,0,0,0c0,0,0,0,0,0c0,0,0,0,0,0c0,0,0-0.1,0-0.1
		c0-0.1,0-0.2,0-0.3c0,0,0,0,0,0l0,0l0,0c0,0,0,0,0,0v0c0,0,0,0,0,0v0c0,0,0,0,0,0c0,0,0,0,0,0c0,0,0,0,0,0c0,0,0,0,0,0s0,0,0,0
		c0,0,0,0,0,0v0c0,0,0,0,0,0l0,0c0.1-0.3,0.2-0.7,0.3-1c0.2-0.7,0.4-1.3,0.6-2c0.4-1.3,0.8-2.6,1.1-4c0.1-0.4,0.2-0.7,0.2-1.1
		s0.1-0.7,0.2-1.1c0.1-0.6,0-1.3-0.3-1.8c0,0,0-0.1-0.1-0.1c0,0,0,0,0,0c0,0,0-0.1-0.1-0.1c0,0,0,0,0,0c0,0-0.1-0.1-0.1-0.1
		c0,0,0,0,0,0c0,0-0.1-0.1-0.1-0.1c0,0,0,0,0,0c0,0-0.1,0-0.1-0.1c0,0,0,0,0,0c0,0-0.1,0-0.1-0.1c0,0,0,0,0,0c0,0-0.1,0-0.1-0.1
		c0,0,0,0,0,0c0,0-0.1,0-0.1,0c0,0,0,0,0,0c0,0-0.1,0-0.1,0c0,0,0,0,0,0c0,0-0.1,0-0.2,0c0,0,0,0,0,0c0,0-0.1,0-0.1,0c0,0,0,0,0,0
		c0,0-0.1,0-0.1,0c0,0,0,0,0,0c0,0,0,0,0,0c0,0-0.1,0-0.1,0c0,0,0,0-0.1,0c0,0-0.1,0-0.1,0c0,0,0,0-0.1,0c0,0-0.1,0-0.1,0
		c0,0,0,0,0,0c0,0-0.1,0-0.2,0c-1,0.3-1.9,1.1-2.5,1.9c-0.1,0.1-0.2,0.3-0.3,0.4c-0.6,0.7-1,1.5-1.5,2.2c-0.2,0.3-0.4,0.6-0.5,0.9
		c-0.1,0.1-0.1,0.3-0.2,0.4c0.1-0.3,0.1-0.6,0.2-0.8c0.1-0.3,0.1-0.6,0.2-0.8c0.1-0.3,0.1-0.5,0.2-0.8c0.1-0.3,0.2-0.5,0.2-0.8
		c0.2-0.6,0.5-1.4,0.5-2c0-0.1,0-0.3-0.1-0.4c0-0.1,0-0.1-0.1-0.2c0-0.1-0.1-0.2-0.2-0.3c0,0-0.1-0.1-0.1-0.1c0,0,0,0-0.1,0
		c-0.1,0-0.2-0.1-0.3-0.1c0,0-0.1,0-0.1,0c0,0,0,0,0,0c0,0-0.1,0-0.1,0h0l0,0c0,0-0.1,0-0.2,0c0,0,0,0,0,0c0,0-0.1,0-0.2,0
		c0,0,0,0,0,0c0,0-0.1,0-0.1,0c0,0,0,0,0,0c0,0-0.1,0-0.2,0.1c0,0,0,0,0,0c0,0-0.1,0-0.1,0.1l0,0c0,0-0.1,0.1-0.1,0.1c0,0,0,0,0,0
		c0,0-0.1,0.1-0.1,0.1c0,0,0,0,0,0c0,0-0.1,0.1-0.1,0.1c-0.3,0.4-0.5,0.8-0.6,1.3c-0.1,0.3-0.2,0.6-0.2,0.8
		c-0.1,0.6-0.3,1.2-0.4,1.8c-0.1,0.3-0.1,0.6-0.2,0.9c-0.1,0.8-0.3,1.7-0.3,2.5c-0.4,0.9-0.9,1.7-1.5,2.6c0,0.1-0.1,0.2-0.2,0.3
		c-0.7,1.1-1.5,2.4-2.8,2.5c-0.4,0-0.9-0.2-1.2-0.5c0,0,0,0,0,0c0,0,0,0,0,0c0,0,0,0,0-0.1c0,0,0-0.1-0.1-0.1c0,0,0,0,0,0
		c0,0,0,0,0,0c0,0,0-0.1,0-0.2c0,0,0-0.1,0-0.1v0c0,0,0-0.1,0-0.2c0-0.2,0-0.5,0-0.8c0,0,0-0.1,0-0.2c0,0,0-0.1,0-0.1
		c0-0.2,0-0.3,0.1-0.4c0.1-0.6,0.3-1.2,0.5-1.9c0.1-0.3,0.2-0.7,0.4-1.1c0.1-0.2,0.1-0.3,0.2-0.5l0,0c0,0,0-0.1,0-0.1
		c0-0.1,0.1-0.2,0.1-0.3c0.1-0.2,0.2-0.5,0.3-0.7c0.2-0.5,0.5-1,0.6-1.5c0.1-0.6-0.1-1.2-0.5-1.4c-0.1-0.1-0.3-0.2-0.5-0.3
		c-0.3,0-0.6,0-0.9,0.1c0,0-0.1,0-0.2,0c-0.2,0-0.3,0.1-0.5,0.2c-0.2,0-0.3,0.1-0.5,0.1c-0.3,0.1-0.5,0.1-0.8,0.2
		c0.3-0.5,0.6-1,0.8-1.6c0.2-0.7,0.3-1.4,0.2-2.3c0-0.4-0.1-0.8-0.4-1.1c-0.3-0.4-0.7-0.6-1.3-0.7c-2.6-0.2-3.6,2.7-3.8,3.5
		c-0.5,1.7-0.1,3.8,1.6,4.5c-0.4,1.3-0.9,2.4-1.4,3.5c-0.3,0.6-0.7,1.2-1,1.7c-0.3,0.4-0.6,1-1.1,1.3c-0.4,0.3-0.8,0.6-1.1,0.6
		c0,0-0.1,0-0.1,0c0,0,0,0,0,0c0,0,0,0,0,0c0,0,0,0,0,0c0,0,0-0.1-0.1-0.1c0,0,0,0,0,0c0-0.1,0-0.2,0-0.3c0-0.1,0-0.2,0-0.2
		c0,0,0-0.1,0-0.1c0-0.2,0-0.5,0-0.8c0-0.3,0.1-0.5,0.1-0.8c0-0.1,0-0.3,0.1-0.4c0-0.1,0-0.1,0-0.2c0.1-0.7,0.3-1.3,0.5-2
		c0-0.2,0.1-0.3,0.2-0.5c0.2-0.6,0.5-1.3,0.3-1.9c-0.2-0.5-0.5-0.8-1-0.9c0,0-0.1,0-0.1,0l-0.3,0c0,0,0,0,0,0
		c-0.3,0-0.5,0.2-0.8,0.3c-0.3,0.2-0.6,0.5-0.8,0.8c-0.2,0.4-0.3,0.8-0.5,1.1l0,0.1c-0.2,0.5-0.3,1.1-0.5,1.7
		c-0.2,0.5-0.5,0.9-0.7,1.2c-0.7,1.1-1.6,2-2.8,2.6c-0.1,0-0.4,0.2-0.6,0.2h0c0,0,0,0,0,0c0,0,0,0,0,0l0,0c0,0,0,0,0,0
		c0,0,0-0.1-0.1-0.1c0,0,0,0,0-0.1s0,0,0,0l0,0c0-0.1,0-0.1,0-0.2c0-0.3,0-0.7,0.1-1c0-0.4,0.1-0.5,0.1-0.9c0.1-0.4,0.1-0.8,0.2-1.2
		c0.2-0.8,0.4-1.5,0.6-2.2l0,0c0.1-0.4,0.3-0.8,0.4-1.3l0.1-0.2c0,0,0.1-0.2,0.1-0.3c0.1-0.2,0.1-0.3,0.2-0.5
		c0.1-0.2,0.2-0.4,0.3-0.7c0.3-0.7,0.7-1.5,0.8-2.3c0-0.5-0.2-0.9-0.6-1.2c-0.5-0.3-1.2-0.2-1.6,0.2c-0.9,0.8-1.3,1.7-1.7,2.8
		c-0.3,0.8-0.7,1.8-1,2.8c-0.5,1.8-0.8,3.7-1,5.5c-0.1,1.2,0.2,2.2,0.8,2.9c0.5,0.5,1.1,0.8,1.7,0.8c0.4,0,0.8-0.1,1.1-0.3
		c0.7-0.3,1.4-0.8,2.2-1.7c0.4-0.4,0.8-1,1.1-1.5c0,0.5,0.1,1,0.3,1.5c0.2,0.7,0.8,1.6,1.8,1.8c0.8,0.2,1.8,0,2.7-0.6
		c0.7-0.5,1.2-1.2,1.6-1.8l0-0.1c0.4-0.6,0.8-1.3,1.2-2.1c0.8-1.6,1.3-3.2,1.8-4.8c0.7,0.1,1.4,0,2.1-0.2c-0.3,0.8-0.6,1.5-0.8,2.2
		c-0.6,1.8-0.8,3.3-0.6,4.7c0.2,1.7,1.5,2.9,3.2,2.9c0,0,0.1,0,0.1,0c2.1,0,3.4-1.7,4.4-3.4c0.2-0.4,0.4-0.8,0.7-1.1
		c0,0.3,0,0.5,0,0.8c0,0.6,0,1.1,0,1.7c0,0.1,0,0.2,0,0.2c0,0.1,0,0.2,0,0.2c0,0.2,0.1,0.5,0.1,0.7c0,0.1,0.1,0.2,0.1,0.3
		c0,0.1,0.1,0.2,0.2,0.3l0,0c0,0,0,0,0.1,0.1c0,0,0,0,0,0c0,0,0,0,0,0c0,0,0,0,0,0c0,0,0,0,0,0c0,0,0,0,0,0c0,0,0,0,0,0c0,0,0,0,0,0
		h0c0,0,0.1,0,0.1,0h0c0,0,0.1,0,0.1,0c0,0,0,0,0,0c0,0,0,0,0.1,0c0,0,0,0,0,0c0,0,0.1,0,0.1-0.1c0,0,0,0,0,0c0,0,0,0,0.1,0
		c0,0,0,0,0,0c0,0,0,0,0.1-0.1l0,0c0,0,0,0,0.1-0.1c0,0,0,0,0,0c0,0,0,0,0-0.1c0.3-0.5,0.4-1.3,0.4-1.8c0.1-0.6,0.1-1.2,0.2-1.8
		c0.1-0.6,0.2-1.3,0.3-1.9c0.2-0.4,0.4-0.7,0.6-1.1c0.2-0.4,0.4-0.8,0.6-1.1c0.1-0.1,0.1-0.3,0.2-0.4c0.1-0.3,0.3-0.5,0.4-0.7
		c0.1-0.1,0.2-0.2,0.2-0.4c0.5-0.7,1-1.4,1.7-1.9c0.4-0.4,0.9-0.7,1.5-1c0,0,0.1,0,0.1,0c0,0,0,0,0,0c0,0,0,0,0,0h0c0,0,0,0,0,0
		c0,0,0,0,0,0c0,0,0,0,0,0c0,0,0,0,0,0l0,0c0,0,0,0,0,0c0,0,0,0,0,0l0,0c0,0,0,0,0,0c0,0,0,0,0,0s0,0,0,0l0,0l0,0v0c0,0,0,0,0,0v0h0
		c0,0,0,0,0,0c0,0,0,0,0,0v0l0,0c0,0,0,0,0,0c0,0,0,0,0,0c0,0,0,0,0,0v0l0,0l0,0l0,0l0,0l0,0c0,0,0,0,0,0l0,0v0l0,0
		c0,0.1,0,0.1,0,0.2c0,0.1,0,0.2,0,0.2c0,0.1,0,0.2,0,0.2c0,0.1,0,0.2,0,0.2l0,0l0,0c0,0,0,0,0,0c0,0,0,0,0,0l0,0c0,0,0,0,0,0
		c0,0,0,0,0,0c0,0,0,0,0,0c0,0,0,0.1,0,0.1l0,0l0,0l0,0c0,0.1,0,0.2,0,0.3c-0.1,0.3-0.1,0.7-0.2,1.1c-0.1,0.7-0.3,1.3-0.5,2
		c-0.3,1.3-0.7,2.6-1,4c-0.2,1.3-0.4,3,1.2,3.4c0,0,0.1,0,0.1,0c0,0,0,0,0,0c0,0,0.1,0,0.1,0c0,0,0,0,0,0c0,0,0,0,0.1,0c0,0,0,0,0,0
		c0,0,0,0,0.1,0c0,0,0,0,0,0h0c0.1,0,0.1,0,0.2,0c0,0,0,0,0,0c0.1,0,0.1,0,0.2,0c0,0,0,0,0,0c0.1,0,0.1,0,0.2,0c0,0,0,0,0,0
		c0.1,0,0.1,0,0.2-0.1c0,0,0,0,0,0c0.1,0,0.1,0,0.2-0.1c0,0,0,0,0,0c0,0,0.1-0.1,0.2-0.1c0,0,0,0,0,0c0,0,0.1-0.1,0.2-0.1
		c0,0,0,0,0,0c0,0,0.1-0.1,0.2-0.1c0,0,0,0,0,0c0,0,0.1-0.1,0.2-0.1c0,0,0,0,0,0c0,0,0.1-0.1,0.1-0.1c0,0,0,0,0,0
		c0,0,0.1-0.1,0.1-0.1c0,0,0,0,0,0c0,0,0.1-0.1,0.1-0.1l0,0c0,0,0.1-0.1,0.1-0.1c0,0,0,0,0,0c0,0,0.1-0.1,0.1-0.1c0,0,0,0,0,0
		c0,0,0.1-0.1,0.1-0.1c0,0,0,0,0,0c0,0,0.1-0.1,0.1-0.1c0.6-0.7,1.1-1.4,1.6-2.2c0.1-0.2,0.2-0.3,0.3-0.5c0,0.2,0,0.5,0,0.7
		c0.1,0.8,0.3,1.7,0.6,2.5c0.1,0.3,0.3,0.5,0.4,0.7c0,0.1,0.1,0.1,0.1,0.2c0.1,0.1,0.2,0.2,0.3,0.3c0,0,0.1,0.1,0.1,0.2
		c0.6,0.6,1.3,1.1,2.2,1.3l0,0c0.1,0,0.2,0,0.3,0.1c0,0,0.1,0,0.1,0c0.1,0,0.1,0,0.2,0c0,0,0.1,0,0.1,0c0.1,0,0.1,0,0.2,0
		c0,0,0.1,0,0.1,0c0.1,0,0.2,0,0.3,0l0,0c0.1,0,0.1,0,0.2,0c0,0,0,0,0.1,0c0.1,0,0.1,0,0.1,0c0,0,0.1,0,0.1,0c0,0,0.1,0,0.1,0
		c0,0,0.1,0,0.1,0c0,0,0.1,0,0.1,0c0,0,0.1,0,0.1,0c0.1,0,0.1,0,0.2,0c0,0,0,0,0.1,0c0.1,0,0.1,0,0.2,0c0,0,0,0,0.1,0
		c0.1,0,0.1,0,0.2,0c0,0,0.1,0,0.1,0c0,0,0.1,0,0.1,0c0,0,0.1,0,0.1,0c0,0,0.1,0,0.1,0c0,0,0.1,0,0.1,0c0,0,0.1,0,0.1-0.1
		c0,0,0,0,0.1,0c0.1,0,0.1-0.1,0.2-0.1c0,0,0,0,0,0c0.1,0,0.1-0.1,0.2-0.1c0,0,0,0,0.1,0c0,0,0.1,0,0.1-0.1c0,0,0.1,0,0.1,0
		c0,0,0.1,0,0.1-0.1c0,0,0.1,0,0.1,0c0,0,0.1,0,0.1-0.1c0,0,0,0,0.1,0c0.1,0,0.1-0.1,0.2-0.1c0,0,0,0,0,0c0.1,0,0.1-0.1,0.2-0.1
		c0,0,0,0,0.1,0c0,0,0.1-0.1,0.1-0.1c0,0,0,0,0.1,0c0,0,0.1-0.1,0.1-0.1c0,0,0,0,0.1-0.1c0,0,0.1-0.1,0.1-0.1c0,0,0,0,0.1,0
		c0,0,0.1-0.1,0.1-0.1c0,0,0,0,0,0c0.1,0,0.1-0.1,0.2-0.2c0,0,0,0,0,0c0,0,0.1-0.1,0.1-0.1c0,0,0,0,0.1-0.1c0,0,0.1-0.1,0.1-0.1
		c0,0,0,0,0.1-0.1c0,0,0.1-0.1,0.1-0.1c0,0,0,0,0.1-0.1c0,0,0.1-0.1,0.1-0.1c0,0,0,0,0,0c0-0.1,0.1-0.1,0.1-0.2
		c0.3-0.4,0.6-0.9,0.9-1.3c0.1-0.1,0.1-0.2,0.2-0.3c0.1-0.2,0.2-0.4,0.3-0.6c0.1,0,0.1,0,0.2-0.1c0.2-0.1,0.3-0.2,0.5-0.3
		c0.1,0,0.1-0.1,0.2-0.1c0.4-0.2,0.7-0.5,1-0.8c0.1,0,0.1-0.1,0.2-0.2c0.4-0.4,0.8-0.8,1.1-1.3c0.1-0.1,0.2-0.2,0.2-0.3
		c0.5-0.8,0.8-1.8,1-2.8C77.5,52.7,77.5,52.7,77.5,52.7 M57.3,50.3L57.3,50.3C57.3,50.3,57.3,50.3,57.3,50.3L57.3,50.3
		C57.3,50.3,57.3,50.3,57.3,50.3 M57.1,50.1L57.1,50.1L57.1,50.1L57.1,50.1C57.1,50.1,57.1,50.1,57.1,50.1
		C57.1,50.1,57.1,50.1,57.1,50.1C57.1,50.1,57.1,50.1,57.1,50.1 M57.6,60.1L57.6,60.1C57.6,60.1,57.6,60.1,57.6,60.1L57.6,60.1
		C57.7,60.2,57.7,60.2,57.6,60.1L57.6,60.1L57.6,60.1C57.7,60.2,57.7,60.2,57.6,60.1C57.6,60.2,57.6,60.2,57.6,60.1
		C57.6,60.2,57.6,60.1,57.6,60.1C57.6,60.1,57.6,60.1,57.6,60.1C57.6,60.1,57.6,60.1,57.6,60.1C57.6,60.1,57.6,60.1,57.6,60.1
		 M57.3,50.4C57.3,50.4,57.3,50.3,57.3,50.4C57.3,50.3,57.3,50.3,57.3,50.4C57.3,50.3,57.3,50.3,57.3,50.4
		C57.3,50.3,57.3,50.3,57.3,50.4C57.3,50.3,57.3,50.3,57.3,50.4C57.3,50.3,57.3,50.3,57.3,50.4L57.3,50.4L57.3,50.4L57.3,50.4
		L57.3,50.4 M57.3,50.2L57.3,50.2L57.3,50.2L57.3,50.2C57.3,50.2,57.3,50.2,57.3,50.2C57.3,50.2,57.3,50.2,57.3,50.2L57.3,50.2
		L57.3,50.2C57.3,50.2,57.3,50.2,57.3,50.2C57.3,50.2,57.3,50.2,57.3,50.2C57.3,50.2,57.3,50.2,57.3,50.2
		C57.3,50.2,57.3,50.2,57.3,50.2C57.3,50.2,57.3,50.2,57.3,50.2 M65.8,53.9C65.8,53.9,65.8,53.9,65.8,53.9
		C65.8,53.9,65.8,53.9,65.8,53.9L65.8,53.9C65.8,53.9,65.8,53.9,65.8,53.9C65.8,53.8,65.8,53.8,65.8,53.9
		C65.8,53.8,65.8,53.8,65.8,53.9c0.1-0.1,0.1-0.1,0.1-0.1c0,0,0-0.1,0-0.1c0,0,0,0,0,0c0,0,0,0,0,0l0,0c0,0,0,0,0,0c0,0,0,0,0,0
		c0.1-0.2,0.1-0.3,0.2-0.5c0-0.1,0.1-0.2,0.1-0.2c0,0.2,0.1,0.4,0.1,0.6c0,0.1,0.1,0.3,0.1,0.4c0.2,0.8,0.6,1.6,1.1,2.4
		c0.1,0.1,0.2,0.2,0.2,0.4c0.7,1,1.7,1.8,2.9,2c0,0,0,0,0.1,0l0,0c0,0,0,0,0,0.1c0,0,0,0,0,0c-0.1,0.2-0.2,0.3-0.4,0.5
		c-0.1,0.2-0.3,0.3-0.4,0.5c0,0,0,0,0,0c-0.1,0.1-0.2,0.2-0.3,0.3c-0.1,0.1-0.3,0.2-0.4,0.3c0,0-0.1,0.1-0.1,0.1
		c-0.1,0-0.2,0.1-0.3,0.2c-0.1,0-0.1,0-0.1,0c0,0,0,0,0,0c0,0-0.1,0-0.1,0c0,0,0,0-0.1,0c0,0-0.1,0-0.1,0c0,0,0,0-0.1,0
		c0,0-0.1,0-0.1,0c0,0,0,0-0.1,0s-0.1,0-0.1,0s0,0-0.1,0s-0.1,0-0.1,0s0,0-0.1,0s-0.1,0-0.1,0c0,0,0,0-0.1,0c0,0-0.1,0-0.1,0
		c0,0-0.1,0-0.1,0c-0.1,0-0.3,0-0.4-0.1l0,0c0,0,0,0-0.1,0c-0.1,0-0.1,0-0.2-0.1c-0.1,0-0.1,0-0.2-0.1c-0.1,0-0.1-0.1-0.2-0.1
		c0,0,0,0-0.1,0c0,0,0,0-0.1,0c-0.2-0.2-0.4-0.3-0.6-0.5c0,0-0.1-0.1-0.1-0.1l0,0c0,0,0,0,0,0c0,0,0,0,0-0.1c0,0-0.1-0.1-0.1-0.1
		c-0.1-0.1-0.1-0.2-0.2-0.3c-0.1-0.1-0.1-0.2-0.2-0.3c0,0,0,0,0,0l0,0c0,0,0,0,0,0l0,0c0,0,0,0,0,0l0,0c0,0,0,0,0,0l0,0l0,0
		c0,0,0,0,0,0l0,0v0c0,0,0,0,0,0v0v0c0,0,0,0,0,0v0c0,0,0,0,0,0v0c0,0,0,0,0,0c0-0.1-0.1-0.1-0.1-0.2s0-0.1-0.1-0.2
		c0-0.1-0.1-0.2-0.1-0.3c0,0,0,0,0,0l0,0c0,0,0,0,0,0l0,0c0,0,0,0,0,0c0,0,0-0.1,0-0.1c0,0,0,0,0,0c0,0,0,0,0,0l0,0c0,0,0,0,0,0l0,0
		c0,0,0,0,0,0l0,0l0,0c0-0.2,0-0.4,0-0.7c0-0.1,0-0.2,0-0.4c0-0.1,0-0.1,0-0.2c0,0,0,0,0,0c0.1-0.4,0.2-0.8,0.3-1.2
		c0-0.1,0.1-0.3,0.1-0.4c0-0.1,0.1-0.1,0.1-0.2l0,0c0,0,0,0,0,0l0,0c0,0,0,0,0,0v0c0,0,0,0,0,0c0,0,0,0,0,0c0-0.1,0.1-0.1,0.1-0.2
		c0,0,0,0,0,0C65.6,54.3,65.7,54.1,65.8,53.9C65.8,53.9,65.8,53.9,65.8,53.9 M65.9,53.6L65.9,53.6L65.9,53.6L65.9,53.6z M65.9,53.6
		C65.9,53.6,65.9,53.6,65.9,53.6C65.9,53.6,65.9,53.6,65.9,53.6 M72.4,53.5c0,0.2-0.1,0.5-0.1,0.7c-0.1,0.7-0.3,1.3-0.5,2
		c0,0.1-0.1,0.2-0.1,0.3s-0.1,0.2-0.1,0.3C71,56.7,70.4,56.5,70,56c-0.6-0.6-1-1.4-1.4-2.2c-0.2-0.4-0.3-0.8-0.3-1.2
		c-0.1-0.3-0.1-0.6-0.1-0.9c0-0.1,0-0.2,0-0.3c0-0.1,0-0.2,0-0.2c0,0,0,0,0,0c0,0,0,0,0,0s0,0,0,0c0,0,0,0,0,0v0c0,0,0,0,0,0
		s0,0,0,0l0,0l0,0l0,0c0,0,0,0,0,0l0,0c0,0,0,0,0,0v0c0,0,0,0,0,0s0,0,0,0c0,0,0,0,0,0c0,0,0,0,0,0v0c0,0,0,0,0,0v0c0,0,0,0,0,0v0
		c0,0,0,0,0,0c0-0.1,0.1-0.3,0.1-0.4s0.1-0.3,0.1-0.4c0-0.1,0-0.1,0.1-0.2c0-0.1,0.1-0.1,0.1-0.2c0,0,0,0,0-0.1
		c0-0.1,0.1-0.2,0.1-0.2c0.1-0.1,0.1-0.3,0.2-0.4c0-0.1,0.1-0.1,0.1-0.2c0,0,0.1-0.1,0.1-0.2c0,0,0.1-0.1,0.1-0.1s0.1-0.1,0.1-0.1
		c0,0,0,0,0,0c0,0,0.1-0.1,0.1-0.1c0,0,0,0,0,0c0.1,0,0.1-0.1,0.2-0.1c0.2-0.2,0.6-0.3,0.9-0.4c0.1,0,0.1,0,0.1,0c0,0,0,0,0,0
		c0,0,0.1,0,0.1,0c0,0,0,0,0,0c0,0,0.1,0,0.1,0c0,0,0,0,0,0c0,0,0.1,0,0.1,0c0,0,0,0,0,0c0,0,0.1,0,0.1,0c0,0,0,0,0,0
		c0,0,0.1,0,0.1,0c0.3,0.2,0.4,0.3,0.6,0.7c0.3,0.5,0.4,1.3,0.4,1.9C72.6,51.5,72.5,52.5,72.4,53.5 M40.5,50.6L40.5,50.6
		c0,0-0.1-0.1-0.1-0.1c0,0,0,0,0,0c0,0,0,0,0,0c0-0.1-0.1-0.1-0.1-0.2c0,0,0,0,0,0l0,0c0,0,0,0,0,0c0,0,0,0,0,0c0,0,0,0,0,0
		c0-0.1,0-0.1,0-0.2l0-0.1v0c0,0,0-0.1,0-0.1s0-0.1,0-0.1c0,0,0-0.1,0-0.1c0,0,0,0,0-0.1v0v0c0-0.1,0-0.1,0-0.2s0-0.1,0-0.2
		c0-0.1,0.1-0.3,0.1-0.4l0-0.1c0,0,0-0.1,0.1-0.2c0-0.1,0.1-0.2,0.2-0.3c0,0,0,0,0,0c0,0,0,0,0-0.1l0,0c0,0,0,0,0,0c0,0,0,0,0,0l0,0
		c0,0,0,0,0,0c0,0,0,0,0.1-0.1c0.1,0,0.1-0.1,0.1-0.1l0.1-0.1c0,0,0,0,0,0c0,0,0.1,0,0.2,0c0,0,0,0,0,0.1c0.1,0.3,0.1,0.7,0,1.2
		c-0.1,0.5-0.3,1-0.6,1.6c-0.1,0.1-0.1,0.2-0.2,0.3c0,0,0,0,0,0C40.6,50.6,40.5,50.6,40.5,50.6C40.5,50.6,40.5,50.6,40.5,50.6
		L40.5,50.6 M41.4,47.4L41.4,47.4L41.4,47.4L41.4,47.4L41.4,47.4z M57.3,50.2L57.3,50.2L57.3,50.2L57.3,50.2 M57.3,50.2
		C57.3,50.2,57.3,50.2,57.3,50.2C57.3,50.2,57.3,50.2,57.3,50.2C57.3,50.2,57.3,50.2,57.3,50.2C57.3,50.2,57.3,50.2,57.3,50.2
		C57.3,50.2,57.3,50.2,57.3,50.2C57.3,50.2,57.3,50.2,57.3,50.2"/>
</g>
</svg>
