<?xml version="1.0" encoding="utf-8"?>
<!-- Generator: Adobe Illustrator 24.2.0, SVG Export Plug-In . SVG Version: 6.00 Build 0)  -->
<svg version="1.1" id="Layer_1" xmlns="http://www.w3.org/2000/svg" xmlns:xlink="http://www.w3.org/1999/xlink" x="0px" y="0px"
	 viewBox="0 0 17 21" style="enable-background:new 0 0 17 21;" xml:space="preserve">
<style type="text/css">
	.st0{clip-path:url(#SVGID_2_);}
	.st1{fill:#EDEDED;stroke:#C8C8C8;stroke-width:6.178924e-03;stroke-miterlimit:10;}
	.st2{fill:#F9F9F9;}
	.st3{fill:none;stroke:#A8A8A8;stroke-width:6.178924e-03;stroke-miterlimit:10;}
	.st4{fill:#FFFFFF;}
	.st5{fill:#F9F9F9;stroke:#C8C8C8;stroke-width:6.178924e-03;stroke-miterlimit:10;}
	.st6{fill:#35B4ED;}
	.st7{fill:#999999;}
</style>
<g>
	<g>
		<defs>
			<path id="SVGID_1_" d="M11.9,17.9H7c-0.5,0-0.9-0.4-0.9-0.9V5.3c0-0.5,0.4-0.9,0.9-0.9h4.9c0.5,0,0.9,0.4,0.9,0.9V17
				C12.8,17.5,12.4,17.9,11.9,17.9z"/>
		</defs>
		<use xlink:href="#SVGID_1_"  style="overflow:visible;fill-rule:evenodd;clip-rule:evenodd;fill:#FFFFFF;"/>
		<clipPath id="SVGID_2_">
			<use xlink:href="#SVGID_1_"  style="overflow:visible;"/>
		</clipPath>
		<g class="st0">
			<g>
				<rect x="5.9" y="16.9" class="st1" width="6.7" height="0.9"/>
				<g>
					<g>
						<path d="M6.2,17.7L6.2,17.7L6.2,17.7L6.2,17.7L6.2,17.7l-0.1-0.1h0L6.2,17.7l0-0.1h0V17.7z"/>
						<path d="M6.3,17.7C6.3,17.7,6.3,17.7,6.3,17.7C6.3,17.7,6.3,17.7,6.3,17.7C6.3,17.7,6.3,17.7,6.3,17.7L6.3,17.7L6.3,17.7
							L6.3,17.7C6.3,17.7,6.3,17.7,6.3,17.7C6.3,17.7,6.3,17.7,6.3,17.7L6.3,17.7L6.3,17.7L6.3,17.7L6.3,17.7L6.3,17.7z"/>
						<path d="M6.4,17.7C6.4,17.7,6.4,17.7,6.4,17.7C6.4,17.7,6.4,17.7,6.4,17.7L6.4,17.7C6.4,17.6,6.4,17.6,6.4,17.7
							C6.4,17.6,6.4,17.6,6.4,17.7C6.4,17.6,6.4,17.6,6.4,17.7C6.4,17.6,6.4,17.6,6.4,17.7C6.4,17.6,6.4,17.6,6.4,17.7L6.4,17.7
							L6.4,17.7C6.4,17.7,6.4,17.7,6.4,17.7C6.4,17.7,6.4,17.7,6.4,17.7C6.4,17.7,6.4,17.7,6.4,17.7C6.4,17.7,6.4,17.7,6.4,17.7
							L6.4,17.7C6.4,17.7,6.4,17.7,6.4,17.7z M6.4,17.6C6.4,17.6,6.4,17.6,6.4,17.6C6.4,17.6,6.4,17.6,6.4,17.6L6.4,17.6L6.4,17.6
							C6.4,17.6,6.4,17.6,6.4,17.6C6.4,17.6,6.4,17.6,6.4,17.6z"/>
						<path d="M6.5,17.7L6.5,17.7L6.5,17.7L6.5,17.7L6.5,17.7L6.5,17.7L6.5,17.7L6.5,17.7z"/>
						<path d="M6.5,17.6C6.5,17.6,6.5,17.6,6.5,17.6C6.5,17.6,6.5,17.6,6.5,17.6C6.6,17.6,6.6,17.6,6.5,17.6
							C6.6,17.6,6.6,17.6,6.5,17.6C6.6,17.6,6.6,17.6,6.5,17.6L6.5,17.6C6.6,17.7,6.6,17.7,6.5,17.6C6.6,17.7,6.6,17.7,6.5,17.6
							C6.6,17.7,6.6,17.7,6.5,17.6C6.6,17.7,6.6,17.7,6.5,17.6C6.5,17.7,6.5,17.7,6.5,17.6L6.5,17.6z M6.6,17.6
							C6.6,17.7,6.6,17.7,6.6,17.6C6.6,17.7,6.6,17.7,6.6,17.6C6.6,17.7,6.6,17.7,6.6,17.6C6.6,17.7,6.6,17.7,6.6,17.6
							C6.6,17.6,6.6,17.6,6.6,17.6C6.6,17.6,6.6,17.6,6.6,17.6C6.6,17.6,6.6,17.6,6.6,17.6C6.6,17.6,6.6,17.6,6.6,17.6z"/>
						<path d="M6.7,17.7C6.7,17.7,6.7,17.7,6.7,17.7C6.7,17.7,6.7,17.7,6.7,17.7L6.7,17.7C6.7,17.6,6.7,17.6,6.7,17.7
							C6.7,17.6,6.7,17.6,6.7,17.7C6.7,17.6,6.7,17.6,6.7,17.7C6.7,17.6,6.7,17.6,6.7,17.7C6.8,17.6,6.8,17.6,6.7,17.7L6.7,17.7
							L6.7,17.7C6.7,17.7,6.7,17.7,6.7,17.7C6.7,17.7,6.7,17.7,6.7,17.7C6.7,17.7,6.7,17.7,6.7,17.7C6.7,17.7,6.7,17.7,6.7,17.7
							L6.7,17.7C6.7,17.7,6.7,17.7,6.7,17.7z M6.7,17.6C6.7,17.6,6.7,17.6,6.7,17.6C6.7,17.6,6.7,17.6,6.7,17.6L6.7,17.6L6.7,17.6
							C6.7,17.6,6.7,17.6,6.7,17.6C6.7,17.6,6.7,17.6,6.7,17.6z"/>
						<path d="M6.8,17.7L6.8,17.7L6.8,17.7L6.8,17.7L6.8,17.7L6.8,17.7L6.8,17.7L6.8,17.7z"/>
						<path d="M6.9,17.7C6.9,17.7,6.9,17.7,6.9,17.7C6.9,17.7,6.9,17.7,6.9,17.7L6.9,17.7C6.9,17.6,6.9,17.6,6.9,17.7
							C6.9,17.6,6.9,17.6,6.9,17.7C6.9,17.6,6.9,17.6,6.9,17.7C6.9,17.6,6.9,17.6,6.9,17.7C6.9,17.6,6.9,17.6,6.9,17.7L6.9,17.7
							L6.9,17.7C6.9,17.7,6.9,17.7,6.9,17.7C6.9,17.7,6.9,17.7,6.9,17.7C6.9,17.7,6.9,17.7,6.9,17.7C6.9,17.7,6.9,17.7,6.9,17.7
							L6.9,17.7C6.9,17.7,6.9,17.7,6.9,17.7z M6.9,17.6C6.9,17.6,6.9,17.6,6.9,17.6C6.9,17.6,6.9,17.6,6.9,17.6L6.9,17.6L6.9,17.6
							C6.9,17.6,6.9,17.6,6.9,17.6C6.9,17.6,6.9,17.6,6.9,17.6z"/>
						<path d="M7,17.6L7,17.6C7,17.6,7,17.6,7,17.6C7,17.6,7,17.6,7,17.6L7,17.6L7,17.6L7,17.6C7,17.6,7,17.6,7,17.6
							C7,17.6,7,17.6,7,17.6C7,17.6,7,17.6,7,17.6C7,17.6,7,17.6,7,17.6L7,17.6L7,17.6L7,17.6L7,17.6z"/>
						<path d="M7.1,17.6L7.1,17.6L7.1,17.6L7.1,17.6L7.1,17.6L7.1,17.6c0,0.1,0,0.1,0,0.1c0,0,0,0,0,0c0,0,0,0,0,0v0c0,0,0,0,0,0
							c0,0,0,0,0,0C7.1,17.7,7.1,17.7,7.1,17.6L7.1,17.6L7.1,17.6L7.1,17.6L7.1,17.6L7.1,17.6L7.1,17.6z"/>
						<path d="M7.1,17.6C7.1,17.6,7.1,17.6,7.1,17.6C7.1,17.6,7.1,17.6,7.1,17.6C7.1,17.6,7.1,17.6,7.1,17.6
							C7.2,17.6,7.2,17.6,7.1,17.6C7.2,17.6,7.2,17.6,7.1,17.6L7.1,17.6C7.2,17.7,7.2,17.7,7.1,17.6C7.2,17.7,7.2,17.7,7.1,17.6
							C7.2,17.7,7.1,17.7,7.1,17.6C7.1,17.7,7.1,17.7,7.1,17.6C7.1,17.7,7.1,17.7,7.1,17.6L7.1,17.6z M7.1,17.6
							C7.1,17.7,7.1,17.7,7.1,17.6C7.1,17.7,7.1,17.7,7.1,17.6C7.1,17.7,7.2,17.7,7.1,17.6C7.2,17.7,7.2,17.7,7.1,17.6
							C7.2,17.6,7.2,17.6,7.1,17.6C7.2,17.6,7.1,17.6,7.1,17.6C7.1,17.6,7.1,17.6,7.1,17.6C7.1,17.6,7.1,17.6,7.1,17.6z"/>
					</g>
					<g>
						<path d="M6.7,17.4L6.7,17.4C6.7,17.4,6.6,17.4,6.7,17.4l0-0.3c0,0,0,0,0,0h0c0,0,0,0,0,0L6.7,17.4C6.7,17.4,6.7,17.4,6.7,17.4
							z"/>
						<path d="M6.8,17.2L6.8,17.2C6.8,17.2,6.8,17.2,6.8,17.2l-0.3,0c0,0,0,0,0,0l0,0c0,0,0,0,0,0L6.8,17.2
							C6.8,17.2,6.8,17.2,6.8,17.2z"/>
					</g>
				</g>
				<g>
					<g>
						<path d="M11.6,17.6l0,0.1L11.6,17.6h0.1v0.1h0L11.6,17.6L11.6,17.6l0,0.1h0L11.6,17.6L11.6,17.6l0,0.1h0L11.6,17.6L11.6,17.6z
							"/>
						<path d="M11.8,17.7C11.8,17.7,11.8,17.7,11.8,17.7C11.8,17.7,11.8,17.7,11.8,17.7L11.8,17.7C11.8,17.6,11.8,17.6,11.8,17.7
							C11.8,17.6,11.8,17.6,11.8,17.7C11.8,17.6,11.8,17.6,11.8,17.7C11.8,17.6,11.8,17.6,11.8,17.7C11.8,17.6,11.8,17.6,11.8,17.7
							L11.8,17.7L11.8,17.7C11.8,17.7,11.8,17.7,11.8,17.7C11.8,17.7,11.8,17.7,11.8,17.7C11.8,17.7,11.8,17.7,11.8,17.7
							C11.8,17.7,11.8,17.7,11.8,17.7L11.8,17.7C11.8,17.7,11.8,17.7,11.8,17.7z M11.8,17.6C11.8,17.6,11.8,17.6,11.8,17.6
							C11.8,17.6,11.8,17.6,11.8,17.6L11.8,17.6L11.8,17.6C11.8,17.6,11.8,17.6,11.8,17.6C11.8,17.6,11.8,17.6,11.8,17.6z"/>
						<path d="M11.9,17.6L11.9,17.6C11.9,17.6,11.9,17.6,11.9,17.6C11.9,17.6,11.9,17.6,11.9,17.6L11.9,17.6L11.9,17.6L11.9,17.6
							C11.9,17.6,11.9,17.6,11.9,17.6C11.9,17.6,11.9,17.6,11.9,17.6C11.9,17.6,11.9,17.6,11.9,17.6C11.9,17.6,11.9,17.6,11.9,17.6
							L11.9,17.6L11.9,17.6L11.9,17.6L11.9,17.6z"/>
						<path d="M12,17.7C12,17.7,12,17.7,12,17.7C12,17.7,12,17.7,12,17.7C12,17.7,12,17.7,12,17.7L12,17.7L12,17.7L12,17.7
							C12,17.7,12,17.7,12,17.7C12,17.7,12,17.7,12,17.7L12,17.7L12,17.7L12,17.7L12,17.7L12,17.7z M12,17.6L12,17.6L12,17.6
							L12,17.6L12,17.6z"/>
					</g>
					<g>
						<path d="M12,17.1L12,17.1C12,17.1,12,17.1,12,17.1l-0.3,0c0,0,0,0,0,0l0,0c0,0,0,0,0,0L12,17.1C12,17.1,12,17.1,12,17.1z"/>
						<path d="M12,17.2L12,17.2C12,17.2,12,17.2,12,17.2l-0.3,0c0,0,0,0,0,0l0,0c0,0,0,0,0,0L12,17.2C12,17.2,12,17.2,12,17.2z"/>
						<path d="M12,17.3L12,17.3C12,17.3,12,17.3,12,17.3l-0.3,0c0,0,0,0,0,0l0,0c0,0,0,0,0,0L12,17.3C12,17.3,12,17.3,12,17.3z"/>
					</g>
				</g>
				<g>
					<g>
						<path d="M7.8,17.6l0,0.1L7.8,17.6h0.1v0.1h0L7.8,17.6L7.8,17.6l0,0.1h0L7.8,17.6L7.8,17.6l0,0.1h0L7.8,17.6L7.8,17.6z"/>
						<path d="M8,17.7C8,17.7,8,17.7,8,17.7C8,17.7,7.9,17.7,8,17.7L8,17.7C7.9,17.6,7.9,17.6,8,17.7C8,17.6,8,17.6,8,17.7
							C8,17.6,8,17.6,8,17.7C8,17.6,8,17.6,8,17.7C8,17.6,8,17.6,8,17.7L8,17.7L8,17.7C8,17.7,8,17.7,8,17.7C8,17.7,8,17.7,8,17.7
							C8,17.7,8,17.7,8,17.7C8,17.7,8,17.7,8,17.7L8,17.7C8,17.7,8,17.7,8,17.7z M8,17.6C8,17.6,8,17.6,8,17.6C8,17.6,8,17.6,8,17.6
							L8,17.6L8,17.6C8,17.6,8,17.6,8,17.6C8,17.6,8,17.6,8,17.6z"/>
						<path d="M8.1,17.7C8.1,17.7,8.1,17.7,8.1,17.7C8.1,17.7,8.1,17.7,8.1,17.7C8.1,17.6,8.1,17.6,8.1,17.7
							C8.1,17.6,8,17.6,8.1,17.7C8,17.6,8,17.6,8.1,17.7C8,17.6,8,17.6,8.1,17.7C8.1,17.6,8.1,17.6,8.1,17.7
							C8.1,17.6,8.1,17.6,8.1,17.7C8.1,17.6,8.1,17.6,8.1,17.7L8.1,17.7C8.1,17.6,8.1,17.6,8.1,17.7C8.1,17.6,8.1,17.6,8.1,17.7
							C8.1,17.6,8.1,17.6,8.1,17.7C8.1,17.6,8.1,17.6,8.1,17.7C8.1,17.6,8.1,17.6,8.1,17.7C8.1,17.6,8.1,17.6,8.1,17.7
							C8.1,17.6,8.1,17.6,8.1,17.7C8.1,17.6,8.1,17.6,8.1,17.7C8.1,17.7,8.1,17.7,8.1,17.7C8.1,17.7,8.1,17.7,8.1,17.7
							C8.1,17.7,8.1,17.7,8.1,17.7C8.1,17.7,8.1,17.7,8.1,17.7C8.1,17.7,8,17.7,8.1,17.7C8,17.7,8,17.7,8.1,17.7L8.1,17.7
							C8.1,17.7,8.1,17.7,8.1,17.7C8.1,17.7,8.1,17.7,8.1,17.7C8.1,17.7,8.1,17.7,8.1,17.7C8.1,17.7,8.1,17.7,8.1,17.7z"/>
					</g>
					<g>
						<path d="M8.1,17.1C8.1,17.1,8.1,17.1,8.1,17.1l0,0.3c0,0,0,0,0,0H7.8c0,0,0,0,0,0v-0.3c0,0,0,0,0,0H8.1 M8.1,17.1H7.8
							c0,0,0,0,0,0v0.3c0,0,0,0,0,0h0.2c0,0,0,0,0,0L8.1,17.1C8.1,17.1,8.1,17.1,8.1,17.1L8.1,17.1z"/>
						<rect x="7.9" y="17.1" width="0" height="0"/>
						<rect x="7.9" y="17.1" width="0" height="0"/>
						<rect x="8" y="17.1" width="0" height="0"/>
						<rect x="7.9" y="17.2" width="0" height="0"/>
						<rect x="7.9" y="17.2" width="0" height="0"/>
						<rect x="8" y="17.2" width="0" height="0"/>
						<rect x="7.9" y="17.3" width="0" height="0"/>
						<rect x="7.9" y="17.3" width="0" height="0"/>
						<rect x="8" y="17.3" width="0" height="0"/>
					</g>
				</g>
				<g>
					<g>
						<path d="M9,17.6C9,17.6,9,17.6,9,17.6C8.9,17.6,8.9,17.6,9,17.6C8.9,17.6,8.9,17.6,9,17.6C9,17.6,9,17.6,9,17.6
							C9,17.6,9,17.6,9,17.6C9,17.6,9,17.6,9,17.6C9,17.6,9,17.6,9,17.6L9,17.6C9,17.6,9,17.6,9,17.6C9,17.6,9,17.6,9,17.6
							C9,17.6,9,17.6,9,17.6C9,17.6,9,17.6,9,17.6C9,17.6,9,17.6,9,17.6C9,17.6,9,17.6,9,17.6C9,17.6,9,17.6,9,17.6
							C9,17.6,9,17.6,9,17.6C9,17.6,9,17.7,9,17.6C9,17.7,9,17.7,9,17.6C9,17.7,9,17.7,9,17.6C9,17.7,9,17.7,9,17.6
							C9,17.7,9,17.7,9,17.6C8.9,17.7,8.9,17.7,9,17.6L9,17.6C9,17.7,9,17.7,9,17.6C9,17.7,9,17.7,9,17.6C9,17.7,9,17.7,9,17.6
							C9,17.7,9,17.7,9,17.6C9,17.7,9,17.6,9,17.6C9,17.6,9,17.6,9,17.6z"/>
						<path d="M9.1,17.7C9.1,17.7,9.1,17.7,9.1,17.7C9,17.7,9,17.7,9.1,17.7L9.1,17.7C9,17.6,9,17.6,9.1,17.7
							C9.1,17.6,9.1,17.6,9.1,17.7C9.1,17.6,9.1,17.6,9.1,17.7C9.1,17.6,9.1,17.6,9.1,17.7C9.1,17.6,9.1,17.6,9.1,17.7L9.1,17.7
							L9.1,17.7C9.1,17.7,9.1,17.7,9.1,17.7C9.1,17.7,9.1,17.7,9.1,17.7C9.1,17.7,9.1,17.7,9.1,17.7C9.1,17.7,9.1,17.7,9.1,17.7
							L9.1,17.7C9.1,17.7,9.1,17.7,9.1,17.7z M9.1,17.6C9.1,17.6,9.1,17.6,9.1,17.6C9.1,17.6,9.1,17.6,9.1,17.6L9.1,17.6L9.1,17.6
							C9.1,17.6,9.1,17.6,9.1,17.6C9.1,17.6,9.1,17.6,9.1,17.6z"/>
						<path d="M9.2,17.6L9.2,17.6C9.2,17.6,9.2,17.6,9.2,17.6C9.2,17.6,9.2,17.6,9.2,17.6C9.2,17.6,9.2,17.6,9.2,17.6
							C9.2,17.6,9.2,17.6,9.2,17.6c0.1,0,0.1,0,0.1,0v0.1L9.2,17.6L9.2,17.6C9.3,17.6,9.3,17.6,9.2,17.6C9.2,17.6,9.2,17.6,9.2,17.6
							C9.2,17.6,9.2,17.6,9.2,17.6C9.2,17.6,9.2,17.6,9.2,17.6L9.2,17.6L9.2,17.6L9.2,17.6C9.2,17.6,9.2,17.6,9.2,17.6
							C9.2,17.6,9.2,17.6,9.2,17.6L9.2,17.6L9.2,17.6L9.2,17.6L9.2,17.6z"/>
						<path d="M9.4,17.7C9.4,17.7,9.4,17.7,9.4,17.7C9.3,17.7,9.3,17.7,9.4,17.7C9.3,17.7,9.3,17.7,9.4,17.7
							C9.3,17.7,9.3,17.7,9.4,17.7C9.3,17.7,9.3,17.6,9.4,17.7C9.3,17.6,9.3,17.6,9.4,17.7L9.4,17.7L9.4,17.7
							C9.4,17.6,9.3,17.6,9.4,17.7C9.3,17.6,9.3,17.6,9.4,17.7C9.3,17.6,9.3,17.6,9.4,17.7C9.3,17.6,9.3,17.6,9.4,17.7L9.4,17.7
							C9.3,17.6,9.3,17.6,9.4,17.7C9.3,17.6,9.3,17.6,9.4,17.7C9.3,17.6,9.3,17.6,9.4,17.7C9.3,17.6,9.4,17.6,9.4,17.7
							C9.4,17.6,9.4,17.6,9.4,17.7L9.4,17.7C9.4,17.7,9.4,17.7,9.4,17.7L9.4,17.7L9.4,17.7z M9.3,17.7C9.3,17.7,9.3,17.7,9.3,17.7
							C9.3,17.7,9.3,17.7,9.3,17.7L9.3,17.7L9.3,17.7C9.3,17.6,9.3,17.7,9.3,17.7C9.3,17.7,9.3,17.7,9.3,17.7
							C9.3,17.7,9.3,17.7,9.3,17.7z"/>
						<path d="M9.4,17.6L9.4,17.6C9.4,17.6,9.4,17.6,9.4,17.6C9.5,17.6,9.5,17.6,9.4,17.6L9.4,17.6L9.4,17.6L9.4,17.6
							C9.4,17.6,9.4,17.6,9.4,17.6C9.4,17.6,9.4,17.6,9.4,17.6C9.4,17.6,9.4,17.6,9.4,17.6C9.4,17.6,9.4,17.6,9.4,17.6L9.4,17.6
							L9.4,17.6L9.4,17.6L9.4,17.6z"/>
						<path d="M9.5,17.7C9.5,17.7,9.5,17.7,9.5,17.7C9.5,17.7,9.5,17.7,9.5,17.7C9.5,17.7,9.5,17.7,9.5,17.7
							C9.5,17.7,9.5,17.7,9.5,17.7C9.5,17.7,9.5,17.6,9.5,17.7C9.5,17.6,9.5,17.6,9.5,17.7L9.5,17.7L9.5,17.7
							C9.5,17.6,9.5,17.6,9.5,17.7C9.5,17.6,9.5,17.6,9.5,17.7C9.5,17.6,9.5,17.6,9.5,17.7C9.5,17.6,9.5,17.6,9.5,17.7L9.5,17.7
							C9.5,17.6,9.5,17.6,9.5,17.7C9.5,17.6,9.5,17.6,9.5,17.7C9.5,17.6,9.5,17.6,9.5,17.7C9.5,17.6,9.5,17.6,9.5,17.7
							C9.6,17.6,9.6,17.6,9.5,17.7L9.5,17.7C9.6,17.7,9.6,17.7,9.5,17.7L9.5,17.7L9.5,17.7z M9.5,17.7C9.5,17.7,9.5,17.7,9.5,17.7
							C9.5,17.7,9.5,17.7,9.5,17.7L9.5,17.7L9.5,17.7C9.5,17.6,9.5,17.7,9.5,17.7C9.5,17.7,9.5,17.7,9.5,17.7
							C9.5,17.7,9.5,17.7,9.5,17.7z"/>
					</g>
					<g>
						<path d="M9.4,17.1C9.4,17.1,9.4,17.1,9.4,17.1l0,0.3c0,0,0,0,0,0H9.1c0,0,0,0,0,0v-0.3c0,0,0,0,0,0H9.4 M9.4,17.1H9.1
							c0,0,0,0,0,0v0.3c0,0,0,0,0,0h0.2c0,0,0,0,0,0L9.4,17.1C9.4,17.1,9.4,17.1,9.4,17.1L9.4,17.1z"/>
						<rect x="9.2" y="17.2" width="0" height="0"/>
						<rect x="9.2" y="17.2" width="0" height="0.1"/>
						<rect x="9.3" y="17.2" width="0" height="0.1"/>
						<rect x="9.1" y="17.1" width="0.2" height="0"/>
						<rect x="9.2" y="17.3" width="0" height="0"/>
					</g>
				</g>
				<g>
					<g>
						<path d="M10.4,17.7v-0.1h0c0,0,0,0,0,0S10.5,17.6,10.4,17.7C10.5,17.6,10.5,17.6,10.4,17.7L10.4,17.7
							C10.5,17.6,10.5,17.7,10.4,17.7C10.5,17.7,10.5,17.7,10.4,17.7C10.5,17.7,10.5,17.7,10.4,17.7L10.4,17.7z M10.4,17.6
							L10.4,17.6L10.4,17.6C10.5,17.7,10.5,17.7,10.4,17.6C10.5,17.7,10.5,17.6,10.4,17.6L10.4,17.6C10.5,17.6,10.5,17.6,10.4,17.6
							C10.5,17.6,10.5,17.6,10.4,17.6L10.4,17.6z"/>
						<path d="M10.5,17.6L10.5,17.6L10.5,17.6L10.5,17.6L10.5,17.6z M10.5,17.7L10.5,17.7L10.5,17.7L10.5,17.7L10.5,17.7z"/>
						<path d="M10.6,17.7C10.6,17.7,10.6,17.7,10.6,17.7C10.6,17.7,10.6,17.7,10.6,17.7C10.6,17.7,10.6,17.7,10.6,17.7
							C10.6,17.7,10.6,17.7,10.6,17.7C10.6,17.7,10.6,17.6,10.6,17.7C10.6,17.6,10.6,17.6,10.6,17.7L10.6,17.7L10.6,17.7
							C10.6,17.6,10.6,17.6,10.6,17.7C10.6,17.6,10.6,17.6,10.6,17.7C10.6,17.6,10.6,17.6,10.6,17.7C10.6,17.6,10.6,17.6,10.6,17.7
							L10.6,17.7C10.6,17.6,10.6,17.6,10.6,17.7C10.6,17.6,10.6,17.6,10.6,17.7C10.6,17.6,10.6,17.6,10.6,17.7
							C10.6,17.6,10.6,17.6,10.6,17.7C10.6,17.6,10.6,17.6,10.6,17.7L10.6,17.7C10.6,17.7,10.6,17.7,10.6,17.7L10.6,17.7L10.6,17.7z
							 M10.6,17.7C10.6,17.7,10.6,17.7,10.6,17.7C10.6,17.7,10.6,17.7,10.6,17.7L10.6,17.7L10.6,17.7C10.6,17.6,10.6,17.7,10.6,17.7
							C10.6,17.7,10.6,17.7,10.6,17.7C10.6,17.7,10.6,17.7,10.6,17.7z"/>
					</g>
					<g>
						<path d="M10.7,17.1h-0.2c0,0,0,0,0,0v0.3c0,0,0,0,0,0h0.2c0,0,0,0,0,0L10.7,17.1C10.7,17.1,10.7,17.1,10.7,17.1L10.7,17.1z"/>
						<rect x="10.4" y="17.2" class="st2" width="0" height="0"/>
						<rect x="10.4" y="17.1" class="st2" width="0.2" height="0"/>
						<rect x="10.4" y="17.3" class="st2" width="0" height="0"/>
					</g>
				</g>
			</g>
			<g>
				<line class="st3" x1="6.7" y1="6.5" x2="6.7" y2="16.9"/>
				<line class="st3" x1="12.6" y1="6.5" x2="12.6" y2="14.1"/>
				<line class="st3" x1="6.7" y1="6.8" x2="12.6" y2="6.8"/>
				<line class="st3" x1="6.7" y1="7.5" x2="12.6" y2="7.5"/>
				<line class="st3" x1="6.7" y1="8.2" x2="12.6" y2="8.2"/>
				<line class="st3" x1="6.7" y1="8.9" x2="12.6" y2="8.9"/>
				<line class="st3" x1="6.7" y1="9.6" x2="12.6" y2="9.6"/>
				<line class="st3" x1="6.7" y1="10.3" x2="12.6" y2="10.3"/>
				<line class="st3" x1="6.7" y1="11" x2="12.6" y2="11"/>
				<line class="st3" x1="6.7" y1="11.8" x2="12.6" y2="11.8"/>
				<line class="st3" x1="6.7" y1="12.5" x2="12.6" y2="12.5"/>
				<line class="st3" x1="6.7" y1="13.2" x2="12.6" y2="13.2"/>
				<line class="st3" x1="6.7" y1="13.9" x2="12.6" y2="13.9"/>
				<circle cx="6.7" cy="6.8" r="0.1"/>
				<g>
					<path d="M6.3,6.7C6.3,6.7,6.3,6.8,6.3,6.7C6.3,6.8,6.3,6.8,6.3,6.7C6.3,6.8,6.3,6.8,6.3,6.7C6.3,6.8,6.3,6.8,6.3,6.7
						C6.3,6.8,6.3,6.8,6.3,6.7C6.3,6.8,6.3,6.8,6.3,6.7C6.3,6.8,6.3,6.8,6.3,6.7C6.2,6.8,6.2,6.8,6.3,6.7C6.2,6.8,6.2,6.8,6.3,6.7
						C6.2,6.8,6.3,6.8,6.3,6.7C6.3,6.8,6.3,6.8,6.3,6.7C6.2,6.8,6.2,6.7,6.3,6.7C6.2,6.7,6.2,6.7,6.3,6.7C6.3,6.7,6.3,6.7,6.3,6.7
						C6.3,6.7,6.3,6.7,6.3,6.7C6.3,6.7,6.3,6.7,6.3,6.7z M6.3,6.8C6.3,6.8,6.3,6.8,6.3,6.8C6.3,6.8,6.3,6.8,6.3,6.8
						C6.3,6.8,6.3,6.8,6.3,6.8C6.3,6.8,6.3,6.8,6.3,6.8C6.3,6.8,6.3,6.8,6.3,6.8C6.3,6.8,6.3,6.8,6.3,6.8C6.3,6.8,6.3,6.8,6.3,6.8
						C6.3,6.8,6.3,6.8,6.3,6.8z M6.3,6.7C6.3,6.7,6.3,6.7,6.3,6.7C6.3,6.7,6.3,6.7,6.3,6.7C6.3,6.7,6.3,6.8,6.3,6.7
						C6.3,6.8,6.3,6.8,6.3,6.7C6.3,6.8,6.3,6.8,6.3,6.7C6.3,6.8,6.3,6.7,6.3,6.7C6.3,6.7,6.3,6.7,6.3,6.7C6.3,6.7,6.3,6.7,6.3,6.7z"
						/>
					<path d="M6.3,6.8C6.3,6.8,6.3,6.8,6.3,6.8C6.3,6.8,6.3,6.8,6.3,6.8C6.4,6.8,6.4,6.8,6.3,6.8C6.4,6.8,6.4,6.8,6.3,6.8
						C6.4,6.8,6.4,6.8,6.3,6.8C6.4,6.8,6.4,6.8,6.3,6.8C6.3,6.8,6.3,6.8,6.3,6.8C6.3,6.8,6.3,6.8,6.3,6.8z M6.3,6.8
						C6.3,6.7,6.3,6.7,6.3,6.8C6.3,6.7,6.3,6.7,6.3,6.8C6.4,6.7,6.4,6.7,6.3,6.8C6.4,6.7,6.4,6.7,6.3,6.8C6.4,6.8,6.4,6.8,6.3,6.8
						C6.4,6.8,6.4,6.8,6.3,6.8C6.3,6.8,6.3,6.8,6.3,6.8C6.3,6.8,6.3,6.8,6.3,6.8z"/>
					<path d="M6.5,6.8C6.5,6.8,6.5,6.8,6.5,6.8C6.4,6.8,6.4,6.8,6.5,6.8C6.4,6.8,6.4,6.8,6.5,6.8C6.4,6.8,6.4,6.8,6.5,6.8L6.5,6.8
						C6.4,6.7,6.4,6.7,6.5,6.8C6.4,6.7,6.4,6.7,6.5,6.8C6.4,6.7,6.4,6.7,6.5,6.8C6.5,6.7,6.5,6.7,6.5,6.8L6.5,6.8z M6.4,6.8
						C6.4,6.7,6.4,6.7,6.4,6.8C6.4,6.7,6.4,6.7,6.4,6.8C6.4,6.7,6.4,6.7,6.4,6.8C6.4,6.7,6.4,6.7,6.4,6.8L6.4,6.8
						C6.4,6.8,6.4,6.8,6.4,6.8C6.4,6.8,6.4,6.8,6.4,6.8C6.4,6.8,6.4,6.8,6.4,6.8C6.4,6.8,6.4,6.8,6.4,6.8L6.4,6.8z"/>
					<path d="M6.6,6.8C6.6,6.8,6.6,6.8,6.6,6.8C6.5,6.8,6.5,6.8,6.6,6.8C6.5,6.8,6.5,6.8,6.6,6.8C6.5,6.8,6.5,6.8,6.6,6.8L6.6,6.8
						C6.5,6.7,6.5,6.7,6.6,6.8C6.5,6.7,6.5,6.7,6.6,6.8C6.5,6.7,6.5,6.7,6.6,6.8C6.6,6.7,6.6,6.7,6.6,6.8L6.6,6.8z M6.5,6.8
						C6.5,6.7,6.5,6.7,6.5,6.8C6.5,6.7,6.5,6.7,6.5,6.8C6.5,6.7,6.5,6.7,6.5,6.8C6.5,6.7,6.5,6.7,6.5,6.8L6.5,6.8
						C6.5,6.8,6.5,6.8,6.5,6.8C6.5,6.8,6.5,6.8,6.5,6.8C6.5,6.8,6.5,6.8,6.5,6.8C6.5,6.8,6.5,6.8,6.5,6.8L6.5,6.8z"/>
				</g>
				<g>
					<path d="M6.3,7.5C6.3,7.5,6.3,7.5,6.3,7.5C6.3,7.5,6.3,7.5,6.3,7.5C6.3,7.5,6.3,7.5,6.3,7.5C6.3,7.5,6.2,7.5,6.3,7.5
						C6.2,7.5,6.2,7.5,6.3,7.5C6.2,7.5,6.2,7.4,6.3,7.5C6.2,7.4,6.3,7.4,6.3,7.5C6.3,7.4,6.3,7.4,6.3,7.5C6.3,7.4,6.3,7.4,6.3,7.5
						C6.3,7.4,6.3,7.5,6.3,7.5L6.3,7.5C6.3,7.5,6.3,7.5,6.3,7.5C6.3,7.5,6.3,7.5,6.3,7.5L6.3,7.5L6.3,7.5L6.3,7.5
						C6.3,7.5,6.3,7.5,6.3,7.5C6.3,7.5,6.3,7.5,6.3,7.5z M6.3,7.5C6.3,7.5,6.3,7.5,6.3,7.5C6.3,7.5,6.3,7.5,6.3,7.5L6.3,7.5
						C6.3,7.5,6.3,7.4,6.3,7.5C6.3,7.4,6.3,7.4,6.3,7.5C6.3,7.4,6.3,7.4,6.3,7.5C6.3,7.4,6.3,7.5,6.3,7.5C6.3,7.5,6.3,7.5,6.3,7.5
						C6.3,7.5,6.3,7.5,6.3,7.5z"/>
					<path d="M6.3,7.5C6.3,7.5,6.3,7.5,6.3,7.5C6.3,7.5,6.3,7.5,6.3,7.5C6.4,7.5,6.4,7.5,6.3,7.5C6.4,7.5,6.4,7.5,6.3,7.5
						C6.4,7.5,6.4,7.5,6.3,7.5C6.4,7.5,6.4,7.5,6.3,7.5C6.3,7.5,6.3,7.5,6.3,7.5C6.3,7.5,6.3,7.5,6.3,7.5z M6.3,7.5
						C6.3,7.5,6.3,7.5,6.3,7.5C6.3,7.5,6.3,7.5,6.3,7.5C6.4,7.5,6.4,7.5,6.3,7.5C6.4,7.5,6.4,7.5,6.3,7.5C6.4,7.5,6.4,7.5,6.3,7.5
						C6.4,7.5,6.4,7.5,6.3,7.5C6.3,7.5,6.3,7.5,6.3,7.5C6.3,7.5,6.3,7.5,6.3,7.5z"/>
					<path d="M6.5,7.5C6.5,7.5,6.5,7.5,6.5,7.5C6.4,7.5,6.4,7.5,6.5,7.5C6.4,7.5,6.4,7.5,6.5,7.5C6.4,7.5,6.4,7.5,6.5,7.5L6.5,7.5
						C6.4,7.5,6.4,7.4,6.5,7.5C6.4,7.4,6.4,7.4,6.5,7.5C6.4,7.4,6.4,7.4,6.5,7.5C6.5,7.4,6.5,7.5,6.5,7.5L6.5,7.5z M6.4,7.5
						C6.4,7.5,6.4,7.4,6.4,7.5C6.4,7.4,6.4,7.4,6.4,7.5C6.4,7.4,6.4,7.4,6.4,7.5C6.4,7.4,6.4,7.5,6.4,7.5L6.4,7.5
						C6.4,7.5,6.4,7.5,6.4,7.5C6.4,7.5,6.4,7.5,6.4,7.5C6.4,7.5,6.4,7.5,6.4,7.5C6.4,7.5,6.4,7.5,6.4,7.5L6.4,7.5z"/>
					<path d="M6.6,7.5C6.6,7.5,6.6,7.5,6.6,7.5C6.5,7.5,6.5,7.5,6.6,7.5C6.5,7.5,6.5,7.5,6.6,7.5C6.5,7.5,6.5,7.5,6.6,7.5L6.6,7.5
						C6.5,7.5,6.5,7.4,6.6,7.5C6.5,7.4,6.5,7.4,6.6,7.5C6.5,7.4,6.5,7.4,6.6,7.5C6.6,7.4,6.6,7.5,6.6,7.5L6.6,7.5z M6.5,7.5
						C6.5,7.5,6.5,7.4,6.5,7.5C6.5,7.4,6.5,7.4,6.5,7.5C6.5,7.4,6.5,7.4,6.5,7.5C6.5,7.4,6.5,7.5,6.5,7.5L6.5,7.5
						C6.5,7.5,6.5,7.5,6.5,7.5C6.5,7.5,6.5,7.5,6.5,7.5C6.5,7.5,6.5,7.5,6.5,7.5C6.5,7.5,6.5,7.5,6.5,7.5L6.5,7.5z"/>
				</g>
				<g>
					<path d="M6.2,8.3L6.2,8.3l0-0.1L6.2,8.3l0-0.1l0,0h0V8.3z"/>
					<path d="M6.3,8.2C6.3,8.2,6.3,8.2,6.3,8.2C6.3,8.3,6.3,8.3,6.3,8.2C6.3,8.3,6.3,8.3,6.3,8.2C6.2,8.2,6.2,8.2,6.3,8.2L6.3,8.2
						C6.2,8.2,6.2,8.2,6.3,8.2C6.3,8.1,6.3,8.1,6.3,8.2C6.3,8.1,6.3,8.1,6.3,8.2C6.3,8.2,6.3,8.2,6.3,8.2L6.3,8.2z M6.3,8.2
						C6.3,8.2,6.3,8.2,6.3,8.2C6.3,8.1,6.3,8.1,6.3,8.2C6.3,8.1,6.3,8.1,6.3,8.2C6.3,8.2,6.3,8.2,6.3,8.2L6.3,8.2
						C6.3,8.2,6.3,8.2,6.3,8.2C6.3,8.2,6.3,8.2,6.3,8.2C6.3,8.2,6.3,8.2,6.3,8.2C6.3,8.2,6.3,8.2,6.3,8.2L6.3,8.2z"/>
					<path d="M6.3,8.2C6.3,8.2,6.3,8.2,6.3,8.2C6.3,8.2,6.4,8.2,6.3,8.2C6.4,8.2,6.4,8.2,6.3,8.2C6.4,8.2,6.4,8.2,6.3,8.2
						C6.4,8.3,6.4,8.3,6.3,8.2C6.4,8.3,6.4,8.3,6.3,8.2C6.4,8.3,6.3,8.3,6.3,8.2C6.3,8.3,6.3,8.3,6.3,8.2z M6.3,8.2
						C6.3,8.2,6.3,8.2,6.3,8.2C6.3,8.2,6.4,8.2,6.3,8.2C6.4,8.2,6.4,8.2,6.3,8.2C6.4,8.2,6.4,8.2,6.3,8.2C6.4,8.2,6.4,8.2,6.3,8.2
						C6.4,8.2,6.4,8.2,6.3,8.2C6.4,8.2,6.3,8.2,6.3,8.2C6.3,8.2,6.3,8.2,6.3,8.2z"/>
					<path d="M6.5,8.2C6.5,8.2,6.5,8.2,6.5,8.2C6.4,8.3,6.4,8.3,6.5,8.2C6.4,8.3,6.4,8.3,6.5,8.2C6.4,8.2,6.4,8.2,6.5,8.2L6.5,8.2
						C6.4,8.2,6.4,8.2,6.5,8.2C6.4,8.1,6.4,8.1,6.5,8.2C6.4,8.1,6.4,8.1,6.5,8.2C6.5,8.2,6.5,8.2,6.5,8.2L6.5,8.2z M6.4,8.2
						C6.4,8.2,6.4,8.2,6.4,8.2C6.4,8.1,6.4,8.1,6.4,8.2C6.4,8.1,6.4,8.1,6.4,8.2C6.4,8.2,6.4,8.2,6.4,8.2L6.4,8.2
						C6.4,8.2,6.4,8.2,6.4,8.2C6.4,8.2,6.4,8.2,6.4,8.2C6.4,8.2,6.4,8.2,6.4,8.2C6.4,8.2,6.4,8.2,6.4,8.2L6.4,8.2z"/>
					<path d="M6.6,8.2C6.6,8.2,6.6,8.2,6.6,8.2C6.5,8.3,6.5,8.3,6.6,8.2C6.5,8.3,6.5,8.3,6.6,8.2C6.5,8.2,6.5,8.2,6.6,8.2L6.6,8.2
						C6.5,8.2,6.5,8.2,6.6,8.2C6.5,8.1,6.5,8.1,6.6,8.2C6.5,8.1,6.5,8.1,6.6,8.2C6.6,8.2,6.6,8.2,6.6,8.2L6.6,8.2z M6.5,8.2
						C6.5,8.2,6.5,8.2,6.5,8.2C6.5,8.1,6.5,8.1,6.5,8.2C6.5,8.1,6.5,8.1,6.5,8.2C6.5,8.2,6.5,8.2,6.5,8.2L6.5,8.2
						C6.5,8.2,6.5,8.2,6.5,8.2C6.5,8.2,6.5,8.2,6.5,8.2C6.5,8.2,6.5,8.2,6.5,8.2C6.5,8.2,6.5,8.2,6.5,8.2L6.5,8.2z"/>
				</g>
				<g>
					<path d="M6.2,8.9L6.2,8.9l0-0.1L6.2,8.9l0-0.1l0,0h0V8.9z"/>
					<path d="M6.3,8.9L6.3,8.9l0-0.1L6.3,8.9l0-0.1l0,0h0V8.9z"/>
					<path d="M6.3,8.9C6.3,8.9,6.3,8.9,6.3,8.9C6.3,8.9,6.4,8.9,6.3,8.9C6.4,8.9,6.4,8.9,6.3,8.9C6.4,8.9,6.4,8.9,6.3,8.9
						C6.4,8.9,6.4,8.9,6.3,8.9C6.4,8.9,6.4,8.9,6.3,8.9C6.4,8.9,6.3,8.9,6.3,8.9C6.3,8.9,6.3,8.9,6.3,8.9z M6.3,8.9
						C6.3,8.9,6.3,8.9,6.3,8.9C6.3,8.8,6.4,8.8,6.3,8.9C6.4,8.8,6.4,8.8,6.3,8.9C6.4,8.9,6.4,8.9,6.3,8.9C6.4,8.9,6.4,8.9,6.3,8.9
						C6.4,8.9,6.4,8.9,6.3,8.9C6.4,8.9,6.3,8.9,6.3,8.9C6.3,8.9,6.3,8.9,6.3,8.9z"/>
					<path d="M6.5,8.9C6.5,8.9,6.5,8.9,6.5,8.9C6.4,8.9,6.4,8.9,6.5,8.9C6.4,8.9,6.4,8.9,6.5,8.9C6.4,8.9,6.4,8.9,6.5,8.9L6.5,8.9
						C6.4,8.9,6.4,8.8,6.5,8.9C6.4,8.8,6.4,8.8,6.5,8.9C6.4,8.8,6.4,8.8,6.5,8.9C6.5,8.8,6.5,8.8,6.5,8.9L6.5,8.9z M6.4,8.9
						C6.4,8.9,6.4,8.8,6.4,8.9C6.4,8.8,6.4,8.8,6.4,8.9C6.4,8.8,6.4,8.8,6.4,8.9C6.4,8.8,6.4,8.9,6.4,8.9L6.4,8.9
						C6.4,8.9,6.4,8.9,6.4,8.9C6.4,8.9,6.4,8.9,6.4,8.9C6.4,8.9,6.4,8.9,6.4,8.9C6.4,8.9,6.4,8.9,6.4,8.9L6.4,8.9z"/>
					<path d="M6.6,8.9C6.6,8.9,6.6,8.9,6.6,8.9C6.5,8.9,6.5,8.9,6.6,8.9C6.5,8.9,6.5,8.9,6.6,8.9C6.5,8.9,6.5,8.9,6.6,8.9L6.6,8.9
						C6.5,8.9,6.5,8.8,6.6,8.9C6.5,8.8,6.5,8.8,6.6,8.9C6.5,8.8,6.5,8.8,6.6,8.9C6.6,8.8,6.6,8.8,6.6,8.9L6.6,8.9z M6.5,8.9
						C6.5,8.9,6.5,8.8,6.5,8.9C6.5,8.8,6.5,8.8,6.5,8.9C6.5,8.8,6.5,8.8,6.5,8.9C6.5,8.8,6.5,8.9,6.5,8.9L6.5,8.9
						C6.5,8.9,6.5,8.9,6.5,8.9C6.5,8.9,6.5,8.9,6.5,8.9C6.5,8.9,6.5,8.9,6.5,8.9C6.5,8.9,6.5,8.9,6.5,8.9L6.5,8.9z"/>
				</g>
				<g>
					<path d="M6.4,7L6.4,7L6.4,7L6.4,7L6.4,7L6.4,7L6.4,7L6.4,7L6.4,7z M6.3,7L6.3,7L6.3,7L6.3,7z"/>
					<path d="M6.4,6.9l0,0.1L6.4,6.9h0.1v0.1h0L6.4,6.9L6.4,6.9l0,0.1h0L6.4,6.9L6.4,6.9l0,0.1h0L6.4,6.9L6.4,6.9z"/>
				</g>
				<g>
					<path d="M6.2,9.7L6.2,9.7l0-0.1L6.2,9.7l0-0.1l0,0h0V9.7z"/>
					<path d="M6.3,9.7L6.3,9.7L6.3,9.7L6.3,9.7C6.3,9.6,6.3,9.6,6.3,9.7C6.3,9.6,6.3,9.6,6.3,9.7c0-0.1,0-0.1,0-0.1c0,0,0,0,0,0
						c0,0,0,0,0,0C6.3,9.6,6.3,9.6,6.3,9.7L6.3,9.7C6.2,9.6,6.2,9.6,6.3,9.6c0,0,0,0,0,0c0,0,0,0,0,0C6.3,9.6,6.3,9.6,6.3,9.7
						C6.3,9.6,6.3,9.6,6.3,9.7L6.3,9.7L6.3,9.7L6.3,9.7z"/>
					<path d="M6.3,9.7C6.3,9.7,6.3,9.7,6.3,9.7C6.3,9.7,6.4,9.7,6.3,9.7C6.4,9.7,6.4,9.7,6.3,9.7C6.4,9.7,6.4,9.7,6.3,9.7
						C6.4,9.7,6.4,9.7,6.3,9.7C6.4,9.7,6.4,9.7,6.3,9.7C6.4,9.7,6.3,9.7,6.3,9.7C6.3,9.7,6.3,9.7,6.3,9.7z M6.3,9.6
						C6.3,9.6,6.3,9.6,6.3,9.6C6.3,9.6,6.4,9.6,6.3,9.6C6.4,9.6,6.4,9.6,6.3,9.6C6.4,9.6,6.4,9.6,6.3,9.6C6.4,9.6,6.4,9.6,6.3,9.6
						C6.4,9.6,6.4,9.6,6.3,9.6C6.4,9.6,6.3,9.6,6.3,9.6C6.3,9.6,6.3,9.6,6.3,9.6z"/>
					<path d="M6.5,9.6C6.5,9.7,6.5,9.7,6.5,9.6C6.4,9.7,6.4,9.7,6.5,9.6C6.4,9.7,6.4,9.7,6.5,9.6C6.4,9.7,6.4,9.7,6.5,9.6L6.5,9.6
						C6.4,9.6,6.4,9.6,6.5,9.6C6.4,9.6,6.4,9.6,6.5,9.6C6.4,9.6,6.4,9.6,6.5,9.6C6.5,9.6,6.5,9.6,6.5,9.6L6.5,9.6z M6.4,9.6
						C6.4,9.6,6.4,9.6,6.4,9.6C6.4,9.6,6.4,9.6,6.4,9.6C6.4,9.6,6.4,9.6,6.4,9.6C6.4,9.6,6.4,9.6,6.4,9.6L6.4,9.6
						C6.4,9.7,6.4,9.7,6.4,9.6C6.4,9.7,6.4,9.7,6.4,9.6C6.4,9.7,6.4,9.7,6.4,9.6C6.4,9.7,6.4,9.7,6.4,9.6L6.4,9.6z"/>
					<path d="M6.6,9.6C6.6,9.7,6.6,9.7,6.6,9.6C6.5,9.7,6.5,9.7,6.6,9.6C6.5,9.7,6.5,9.7,6.6,9.6C6.5,9.7,6.5,9.7,6.6,9.6L6.6,9.6
						C6.5,9.6,6.5,9.6,6.6,9.6C6.5,9.6,6.5,9.6,6.6,9.6C6.5,9.6,6.5,9.6,6.6,9.6C6.6,9.6,6.6,9.6,6.6,9.6L6.6,9.6z M6.5,9.6
						C6.5,9.6,6.5,9.6,6.5,9.6C6.5,9.6,6.5,9.6,6.5,9.6C6.5,9.6,6.5,9.6,6.5,9.6C6.5,9.6,6.5,9.6,6.5,9.6L6.5,9.6
						C6.5,9.7,6.5,9.7,6.5,9.6C6.5,9.7,6.5,9.7,6.5,9.6C6.5,9.7,6.5,9.7,6.5,9.6C6.5,9.7,6.5,9.7,6.5,9.6L6.5,9.6z"/>
				</g>
				<g>
					<path d="M6.3,9.9L6.3,9.9L6.3,9.9L6.3,9.9L6.3,9.9C6.4,9.8,6.4,9.8,6.3,9.9C6.4,9.8,6.4,9.8,6.3,9.9C6.4,9.8,6.4,9.9,6.3,9.9
						C6.4,9.9,6.4,9.9,6.3,9.9L6.3,9.9z M6.3,9.9L6.3,9.9C6.4,9.9,6.4,9.9,6.3,9.9C6.4,9.8,6.4,9.8,6.3,9.9C6.4,9.8,6.4,9.8,6.3,9.9
						C6.4,9.8,6.4,9.8,6.3,9.9L6.3,9.9L6.3,9.9z"/>
					<path d="M6.4,9.8l0,0.1L6.4,9.8h0.1v0.1h0L6.4,9.8L6.4,9.8l0,0.1h0L6.4,9.8L6.4,9.8l0,0.1h0L6.4,9.8L6.4,9.8z"/>
				</g>
				<circle class="st4" cx="6.7" cy="6.8" r="0"/>
				<g>
					<circle cx="6.7" cy="7.5" r="0.1"/>
					<circle class="st4" cx="6.7" cy="7.5" r="0"/>
				</g>
				<g>
					<circle cx="6.7" cy="8.2" r="0.1"/>
					<circle class="st4" cx="6.7" cy="8.2" r="0"/>
				</g>
				<g>
					<circle cx="6.7" cy="8.9" r="0.1"/>
					<circle class="st4" cx="6.7" cy="8.9" r="0"/>
				</g>
				<g>
					<path d="M6.3,10.4L6.3,10.4l0-0.1L6.3,10.4l0-0.1l0,0h0V10.4z"/>
					<path d="M6.3,10.4C6.3,10.4,6.3,10.4,6.3,10.4C6.3,10.4,6.3,10.4,6.3,10.4C6.4,10.4,6.4,10.4,6.3,10.4
						C6.4,10.4,6.4,10.4,6.3,10.4C6.4,10.4,6.4,10.4,6.3,10.4C6.4,10.4,6.4,10.4,6.3,10.4C6.3,10.4,6.3,10.4,6.3,10.4
						C6.3,10.4,6.3,10.4,6.3,10.4z M6.3,10.3C6.3,10.3,6.3,10.3,6.3,10.3C6.3,10.3,6.3,10.3,6.3,10.3C6.4,10.3,6.4,10.3,6.3,10.3
						C6.4,10.3,6.4,10.3,6.3,10.3C6.4,10.3,6.4,10.3,6.3,10.3C6.4,10.3,6.4,10.3,6.3,10.3C6.3,10.3,6.3,10.3,6.3,10.3
						C6.3,10.3,6.3,10.3,6.3,10.3z"/>
					<path d="M6.5,10.3C6.5,10.3,6.5,10.4,6.5,10.3C6.4,10.4,6.4,10.4,6.5,10.3C6.4,10.4,6.4,10.4,6.5,10.3
						C6.4,10.4,6.4,10.3,6.5,10.3L6.5,10.3C6.4,10.3,6.4,10.3,6.5,10.3C6.4,10.3,6.4,10.3,6.5,10.3C6.4,10.3,6.4,10.3,6.5,10.3
						C6.5,10.3,6.5,10.3,6.5,10.3L6.5,10.3z M6.4,10.3C6.4,10.3,6.4,10.3,6.4,10.3C6.4,10.3,6.4,10.3,6.4,10.3
						C6.4,10.3,6.4,10.3,6.4,10.3C6.4,10.3,6.4,10.3,6.4,10.3L6.4,10.3C6.4,10.3,6.4,10.4,6.4,10.3C6.4,10.4,6.4,10.4,6.4,10.3
						C6.4,10.4,6.4,10.4,6.4,10.3C6.4,10.4,6.4,10.3,6.4,10.3L6.4,10.3z"/>
					<path d="M6.6,10.3C6.6,10.3,6.6,10.4,6.6,10.3C6.5,10.4,6.5,10.4,6.6,10.3C6.5,10.4,6.5,10.4,6.6,10.3
						C6.5,10.4,6.5,10.3,6.6,10.3L6.6,10.3C6.5,10.3,6.5,10.3,6.6,10.3C6.5,10.3,6.5,10.3,6.6,10.3C6.5,10.3,6.5,10.3,6.6,10.3
						C6.6,10.3,6.6,10.3,6.6,10.3L6.6,10.3z M6.5,10.3C6.5,10.3,6.5,10.3,6.5,10.3C6.5,10.3,6.5,10.3,6.5,10.3
						C6.5,10.3,6.5,10.3,6.5,10.3C6.5,10.3,6.5,10.3,6.5,10.3L6.5,10.3C6.5,10.3,6.5,10.4,6.5,10.3C6.5,10.4,6.5,10.4,6.5,10.3
						C6.5,10.4,6.5,10.4,6.5,10.3C6.5,10.4,6.5,10.3,6.5,10.3L6.5,10.3z"/>
				</g>
				<g>
					<circle cx="6.7" cy="10.3" r="0.1"/>
					<circle class="st4" cx="6.7" cy="10.3" r="0"/>
				</g>
				<g>
					<path d="M6.3,11.1L6.3,11.1L6.3,11.1L6.3,11.1C6.3,11,6.3,11,6.3,11.1C6.3,11,6.3,11,6.3,11.1c0-0.1,0-0.1,0-0.1c0,0,0,0,0,0
						c0,0,0,0,0,0C6.3,11,6.3,11,6.3,11.1L6.3,11.1C6.2,11,6.2,11,6.2,11c0,0,0,0,0,0c0,0,0,0,0,0C6.3,11,6.3,11,6.3,11.1
						C6.3,11,6.3,11,6.3,11.1L6.3,11.1L6.3,11.1L6.3,11.1z"/>
					<path d="M6.3,11.1C6.3,11.1,6.3,11.1,6.3,11.1C6.3,11.1,6.3,11.1,6.3,11.1C6.4,11.1,6.4,11.1,6.3,11.1
						C6.4,11.1,6.4,11.1,6.3,11.1C6.4,11.1,6.4,11.1,6.3,11.1C6.4,11.1,6.4,11.1,6.3,11.1C6.3,11.1,6.3,11.1,6.3,11.1
						C6.3,11.1,6.3,11.1,6.3,11.1z M6.3,11C6.3,11,6.3,11,6.3,11C6.3,11,6.3,11,6.3,11C6.4,11,6.4,11,6.3,11C6.4,11,6.4,11,6.3,11
						C6.4,11,6.4,11,6.3,11C6.4,11,6.4,11,6.3,11C6.3,11,6.3,11,6.3,11C6.3,11,6.3,11,6.3,11z"/>
					<path d="M6.5,11.1C6.5,11.1,6.5,11.1,6.5,11.1C6.4,11.1,6.4,11.1,6.5,11.1C6.4,11.1,6.4,11.1,6.5,11.1
						C6.4,11.1,6.4,11.1,6.5,11.1L6.5,11.1C6.4,11,6.4,11,6.5,11.1C6.4,11,6.4,11,6.5,11.1C6.4,11,6.4,11,6.5,11.1
						C6.5,11,6.5,11,6.5,11.1L6.5,11.1z M6.4,11C6.4,11,6.4,11,6.4,11C6.4,11,6.4,11,6.4,11C6.4,11,6.4,11,6.4,11
						C6.4,11,6.4,11,6.4,11L6.4,11C6.4,11.1,6.4,11.1,6.4,11C6.4,11.1,6.4,11.1,6.4,11C6.4,11.1,6.4,11.1,6.4,11
						C6.4,11.1,6.4,11.1,6.4,11L6.4,11z"/>
					<path d="M6.6,11.1C6.6,11.1,6.6,11.1,6.6,11.1C6.5,11.1,6.5,11.1,6.6,11.1C6.5,11.1,6.5,11.1,6.6,11.1
						C6.5,11.1,6.5,11.1,6.6,11.1L6.6,11.1C6.5,11,6.5,11,6.6,11.1C6.5,11,6.5,11,6.6,11.1C6.5,11,6.5,11,6.6,11.1
						C6.6,11,6.6,11,6.6,11.1L6.6,11.1z M6.5,11C6.5,11,6.5,11,6.5,11C6.5,11,6.5,11,6.5,11C6.5,11,6.5,11,6.5,11
						C6.5,11,6.5,11,6.5,11L6.5,11C6.5,11.1,6.5,11.1,6.5,11C6.5,11.1,6.5,11.1,6.5,11C6.5,11.1,6.5,11.1,6.5,11
						C6.5,11.1,6.5,11.1,6.5,11L6.5,11z"/>
				</g>
				<g>
					<circle cx="6.7" cy="11.1" r="0.1"/>
					<circle class="st4" cx="6.7" cy="11.1" r="0"/>
				</g>
				<g>
					<path d="M6.3,11.7L6.3,11.7C6.3,11.7,6.3,11.7,6.3,11.7C6.3,11.7,6.3,11.7,6.3,11.7C6.3,11.7,6.3,11.7,6.3,11.7
						C6.3,11.7,6.3,11.7,6.3,11.7C6.3,11.7,6.3,11.7,6.3,11.7L6.3,11.7C6.2,11.7,6.2,11.7,6.3,11.7C6.3,11.7,6.3,11.7,6.3,11.7
						C6.3,11.7,6.3,11.7,6.3,11.7C6.3,11.7,6.3,11.7,6.3,11.7C6.3,11.7,6.3,11.7,6.3,11.7C6.3,11.7,6.3,11.7,6.3,11.7
						C6.3,11.7,6.3,11.7,6.3,11.7C6.3,11.8,6.3,11.8,6.3,11.7C6.3,11.8,6.3,11.8,6.3,11.7C6.3,11.8,6.3,11.8,6.3,11.7
						C6.3,11.8,6.3,11.8,6.3,11.7C6.2,11.8,6.2,11.8,6.3,11.7L6.3,11.7C6.3,11.8,6.3,11.8,6.3,11.7C6.3,11.8,6.3,11.8,6.3,11.7
						C6.3,11.8,6.3,11.8,6.3,11.7C6.3,11.8,6.3,11.8,6.3,11.7C6.3,11.8,6.3,11.8,6.3,11.7C6.3,11.7,6.3,11.7,6.3,11.7L6.3,11.7
						L6.3,11.7z"/>
					<path d="M6.3,11.8C6.3,11.8,6.3,11.8,6.3,11.8C6.3,11.8,6.3,11.8,6.3,11.8C6.4,11.8,6.4,11.8,6.3,11.8
						C6.4,11.8,6.4,11.8,6.3,11.8C6.4,11.8,6.4,11.8,6.3,11.8C6.4,11.8,6.4,11.8,6.3,11.8C6.3,11.8,6.3,11.8,6.3,11.8
						C6.3,11.8,6.3,11.8,6.3,11.8z M6.3,11.7C6.3,11.7,6.3,11.7,6.3,11.7C6.3,11.7,6.3,11.7,6.3,11.7C6.4,11.7,6.4,11.7,6.3,11.7
						C6.4,11.7,6.4,11.7,6.3,11.7C6.4,11.7,6.4,11.7,6.3,11.7C6.4,11.7,6.4,11.7,6.3,11.7C6.3,11.7,6.3,11.7,6.3,11.7
						C6.3,11.7,6.3,11.7,6.3,11.7z"/>
					<path d="M6.5,11.7C6.5,11.8,6.5,11.8,6.5,11.7C6.4,11.8,6.4,11.8,6.5,11.7C6.4,11.8,6.4,11.8,6.5,11.7
						C6.4,11.8,6.4,11.8,6.5,11.7L6.5,11.7C6.4,11.7,6.4,11.7,6.5,11.7C6.4,11.7,6.4,11.7,6.5,11.7C6.4,11.7,6.4,11.7,6.5,11.7
						C6.5,11.7,6.5,11.7,6.5,11.7L6.5,11.7z M6.4,11.7C6.4,11.7,6.4,11.7,6.4,11.7C6.4,11.7,6.4,11.7,6.4,11.7
						C6.4,11.7,6.4,11.7,6.4,11.7C6.4,11.7,6.4,11.7,6.4,11.7L6.4,11.7C6.4,11.8,6.4,11.8,6.4,11.7C6.4,11.8,6.4,11.8,6.4,11.7
						C6.4,11.8,6.4,11.8,6.4,11.7C6.4,11.8,6.4,11.8,6.4,11.7L6.4,11.7z"/>
					<path d="M6.6,11.7C6.6,11.8,6.6,11.8,6.6,11.7C6.5,11.8,6.5,11.8,6.6,11.7C6.5,11.8,6.5,11.8,6.6,11.7
						C6.5,11.8,6.5,11.8,6.6,11.7L6.6,11.7C6.5,11.7,6.5,11.7,6.6,11.7C6.5,11.7,6.5,11.7,6.6,11.7C6.5,11.7,6.5,11.7,6.6,11.7
						C6.6,11.7,6.6,11.7,6.6,11.7L6.6,11.7z M6.5,11.7C6.5,11.7,6.5,11.7,6.5,11.7C6.5,11.7,6.5,11.7,6.5,11.7
						C6.5,11.7,6.5,11.7,6.5,11.7C6.5,11.7,6.5,11.7,6.5,11.7L6.5,11.7C6.5,11.8,6.5,11.8,6.5,11.7C6.5,11.8,6.5,11.8,6.5,11.7
						C6.5,11.8,6.5,11.8,6.5,11.7C6.5,11.8,6.5,11.8,6.5,11.7L6.5,11.7z"/>
				</g>
				<g>
					<circle cx="6.7" cy="11.8" r="0.1"/>
					<circle class="st4" cx="6.7" cy="11.8" r="0"/>
				</g>
				<g>
					<path d="M6.3,12.5L6.3,12.5L6.3,12.5L6.3,12.5L6.3,12.5L6.3,12.5L6.3,12.5L6.3,12.5L6.3,12.5L6.3,12.5L6.3,12.5L6.3,12.5z
						 M6.3,12.5L6.3,12.5L6.3,12.5L6.3,12.5L6.3,12.5z"/>
					<path d="M6.3,12.5C6.3,12.5,6.3,12.5,6.3,12.5C6.3,12.5,6.3,12.5,6.3,12.5C6.4,12.5,6.4,12.5,6.3,12.5
						C6.4,12.5,6.4,12.5,6.3,12.5C6.4,12.5,6.4,12.5,6.3,12.5C6.4,12.5,6.4,12.5,6.3,12.5C6.3,12.5,6.3,12.5,6.3,12.5
						C6.3,12.5,6.3,12.5,6.3,12.5z M6.3,12.4C6.3,12.4,6.3,12.4,6.3,12.4C6.3,12.4,6.3,12.4,6.3,12.4C6.4,12.4,6.4,12.4,6.3,12.4
						C6.4,12.4,6.4,12.4,6.3,12.4C6.4,12.4,6.4,12.4,6.3,12.4C6.4,12.4,6.4,12.4,6.3,12.4C6.3,12.4,6.3,12.4,6.3,12.4
						C6.3,12.4,6.3,12.4,6.3,12.4z"/>
					<path d="M6.5,12.5C6.5,12.5,6.5,12.5,6.5,12.5C6.4,12.5,6.4,12.5,6.5,12.5C6.4,12.5,6.4,12.5,6.5,12.5
						C6.4,12.5,6.4,12.5,6.5,12.5L6.5,12.5C6.4,12.4,6.4,12.4,6.5,12.5C6.4,12.4,6.4,12.4,6.5,12.5C6.4,12.4,6.4,12.4,6.5,12.5
						C6.5,12.4,6.5,12.4,6.5,12.5L6.5,12.5z M6.4,12.4C6.4,12.4,6.4,12.4,6.4,12.4C6.4,12.4,6.4,12.4,6.4,12.4
						C6.4,12.4,6.4,12.4,6.4,12.4C6.4,12.4,6.4,12.4,6.4,12.4L6.4,12.4C6.4,12.5,6.4,12.5,6.4,12.4C6.4,12.5,6.4,12.5,6.4,12.4
						C6.4,12.5,6.4,12.5,6.4,12.4C6.4,12.5,6.4,12.5,6.4,12.4L6.4,12.4z"/>
					<path d="M6.6,12.5C6.6,12.5,6.6,12.5,6.6,12.5C6.5,12.5,6.5,12.5,6.6,12.5C6.5,12.5,6.5,12.5,6.6,12.5
						C6.5,12.5,6.5,12.5,6.6,12.5L6.6,12.5C6.5,12.4,6.5,12.4,6.6,12.5C6.5,12.4,6.5,12.4,6.6,12.5C6.5,12.4,6.5,12.4,6.6,12.5
						C6.6,12.4,6.6,12.4,6.6,12.5L6.6,12.5z M6.5,12.4C6.5,12.4,6.5,12.4,6.5,12.4C6.5,12.4,6.5,12.4,6.5,12.4
						C6.5,12.4,6.5,12.4,6.5,12.4C6.5,12.4,6.5,12.4,6.5,12.4L6.5,12.4C6.5,12.5,6.5,12.5,6.5,12.4C6.5,12.5,6.5,12.5,6.5,12.4
						C6.5,12.5,6.5,12.5,6.5,12.4C6.5,12.5,6.5,12.5,6.5,12.4L6.5,12.4z"/>
				</g>
				<g>
					<circle cx="6.7" cy="12.5" r="0.1"/>
					<circle class="st4" cx="6.7" cy="12.5" r="0"/>
				</g>
				<g>
					<path d="M6.2,13.2L6.2,13.2L6.2,13.2L6.2,13.2L6.2,13.2L6.2,13.2C6.3,13.1,6.3,13.1,6.2,13.2C6.3,13.1,6.3,13.1,6.2,13.2
						C6.3,13.2,6.3,13.2,6.2,13.2C6.3,13.2,6.3,13.2,6.2,13.2C6.3,13.2,6.3,13.2,6.2,13.2C6.3,13.2,6.3,13.2,6.2,13.2
						C6.2,13.2,6.2,13.2,6.2,13.2L6.2,13.2C6.3,13.2,6.3,13.2,6.2,13.2C6.3,13.2,6.3,13.2,6.2,13.2C6.3,13.2,6.3,13.2,6.2,13.2
						C6.3,13.2,6.3,13.2,6.2,13.2C6.3,13.2,6.3,13.2,6.2,13.2C6.3,13.2,6.3,13.2,6.2,13.2C6.3,13.2,6.3,13.2,6.2,13.2L6.2,13.2
						L6.2,13.2z"/>
					<path d="M6.3,13.2C6.3,13.2,6.3,13.2,6.3,13.2C6.3,13.2,6.3,13.2,6.3,13.2C6.4,13.2,6.4,13.2,6.3,13.2
						C6.4,13.2,6.4,13.2,6.3,13.2C6.4,13.2,6.4,13.2,6.3,13.2C6.4,13.2,6.4,13.2,6.3,13.2C6.3,13.2,6.3,13.2,6.3,13.2
						C6.3,13.2,6.3,13.2,6.3,13.2z M6.3,13.1C6.3,13.1,6.3,13.1,6.3,13.1C6.3,13.1,6.3,13.1,6.3,13.1C6.4,13.1,6.4,13.1,6.3,13.1
						C6.4,13.1,6.4,13.1,6.3,13.1C6.4,13.1,6.4,13.1,6.3,13.1C6.4,13.1,6.4,13.1,6.3,13.1C6.3,13.1,6.3,13.1,6.3,13.1
						C6.3,13.1,6.3,13.1,6.3,13.1z"/>
					<path d="M6.5,13.2C6.5,13.2,6.5,13.2,6.5,13.2C6.4,13.2,6.4,13.2,6.5,13.2C6.4,13.2,6.4,13.2,6.5,13.2
						C6.4,13.2,6.4,13.2,6.5,13.2L6.5,13.2C6.4,13.1,6.4,13.1,6.5,13.2C6.4,13.1,6.4,13.1,6.5,13.2C6.4,13.1,6.4,13.1,6.5,13.2
						C6.5,13.1,6.5,13.1,6.5,13.2L6.5,13.2z M6.4,13.1C6.4,13.1,6.4,13.1,6.4,13.1C6.4,13.1,6.4,13.1,6.4,13.1
						C6.4,13.1,6.4,13.1,6.4,13.1C6.4,13.1,6.4,13.1,6.4,13.1L6.4,13.1C6.4,13.2,6.4,13.2,6.4,13.1C6.4,13.2,6.4,13.2,6.4,13.1
						C6.4,13.2,6.4,13.2,6.4,13.1C6.4,13.2,6.4,13.2,6.4,13.1L6.4,13.1z"/>
					<path d="M6.6,13.2C6.6,13.2,6.6,13.2,6.6,13.2C6.5,13.2,6.5,13.2,6.6,13.2C6.5,13.2,6.5,13.2,6.6,13.2
						C6.5,13.2,6.5,13.2,6.6,13.2L6.6,13.2C6.5,13.1,6.5,13.1,6.6,13.2C6.5,13.1,6.5,13.1,6.6,13.2C6.5,13.1,6.5,13.1,6.6,13.2
						C6.6,13.1,6.6,13.1,6.6,13.2L6.6,13.2z M6.5,13.1C6.5,13.1,6.5,13.1,6.5,13.1C6.5,13.1,6.5,13.1,6.5,13.1
						C6.5,13.1,6.5,13.1,6.5,13.1C6.5,13.1,6.5,13.1,6.5,13.1L6.5,13.1C6.5,13.2,6.5,13.2,6.5,13.1C6.5,13.2,6.5,13.2,6.5,13.1
						C6.5,13.2,6.5,13.2,6.5,13.1C6.5,13.2,6.5,13.2,6.5,13.1L6.5,13.1z"/>
				</g>
				<g>
					<circle cx="6.7" cy="13.2" r="0.1"/>
					<circle class="st4" cx="6.7" cy="13.2" r="0"/>
				</g>
				<g>
					<path d="M6.3,13.8L6.3,13.8L6.3,13.8C6.3,13.8,6.3,13.8,6.3,13.8C6.3,13.8,6.3,13.9,6.3,13.8C6.3,13.9,6.3,13.9,6.3,13.8
						C6.3,13.9,6.3,13.9,6.3,13.8C6.3,13.9,6.3,13.9,6.3,13.8c0,0.1,0,0.1,0,0.1c0,0,0,0,0,0c0,0,0,0,0,0S6.2,13.9,6.3,13.8
						L6.3,13.8C6.2,13.9,6.2,13.8,6.3,13.8C6.3,13.8,6.3,13.8,6.3,13.8L6.3,13.8z M6.3,13.9C6.3,13.9,6.3,13.9,6.3,13.9
						C6.3,13.9,6.3,13.9,6.3,13.9L6.3,13.9C6.3,13.9,6.3,13.9,6.3,13.9C6.3,13.9,6.3,13.9,6.3,13.9C6.3,13.9,6.3,13.9,6.3,13.9
						C6.3,13.9,6.3,13.9,6.3,13.9C6.3,13.9,6.3,13.9,6.3,13.9C6.3,13.9,6.3,13.9,6.3,13.9z"/>
					<path d="M6.3,13.9C6.3,13.9,6.3,13.9,6.3,13.9C6.3,13.9,6.3,13.9,6.3,13.9C6.4,13.9,6.4,13.9,6.3,13.9
						C6.4,13.9,6.4,13.9,6.3,13.9C6.4,13.9,6.4,13.9,6.3,13.9C6.4,13.9,6.4,13.9,6.3,13.9C6.3,13.9,6.3,13.9,6.3,13.9
						C6.3,13.9,6.3,13.9,6.3,13.9z M6.3,13.9C6.3,13.8,6.3,13.8,6.3,13.9C6.3,13.8,6.3,13.8,6.3,13.9C6.4,13.8,6.4,13.8,6.3,13.9
						C6.4,13.8,6.4,13.8,6.3,13.9C6.4,13.9,6.4,13.9,6.3,13.9C6.4,13.9,6.4,13.9,6.3,13.9C6.3,13.9,6.3,13.9,6.3,13.9
						C6.3,13.9,6.3,13.9,6.3,13.9z"/>
					<path d="M6.5,13.9C6.5,13.9,6.5,13.9,6.5,13.9C6.4,13.9,6.4,13.9,6.5,13.9C6.4,13.9,6.4,13.9,6.5,13.9
						C6.4,13.9,6.4,13.9,6.5,13.9L6.5,13.9C6.4,13.8,6.4,13.8,6.5,13.9C6.4,13.8,6.4,13.8,6.5,13.9C6.4,13.8,6.4,13.8,6.5,13.9
						C6.5,13.8,6.5,13.8,6.5,13.9L6.5,13.9z M6.4,13.9C6.4,13.8,6.4,13.8,6.4,13.9C6.4,13.8,6.4,13.8,6.4,13.9
						C6.4,13.8,6.4,13.8,6.4,13.9C6.4,13.8,6.4,13.8,6.4,13.9L6.4,13.9C6.4,13.9,6.4,13.9,6.4,13.9C6.4,13.9,6.4,13.9,6.4,13.9
						C6.4,13.9,6.4,13.9,6.4,13.9C6.4,13.9,6.4,13.9,6.4,13.9L6.4,13.9z"/>
					<path d="M6.6,13.9C6.6,13.9,6.6,13.9,6.6,13.9C6.5,13.9,6.5,13.9,6.6,13.9C6.5,13.9,6.5,13.9,6.6,13.9
						C6.5,13.9,6.5,13.9,6.6,13.9L6.6,13.9C6.5,13.8,6.5,13.8,6.6,13.9C6.5,13.8,6.5,13.8,6.6,13.9C6.5,13.8,6.5,13.8,6.6,13.9
						C6.6,13.8,6.6,13.8,6.6,13.9L6.6,13.9z M6.5,13.9C6.5,13.8,6.5,13.8,6.5,13.9C6.5,13.8,6.5,13.8,6.5,13.9
						C6.5,13.8,6.5,13.8,6.5,13.9C6.5,13.8,6.5,13.8,6.5,13.9L6.5,13.9C6.5,13.9,6.5,13.9,6.5,13.9C6.5,13.9,6.5,13.9,6.5,13.9
						C6.5,13.9,6.5,13.9,6.5,13.9C6.5,13.9,6.5,13.9,6.5,13.9L6.5,13.9z"/>
				</g>
				<g>
					<circle cx="6.7" cy="13.9" r="0.1"/>
					<circle class="st4" cx="6.7" cy="13.9" r="0"/>
				</g>
				<line class="st3" x1="6.7" y1="14.6" x2="12.6" y2="14.6"/>
				<g>
					<path d="M6.3,14.5l-0.1,0.1h0L6.3,14.5L6.3,14.5L6.3,14.5L6.3,14.5L6.3,14.5z"/>
					<path d="M6.3,14.6C6.3,14.6,6.3,14.6,6.3,14.6C6.3,14.6,6.3,14.6,6.3,14.6C6.4,14.6,6.4,14.6,6.3,14.6
						C6.4,14.6,6.4,14.6,6.3,14.6C6.4,14.6,6.4,14.6,6.3,14.6C6.4,14.6,6.4,14.6,6.3,14.6C6.3,14.6,6.3,14.6,6.3,14.6
						C6.3,14.6,6.3,14.6,6.3,14.6z M6.3,14.6C6.3,14.6,6.3,14.6,6.3,14.6C6.3,14.6,6.3,14.6,6.3,14.6C6.4,14.6,6.4,14.6,6.3,14.6
						C6.4,14.6,6.4,14.6,6.3,14.6C6.4,14.6,6.4,14.6,6.3,14.6C6.4,14.6,6.4,14.6,6.3,14.6C6.3,14.6,6.3,14.6,6.3,14.6
						C6.3,14.6,6.3,14.6,6.3,14.6z"/>
					<path d="M6.5,14.6C6.5,14.6,6.5,14.6,6.5,14.6C6.4,14.6,6.4,14.6,6.5,14.6C6.4,14.6,6.4,14.6,6.5,14.6
						C6.4,14.6,6.4,14.6,6.5,14.6L6.5,14.6C6.4,14.6,6.4,14.5,6.5,14.6C6.4,14.5,6.4,14.5,6.5,14.6C6.4,14.5,6.4,14.5,6.5,14.6
						C6.5,14.5,6.5,14.6,6.5,14.6L6.5,14.6z M6.4,14.6C6.4,14.6,6.4,14.5,6.4,14.6C6.4,14.5,6.4,14.5,6.4,14.6
						C6.4,14.5,6.4,14.5,6.4,14.6C6.4,14.5,6.4,14.6,6.4,14.6L6.4,14.6C6.4,14.6,6.4,14.6,6.4,14.6C6.4,14.6,6.4,14.6,6.4,14.6
						C6.4,14.6,6.4,14.6,6.4,14.6C6.4,14.6,6.4,14.6,6.4,14.6L6.4,14.6z"/>
					<path d="M6.6,14.6C6.6,14.6,6.6,14.6,6.6,14.6C6.5,14.6,6.5,14.6,6.6,14.6C6.5,14.6,6.5,14.6,6.6,14.6
						C6.5,14.6,6.5,14.6,6.6,14.6L6.6,14.6C6.5,14.6,6.5,14.5,6.6,14.6C6.5,14.5,6.5,14.5,6.6,14.6C6.5,14.5,6.5,14.5,6.6,14.6
						C6.6,14.5,6.6,14.6,6.6,14.6L6.6,14.6z M6.5,14.6C6.5,14.6,6.5,14.5,6.5,14.6C6.5,14.5,6.5,14.5,6.5,14.6
						C6.5,14.5,6.5,14.5,6.5,14.6C6.5,14.5,6.5,14.6,6.5,14.6L6.5,14.6C6.5,14.6,6.5,14.6,6.5,14.6C6.5,14.6,6.5,14.6,6.5,14.6
						C6.5,14.6,6.5,14.6,6.5,14.6C6.5,14.6,6.5,14.6,6.5,14.6L6.5,14.6z"/>
				</g>
				<g>
					<circle cx="6.7" cy="14.6" r="0.1"/>
					<circle class="st4" cx="6.7" cy="14.6" r="0"/>
				</g>
				<line class="st3" x1="6.7" y1="15.3" x2="12.6" y2="15.3"/>
				<g>
					<path d="M6.3,15.3C6.3,15.3,6.3,15.3,6.3,15.3C6.3,15.3,6.3,15.3,6.3,15.3C6.3,15.3,6.3,15.3,6.3,15.3
						C6.3,15.3,6.3,15.3,6.3,15.3C6.3,15.3,6.3,15.3,6.3,15.3C6.3,15.4,6.3,15.4,6.3,15.3C6.3,15.4,6.3,15.4,6.3,15.3
						C6.2,15.3,6.2,15.3,6.3,15.3C6.2,15.3,6.2,15.3,6.3,15.3C6.2,15.3,6.3,15.3,6.3,15.3C6.3,15.3,6.3,15.3,6.3,15.3
						C6.2,15.3,6.2,15.3,6.3,15.3C6.2,15.3,6.2,15.2,6.3,15.3C6.3,15.2,6.3,15.2,6.3,15.3C6.3,15.2,6.3,15.2,6.3,15.3
						C6.3,15.2,6.3,15.3,6.3,15.3z M6.3,15.3C6.3,15.3,6.3,15.3,6.3,15.3C6.3,15.3,6.3,15.3,6.3,15.3C6.3,15.3,6.3,15.3,6.3,15.3
						C6.3,15.3,6.3,15.3,6.3,15.3C6.3,15.3,6.3,15.3,6.3,15.3C6.3,15.3,6.3,15.3,6.3,15.3C6.3,15.3,6.3,15.3,6.3,15.3
						C6.3,15.3,6.3,15.3,6.3,15.3z M6.3,15.2C6.3,15.2,6.3,15.2,6.3,15.2C6.3,15.3,6.3,15.3,6.3,15.2C6.3,15.3,6.3,15.3,6.3,15.2
						C6.3,15.3,6.3,15.3,6.3,15.2C6.3,15.3,6.3,15.3,6.3,15.2C6.3,15.3,6.3,15.3,6.3,15.2C6.3,15.3,6.3,15.3,6.3,15.2
						C6.3,15.2,6.3,15.2,6.3,15.2z"/>
					<path d="M6.3,15.3C6.3,15.3,6.3,15.3,6.3,15.3C6.3,15.3,6.3,15.3,6.3,15.3C6.4,15.3,6.4,15.3,6.3,15.3
						C6.4,15.3,6.4,15.3,6.3,15.3C6.4,15.3,6.4,15.4,6.3,15.3C6.4,15.4,6.4,15.4,6.3,15.3C6.3,15.4,6.3,15.4,6.3,15.3
						C6.3,15.4,6.3,15.3,6.3,15.3z M6.3,15.3C6.3,15.3,6.3,15.3,6.3,15.3C6.3,15.3,6.3,15.3,6.3,15.3C6.4,15.3,6.4,15.3,6.3,15.3
						C6.4,15.3,6.4,15.3,6.3,15.3C6.4,15.3,6.4,15.3,6.3,15.3C6.4,15.3,6.4,15.3,6.3,15.3C6.3,15.3,6.3,15.3,6.3,15.3
						C6.3,15.3,6.3,15.3,6.3,15.3z"/>
					<path d="M6.5,15.3C6.5,15.3,6.5,15.3,6.5,15.3C6.4,15.4,6.4,15.4,6.5,15.3C6.4,15.4,6.4,15.4,6.5,15.3
						C6.4,15.3,6.4,15.3,6.5,15.3L6.5,15.3C6.4,15.3,6.4,15.3,6.5,15.3C6.4,15.2,6.4,15.2,6.5,15.3C6.4,15.2,6.4,15.2,6.5,15.3
						C6.5,15.3,6.5,15.3,6.5,15.3L6.5,15.3z M6.4,15.3C6.4,15.3,6.4,15.3,6.4,15.3C6.4,15.2,6.4,15.2,6.4,15.3
						C6.4,15.2,6.4,15.2,6.4,15.3C6.4,15.3,6.4,15.3,6.4,15.3L6.4,15.3C6.4,15.3,6.4,15.3,6.4,15.3C6.4,15.3,6.4,15.3,6.4,15.3
						C6.4,15.3,6.4,15.3,6.4,15.3C6.4,15.3,6.4,15.3,6.4,15.3L6.4,15.3z"/>
					<path d="M6.6,15.3C6.6,15.3,6.6,15.3,6.6,15.3C6.5,15.4,6.5,15.4,6.6,15.3C6.5,15.4,6.5,15.4,6.6,15.3
						C6.5,15.3,6.5,15.3,6.6,15.3L6.6,15.3C6.5,15.3,6.5,15.3,6.6,15.3C6.5,15.2,6.5,15.2,6.6,15.3C6.5,15.2,6.5,15.2,6.6,15.3
						C6.6,15.3,6.6,15.3,6.6,15.3L6.6,15.3z M6.5,15.3C6.5,15.3,6.5,15.3,6.5,15.3C6.5,15.2,6.5,15.2,6.5,15.3
						C6.5,15.2,6.5,15.2,6.5,15.3C6.5,15.3,6.5,15.3,6.5,15.3L6.5,15.3C6.5,15.3,6.5,15.3,6.5,15.3C6.5,15.3,6.5,15.3,6.5,15.3
						C6.5,15.3,6.5,15.3,6.5,15.3C6.5,15.3,6.5,15.3,6.5,15.3L6.5,15.3z"/>
				</g>
				<g>
					<circle cx="6.7" cy="15.3" r="0.1"/>
					<circle class="st4" cx="6.7" cy="15.3" r="0"/>
				</g>
				<line class="st3" x1="6.7" y1="16" x2="12.6" y2="16"/>
				<g>
					<path d="M6.3,16C6.3,16,6.3,16,6.3,16C6.3,16,6.3,16,6.3,16C6.3,16,6.3,16,6.3,16C6.3,16,6.2,16,6.3,16C6.2,16,6.2,16,6.3,16
						C6.2,16,6.2,16,6.3,16C6.2,16,6.3,15.9,6.3,16C6.3,15.9,6.3,15.9,6.3,16C6.3,15.9,6.3,15.9,6.3,16C6.3,16,6.3,16,6.3,16L6.3,16
						C6.3,16,6.3,16,6.3,16C6.3,16.1,6.3,16.1,6.3,16L6.3,16L6.3,16L6.3,16C6.3,16.1,6.3,16,6.3,16C6.3,16,6.3,16,6.3,16z M6.3,16
						C6.3,16,6.3,16,6.3,16C6.3,16,6.3,16,6.3,16L6.3,16C6.3,16,6.3,16,6.3,16C6.3,16,6.3,16,6.3,16C6.3,16,6.3,16,6.3,16
						C6.3,16,6.3,16,6.3,16C6.3,16,6.3,16,6.3,16C6.3,16,6.3,16,6.3,16z"/>
					<path d="M6.3,16.1C6.3,16.1,6.3,16.1,6.3,16.1C6.3,16,6.3,16,6.3,16.1C6.4,16,6.4,16,6.3,16.1C6.4,16.1,6.4,16.1,6.3,16.1
						C6.4,16.1,6.4,16.1,6.3,16.1C6.4,16.1,6.4,16.1,6.3,16.1C6.3,16.1,6.3,16.1,6.3,16.1C6.3,16.1,6.3,16.1,6.3,16.1z M6.3,16
						C6.3,16,6.3,16,6.3,16C6.3,16,6.3,16,6.3,16C6.4,16,6.4,16,6.3,16C6.4,16,6.4,16,6.3,16C6.4,16,6.4,16,6.3,16
						C6.4,16,6.4,16,6.3,16C6.3,16,6.3,16,6.3,16C6.3,16,6.3,16,6.3,16z"/>
					<path d="M6.5,16C6.5,16,6.5,16,6.5,16C6.4,16.1,6.4,16.1,6.5,16C6.4,16.1,6.4,16.1,6.5,16C6.4,16,6.4,16,6.5,16L6.5,16
						C6.4,16,6.4,16,6.5,16C6.4,15.9,6.4,15.9,6.5,16C6.4,15.9,6.4,15.9,6.5,16C6.5,16,6.5,16,6.5,16L6.5,16z M6.4,16
						C6.4,16,6.4,16,6.4,16C6.4,16,6.4,16,6.4,16C6.4,16,6.4,16,6.4,16C6.4,16,6.4,16,6.4,16L6.4,16C6.4,16,6.4,16,6.4,16
						C6.4,16.1,6.4,16.1,6.4,16C6.4,16.1,6.4,16.1,6.4,16C6.4,16,6.4,16,6.4,16L6.4,16z"/>
					<path d="M6.6,16C6.6,16,6.6,16,6.6,16C6.5,16.1,6.5,16.1,6.6,16C6.5,16.1,6.5,16.1,6.6,16C6.5,16,6.5,16,6.6,16L6.6,16
						C6.5,16,6.5,16,6.6,16C6.5,15.9,6.5,15.9,6.6,16C6.5,15.9,6.5,15.9,6.6,16C6.6,16,6.6,16,6.6,16L6.6,16z M6.5,16
						C6.5,16,6.5,16,6.5,16C6.5,16,6.5,16,6.5,16C6.5,16,6.5,16,6.5,16C6.5,16,6.5,16,6.5,16L6.5,16C6.5,16,6.5,16,6.5,16
						C6.5,16.1,6.5,16.1,6.5,16C6.5,16.1,6.5,16.1,6.5,16C6.5,16,6.5,16,6.5,16L6.5,16z"/>
				</g>
				<g>
					<circle cx="6.7" cy="16" r="0.1"/>
					<circle class="st4" cx="6.7" cy="16" r="0"/>
				</g>
				<line class="st3" x1="6.7" y1="16.7" x2="12.6" y2="16.7"/>
				<g>
					<path d="M6.2,16.8L6.2,16.8l0-0.1L6.2,16.8l0-0.1l0,0h0V16.8z"/>
					<path d="M6.3,16.7C6.3,16.7,6.3,16.8,6.3,16.7C6.3,16.8,6.3,16.8,6.3,16.7C6.3,16.8,6.3,16.8,6.3,16.7
						C6.2,16.8,6.2,16.7,6.3,16.7L6.3,16.7C6.2,16.7,6.2,16.7,6.3,16.7C6.3,16.7,6.3,16.7,6.3,16.7C6.3,16.7,6.3,16.7,6.3,16.7
						C6.3,16.7,6.3,16.7,6.3,16.7L6.3,16.7z M6.3,16.7C6.3,16.7,6.3,16.7,6.3,16.7C6.3,16.7,6.3,16.7,6.3,16.7
						C6.3,16.7,6.3,16.7,6.3,16.7C6.3,16.7,6.3,16.7,6.3,16.7L6.3,16.7C6.3,16.7,6.3,16.7,6.3,16.7C6.3,16.8,6.3,16.8,6.3,16.7
						C6.3,16.8,6.3,16.8,6.3,16.7C6.3,16.7,6.3,16.7,6.3,16.7L6.3,16.7z"/>
					<path d="M6.3,16.8C6.3,16.8,6.3,16.8,6.3,16.8C6.3,16.8,6.4,16.8,6.3,16.8C6.4,16.8,6.4,16.8,6.3,16.8
						C6.4,16.8,6.4,16.8,6.3,16.8C6.4,16.8,6.4,16.8,6.3,16.8C6.4,16.8,6.4,16.8,6.3,16.8C6.4,16.8,6.3,16.8,6.3,16.8
						C6.3,16.8,6.3,16.8,6.3,16.8z M6.3,16.7C6.3,16.7,6.3,16.7,6.3,16.7C6.3,16.7,6.4,16.7,6.3,16.7C6.4,16.7,6.4,16.7,6.3,16.7
						C6.4,16.7,6.4,16.7,6.3,16.7C6.4,16.7,6.4,16.7,6.3,16.7C6.4,16.7,6.4,16.7,6.3,16.7C6.4,16.7,6.3,16.7,6.3,16.7
						C6.3,16.7,6.3,16.7,6.3,16.7z"/>
					<path d="M6.5,16.7C6.5,16.7,6.5,16.8,6.5,16.7C6.4,16.8,6.4,16.8,6.5,16.7C6.4,16.8,6.4,16.8,6.5,16.7
						C6.4,16.8,6.4,16.7,6.5,16.7L6.5,16.7C6.4,16.7,6.4,16.7,6.5,16.7C6.4,16.7,6.4,16.7,6.5,16.7C6.4,16.7,6.4,16.7,6.5,16.7
						C6.5,16.7,6.5,16.7,6.5,16.7L6.5,16.7z M6.4,16.7C6.4,16.7,6.4,16.7,6.4,16.7C6.4,16.7,6.4,16.7,6.4,16.7
						C6.4,16.7,6.4,16.7,6.4,16.7C6.4,16.7,6.4,16.7,6.4,16.7L6.4,16.7C6.4,16.7,6.4,16.7,6.4,16.7C6.4,16.8,6.4,16.8,6.4,16.7
						C6.4,16.8,6.4,16.8,6.4,16.7C6.4,16.7,6.4,16.7,6.4,16.7L6.4,16.7z"/>
					<path d="M6.6,16.7C6.6,16.7,6.6,16.8,6.6,16.7C6.5,16.8,6.5,16.8,6.6,16.7C6.5,16.8,6.5,16.8,6.6,16.7
						C6.5,16.8,6.5,16.7,6.6,16.7L6.6,16.7C6.5,16.7,6.5,16.7,6.6,16.7C6.5,16.7,6.5,16.7,6.6,16.7C6.5,16.7,6.5,16.7,6.6,16.7
						C6.6,16.7,6.6,16.7,6.6,16.7L6.6,16.7z M6.5,16.7C6.5,16.7,6.5,16.7,6.5,16.7C6.5,16.7,6.5,16.7,6.5,16.7
						C6.5,16.7,6.5,16.7,6.5,16.7C6.5,16.7,6.5,16.7,6.5,16.7L6.5,16.7C6.5,16.7,6.5,16.7,6.5,16.7C6.5,16.8,6.5,16.8,6.5,16.7
						C6.5,16.8,6.5,16.8,6.5,16.7C6.5,16.7,6.5,16.7,6.5,16.7L6.5,16.7z"/>
				</g>
				<g>
					<circle cx="6.7" cy="16.7" r="0.1"/>
					<circle class="st4" cx="6.7" cy="16.7" r="0"/>
				</g>
				<g>
					<circle cx="6.7" cy="9.6" r="0.1"/>
					<circle class="st4" cx="6.7" cy="9.6" r="0"/>
				</g>
			</g>
			<g>
				<rect x="5.9" y="5.1" class="st5" width="9.7" height="1.4"/>
				<g>
					<path d="M7.4,6.2H7.2v0l0.1-0.1c0,0,0,0,0,0s0,0,0,0c0,0,0,0,0,0c0,0,0,0,0,0c0,0,0,0,0,0c0,0,0,0,0,0h0c0,0,0,0,0-0.1
						c0,0,0,0,0.1,0c0,0,0,0,0.1,0c0,0,0,0,0,0C7.4,6,7.4,6,7.4,6.2l-0.1,0L7.4,6.2L7.4,6.2z"/>
					<path d="M7.6,6C7.6,6,7.5,6,7.6,6C7.5,6,7.5,6,7.6,6C7.5,6,7.5,6.1,7.6,6c0,0.1,0,0.1,0,0.1c0,0,0,0,0,0c0,0,0,0-0.1,0
						c0,0,0,0-0.1,0c0,0,0,0,0,0c0,0,0,0,0,0c0,0,0,0,0,0c0,0,0,0,0,0c0,0,0,0,0,0c0,0,0,0,0,0C7.4,5.9,7.5,5.9,7.6,6
						C7.5,5.9,7.5,5.9,7.6,6C7.5,6,7.6,6,7.6,6z M7.5,6.1C7.5,6.1,7.5,6.1,7.5,6.1C7.5,6.1,7.5,6.1,7.5,6.1C7.5,6.1,7.5,6.1,7.5,6.1
						C7.4,6.1,7.4,6.1,7.5,6.1C7.4,6.1,7.4,6.1,7.5,6.1C7.5,6.1,7.5,6.1,7.5,6.1C7.5,6.1,7.5,6.1,7.5,6.1C7.5,6.1,7.5,6.1,7.5,6.1z
						 M7.5,6C7.5,6,7.5,6,7.5,6C7.4,6,7.4,6,7.5,6C7.4,6,7.4,6,7.5,6C7.5,6,7.5,6,7.5,6C7.5,6,7.5,6,7.5,6C7.5,6,7.5,6,7.5,6
						C7.5,6,7.5,6,7.5,6C7.5,6,7.5,6,7.5,6z"/>
				</g>
				<g>
					<path d="M8.4,6.2H8.2v0l0.1-0.1c0,0,0,0,0,0c0,0,0,0,0,0c0,0,0,0,0,0c0,0,0,0,0,0c0,0,0,0,0,0c0,0,0,0,0,0h0c0,0,0,0,0-0.1
						c0,0,0,0,0.1,0c0,0,0,0,0.1,0c0,0,0,0,0,0C8.4,6,8.4,6,8.4,6.2l-0.1,0L8.4,6.2L8.4,6.2z"/>
					<path d="M8.5,6.1C8.5,6.1,8.5,6.1,8.5,6.1C8.5,6.1,8.5,6.1,8.5,6.1C8.5,6.1,8.4,6.1,8.5,6.1c-0.1,0-0.1,0-0.1,0c0,0,0,0,0,0
						c0,0,0,0,0,0c0,0,0,0,0,0c0,0,0,0,0,0c0,0,0,0,0.1,0C8.5,6,8.5,6,8.5,6.1L8.5,6.1C8.5,6.1,8.5,6.1,8.5,6.1c0,0.1,0,0.1-0.1,0.1
						h0L8.5,6.1L8.5,6.1C8.5,6.1,8.5,6.1,8.5,6.1C8.5,6.1,8.5,6.1,8.5,6.1z M8.5,6.1C8.5,6.1,8.5,6.1,8.5,6.1C8.5,6,8.5,6,8.5,6.1
						L8.5,6.1C8.5,6,8.5,6,8.5,6.1c0-0.1,0-0.1,0-0.1C8.5,6,8.5,6,8.5,6.1C8.4,6,8.4,6,8.5,6.1C8.4,6,8.4,6,8.5,6.1
						C8.4,6.1,8.5,6.1,8.5,6.1z"/>
				</g>
				<g>
					<path d="M9.3,6L9.3,6C9.3,6,9.3,6,9.3,6C9.3,6,9.3,6,9.3,6C9.3,6,9.3,6,9.3,6C9.3,6,9.3,6,9.3,6C9.2,6,9.2,6,9.3,6L9.3,6
						C9.2,6,9.2,6,9.3,6c0-0.1,0-0.1,0-0.1C9.3,5.9,9.3,5.9,9.3,6C9.4,6,9.4,6,9.3,6C9.4,6,9.4,6,9.3,6C9.3,6,9.3,6,9.3,6
						C9.3,6,9.3,6.1,9.3,6C9.4,6.1,9.4,6.1,9.3,6c0.1,0.1,0.1,0.1,0.1,0.1c0,0,0,0-0.1,0c0,0,0,0-0.1,0C9.2,6.1,9.2,6.1,9.3,6L9.3,6
						C9.2,6.1,9.2,6.1,9.3,6c0,0.1,0,0.1,0,0.1C9.3,6.1,9.3,6.1,9.3,6C9.3,6.1,9.3,6.1,9.3,6C9.3,6.1,9.3,6.1,9.3,6
						C9.3,6.1,9.3,6.1,9.3,6L9.3,6L9.3,6z"/>
					<path d="M9.5,6.1C9.5,6.1,9.5,6.1,9.5,6.1c0,0.1,0,0.1-0.1,0.1c0,0,0,0-0.1,0c0,0,0,0,0-0.1v0c0,0,0-0.1,0-0.1c0,0,0,0,0.1,0
						c0,0,0,0,0.1,0S9.5,6,9.5,6.1L9.5,6.1z M9.5,6C9.5,6,9.5,6,9.5,6C9.5,6,9.5,6,9.5,6C9.5,6,9.4,6,9.5,6C9.4,6,9.4,6,9.5,6L9.5,6
						C9.4,6.1,9.4,6.1,9.5,6c-0.1,0.1-0.1,0.1,0,0.1C9.5,6.1,9.5,6.1,9.5,6C9.5,6.1,9.5,6.1,9.5,6L9.5,6z"/>
				</g>
				<g>
					<path d="M10.3,6L10.3,6C10.3,6,10.3,6,10.3,6C10.3,6,10.3,6,10.3,6C10.3,6,10.3,6,10.3,6C10.3,6,10.3,6,10.3,6
						C10.2,6,10.2,6,10.3,6L10.3,6C10.2,6,10.2,6,10.3,6c0-0.1,0-0.1,0-0.1C10.3,5.9,10.3,5.9,10.3,6C10.3,6,10.3,6,10.3,6
						C10.3,6,10.3,6,10.3,6C10.3,6,10.3,6,10.3,6C10.3,6,10.3,6.1,10.3,6C10.3,6.1,10.4,6.1,10.3,6c0.1,0.1,0.1,0.1,0.1,0.1
						c0,0,0,0-0.1,0c0,0,0,0-0.1,0C10.2,6.1,10.2,6.1,10.3,6L10.3,6C10.2,6.1,10.2,6.1,10.3,6c0,0.1,0,0.1,0,0.1
						C10.3,6.1,10.3,6.1,10.3,6C10.3,6.1,10.3,6.1,10.3,6C10.3,6.1,10.3,6.1,10.3,6C10.3,6.1,10.3,6.1,10.3,6L10.3,6L10.3,6z"/>
					<path d="M10.5,6.2L10.5,6.2l0-0.2l-0.1,0v0l0.1,0h0V6.2z"/>
				</g>
				<g>
					<path d="M11.4,6.2L11.4,6.2l0-0.2l-0.1,0v0l0.1,0h0V6.2z"/>
				</g>
				<g>
					<path d="M12.4,6.2h-0.1v0l0.1-0.1c0,0,0,0,0,0c0,0,0,0,0,0c0,0,0,0,0,0c0,0,0,0,0,0c0,0,0,0,0,0c0,0,0,0,0,0h0c0,0,0,0,0-0.1
						c0,0,0,0,0.1,0c0,0,0,0,0.1,0c0,0,0,0,0,0C12.4,6,12.4,6,12.4,6.2l-0.1,0L12.4,6.2L12.4,6.2z"/>
				</g>
				<g>
					<path d="M7.2,5.4L7.2,5.4L7.2,5.4L7.2,5.4l0-0.1h0V5.4z"/>
					<path d="M7.4,5.3L7.4,5.3c0,0.1,0,0.1,0,0.1c0,0,0,0,0,0l0,0c0,0,0,0,0,0c0,0,0,0,0,0V5.3H7.4L7.4,5.3C7.3,5.4,7.3,5.4,7.3,5.4
						c0,0,0,0,0,0c0,0,0,0,0,0C7.4,5.4,7.4,5.4,7.4,5.3L7.4,5.3L7.4,5.3z"/>
					<path d="M7.6,5.4L7.6,5.4L7.5,5.3L7.6,5.4H7.5V5.3h0L7.6,5.4l0-0.1h0V5.4z"/>
				</g>
				<g>
					<path d="M8.2,5.3l0,0.1L8.2,5.3h0.1v0.1h0L8.2,5.3l0.1,0l0,0.1h0L8.2,5.3L8.2,5.3l0,0.1h0L8.2,5.3L8.2,5.3z"/>
					<path d="M8.4,5.4L8.4,5.4L8.4,5.4L8.4,5.4l0-0.1h0L8.4,5.4L8.4,5.4L8.4,5.4z M8.4,5.4L8.4,5.4L8.4,5.4L8.4,5.4z"/>
					<path d="M8.5,5.4L8.5,5.4L8.5,5.4L8.5,5.4L8.5,5.4L8.5,5.4C8.6,5.3,8.6,5.3,8.5,5.4C8.6,5.3,8.6,5.3,8.5,5.4
						C8.6,5.3,8.6,5.3,8.5,5.4C8.6,5.3,8.6,5.4,8.5,5.4L8.5,5.4L8.5,5.4L8.5,5.4L8.5,5.4z M8.5,5.3L8.5,5.3C8.6,5.3,8.6,5.3,8.5,5.3
						C8.6,5.3,8.6,5.3,8.5,5.3C8.6,5.3,8.6,5.3,8.5,5.3C8.6,5.3,8.6,5.3,8.5,5.3L8.5,5.3L8.5,5.3z"/>
				</g>
				<g>
					<path d="M9.2,5.3l0,0.1L9.2,5.3h0.1v0.1h0L9.2,5.3l0.1,0l0,0.1h0L9.2,5.3L9.2,5.3l0,0.1h0L9.2,5.3L9.2,5.3z"/>
					<path d="M9.4,5.4L9.4,5.4l0-0.1h0V5.4z"/>
					<path d="M9.5,5.4L9.5,5.4L9.5,5.4L9.5,5.4L9.5,5.4L9.5,5.4L9.5,5.4L9.5,5.4L9.5,5.4L9.5,5.4L9.5,5.4L9.5,5.4L9.5,5.4z"/>
				</g>
				<g>
					<path d="M10.3,5.3L10.3,5.3l0,0.1c0,0,0,0,0,0c0,0,0,0,0,0c0,0,0,0,0,0c0,0,0,0,0,0h0c0,0,0,0,0,0c0,0,0,0,0,0c0,0,0,0,0,0
						c0,0,0,0,0,0V5.3z"/>
					<path d="M10.4,5.3L10.4,5.3c0,0.1,0,0.1,0,0.1c0,0,0,0,0,0l0,0c0,0,0,0,0,0c0,0,0,0,0,0V5.3H10.4L10.4,5.3
						c-0.1,0.1-0.1,0.1-0.1,0.1c0,0,0,0,0,0c0,0,0,0,0,0C10.4,5.4,10.4,5.4,10.4,5.3L10.4,5.3L10.4,5.3z"/>
					<path d="M10.5,5.4L10.5,5.4L10.5,5.4L10.5,5.4L10.5,5.4L10.5,5.4L10.5,5.4L10.5,5.4L10.5,5.4L10.5,5.4L10.5,5.4L10.5,5.4
						L10.5,5.4z"/>
				</g>
				<g>
					<path d="M11.3,5.4l0-0.1h0L11.3,5.4L11.3,5.4l-0.1-0.1h0L11.3,5.4z"/>
					<path d="M11.4,5.4L11.4,5.4l0-0.1h0V5.4z"/>
					<path d="M11.5,5.4L11.5,5.4L11.5,5.4L11.5,5.4L11.5,5.4L11.5,5.4L11.5,5.4L11.5,5.4L11.5,5.4L11.5,5.4L11.5,5.4L11.5,5.4
						L11.5,5.4z"/>
				</g>
				<g>
					<path d="M12.2,5.4C12.2,5.4,12.2,5.3,12.2,5.4C12.2,5.3,12.2,5.3,12.2,5.4C12.2,5.3,12.2,5.3,12.2,5.4
						C12.2,5.3,12.2,5.3,12.2,5.4C12.2,5.3,12.3,5.3,12.2,5.4C12.3,5.3,12.3,5.3,12.2,5.4C12.3,5.3,12.3,5.3,12.2,5.4L12.2,5.4
						C12.3,5.3,12.3,5.3,12.2,5.4C12.3,5.3,12.2,5.3,12.2,5.4C12.2,5.3,12.2,5.3,12.2,5.4C12.2,5.3,12.2,5.3,12.2,5.4
						C12.2,5.3,12.2,5.3,12.2,5.4C12.2,5.3,12.2,5.3,12.2,5.4C12.2,5.3,12.3,5.3,12.2,5.4C12.3,5.4,12.3,5.4,12.2,5.4
						C12.3,5.4,12.3,5.4,12.2,5.4C12.3,5.4,12.3,5.4,12.2,5.4C12.3,5.4,12.3,5.4,12.2,5.4C12.2,5.4,12.2,5.4,12.2,5.4
						C12.2,5.4,12.2,5.4,12.2,5.4C12.2,5.4,12.2,5.4,12.2,5.4L12.2,5.4C12.2,5.4,12.2,5.4,12.2,5.4C12.2,5.4,12.2,5.4,12.2,5.4
						C12.2,5.4,12.3,5.4,12.2,5.4C12.3,5.4,12.3,5.4,12.2,5.4C12.3,5.4,12.3,5.4,12.2,5.4C12.3,5.4,12.2,5.4,12.2,5.4z"/>
					<path d="M12.4,5.4L12.4,5.4L12.4,5.4L12.4,5.4l0-0.1h0L12.4,5.4L12.4,5.4L12.4,5.4z M12.3,5.4L12.3,5.4L12.3,5.4L12.3,5.4z"/>
					<path d="M12.4,5.4V5.3h0c0,0,0,0,0,0c0,0,0,0,0,0C12.5,5.3,12.5,5.3,12.4,5.4C12.5,5.3,12.5,5.3,12.4,5.4
						C12.5,5.3,12.5,5.4,12.4,5.4C12.5,5.4,12.5,5.4,12.4,5.4C12.5,5.4,12.5,5.4,12.4,5.4C12.5,5.4,12.5,5.4,12.4,5.4L12.4,5.4z
						 M12.5,5.3L12.5,5.3C12.5,5.3,12.5,5.3,12.5,5.3C12.5,5.3,12.5,5.3,12.5,5.3C12.5,5.3,12.5,5.3,12.5,5.3
						C12.5,5.3,12.5,5.3,12.5,5.3L12.5,5.3L12.5,5.3z M12.5,5.4L12.5,5.4L12.5,5.4C12.5,5.4,12.5,5.4,12.5,5.4
						C12.5,5.4,12.5,5.4,12.5,5.4C12.5,5.4,12.5,5.4,12.5,5.4L12.5,5.4z"/>
				</g>
				<g>
					<g>
						<path d="M6.2,5.4V5.3h0c0,0,0,0,0,0c0,0,0,0,0,0c0,0,0,0,0,0v0C6.3,5.4,6.3,5.4,6.2,5.4C6.3,5.4,6.3,5.4,6.2,5.4
							C6.3,5.4,6.2,5.4,6.2,5.4L6.2,5.4z M6.2,5.3v0.1h0C6.2,5.4,6.3,5.4,6.2,5.3C6.3,5.4,6.3,5.4,6.2,5.3L6.2,5.3
							C6.3,5.3,6.3,5.3,6.2,5.3C6.3,5.3,6.2,5.3,6.2,5.3L6.2,5.3z"/>
						<path d="M6.4,5.4C6.4,5.4,6.4,5.4,6.4,5.4C6.4,5.4,6.4,5.4,6.4,5.4C6.4,5.4,6.4,5.4,6.4,5.4C6.4,5.4,6.4,5.4,6.4,5.4
							c-0.1,0.1-0.1,0-0.1,0c0,0,0,0,0,0v0c0,0,0,0,0,0C6.3,5.3,6.3,5.3,6.4,5.4C6.4,5.3,6.4,5.3,6.4,5.4C6.4,5.3,6.4,5.3,6.4,5.4
							C6.4,5.3,6.4,5.3,6.4,5.4C6.4,5.3,6.4,5.3,6.4,5.4L6.4,5.4z M6.4,5.3C6.4,5.3,6.4,5.3,6.4,5.3C6.4,5.3,6.4,5.3,6.4,5.3
							C6.4,5.3,6.4,5.3,6.4,5.3C6.3,5.3,6.3,5.3,6.4,5.3L6.4,5.3C6.3,5.4,6.3,5.4,6.4,5.3C6.4,5.4,6.4,5.4,6.4,5.3
							C6.4,5.4,6.4,5.4,6.4,5.3C6.4,5.4,6.4,5.4,6.4,5.3L6.4,5.3z"/>
						<path d="M6.5,5.3l0,0.1L6.5,5.3h0.1v0.1h0L6.5,5.3l0.1,0l0,0.1h0L6.5,5.3L6.5,5.3l0,0.1h0L6.5,5.3L6.5,5.3z"/>
					</g>
					<g>
						<path d="M6.4,6.2H6.2v0l0.1-0.1c0,0,0,0,0,0s0,0,0,0c0,0,0,0,0,0c0,0,0,0,0,0c0,0,0,0,0,0c0,0,0,0,0,0h0c0,0,0,0,0-0.1
							s0,0,0.1,0c0,0,0,0,0.1,0c0,0,0,0,0,0C6.4,6,6.4,6,6.4,6.2l-0.1,0L6.4,6.2L6.4,6.2z"/>
						<path d="M6.6,5.9L6.5,6.2h0L6.6,5.9L6.4,6v0L6.6,5.9L6.6,5.9z"/>
					</g>
				</g>
				<g>
					<path d="M13.2,5.4V5.3h0c0,0,0,0,0,0c0,0,0,0,0,0c0,0,0,0,0,0v0C13.3,5.4,13.3,5.4,13.2,5.4C13.2,5.4,13.2,5.4,13.2,5.4
						C13.2,5.4,13.2,5.4,13.2,5.4L13.2,5.4z M13.2,5.3v0.1h0C13.2,5.4,13.2,5.4,13.2,5.3C13.2,5.4,13.2,5.4,13.2,5.3L13.2,5.3
						C13.2,5.3,13.2,5.3,13.2,5.3C13.2,5.3,13.2,5.3,13.2,5.3L13.2,5.3z"/>
					<path d="M13.4,5.4C13.4,5.4,13.4,5.4,13.4,5.4C13.4,5.4,13.4,5.4,13.4,5.4C13.4,5.4,13.3,5.4,13.4,5.4
						C13.3,5.4,13.3,5.4,13.4,5.4c-0.1,0.1-0.1,0-0.1,0c0,0,0,0,0,0v0c0,0,0,0,0,0C13.3,5.3,13.3,5.3,13.4,5.4
						C13.3,5.3,13.3,5.3,13.4,5.4C13.3,5.3,13.4,5.3,13.4,5.4C13.4,5.3,13.4,5.3,13.4,5.4C13.4,5.3,13.4,5.3,13.4,5.4L13.4,5.4z
						 M13.4,5.3C13.4,5.3,13.4,5.3,13.4,5.3C13.4,5.3,13.3,5.3,13.4,5.3C13.3,5.3,13.3,5.3,13.4,5.3C13.3,5.3,13.3,5.3,13.4,5.3
						L13.4,5.3C13.3,5.4,13.3,5.4,13.4,5.3C13.3,5.4,13.3,5.4,13.4,5.3C13.3,5.4,13.4,5.4,13.4,5.3C13.4,5.4,13.4,5.4,13.4,5.3
						L13.4,5.3z"/>
					<path d="M13.4,5.3l0,0.1L13.4,5.3h0.1v0.1h0L13.4,5.3l0.1,0l0,0.1h0L13.4,5.3L13.4,5.3l0,0.1h0L13.4,5.3L13.4,5.3z"/>
				</g>
				<g>
					<path d="M13.3,6L13.3,6C13.4,6,13.4,6,13.3,6C13.4,6,13.4,6,13.3,6C13.4,6,13.4,6,13.3,6C13.3,6,13.3,6,13.3,6
						C13.3,6,13.3,6,13.3,6L13.3,6C13.3,6,13.3,6,13.3,6c0-0.1,0-0.1,0-0.1C13.4,5.9,13.4,5.9,13.3,6C13.4,6,13.4,6,13.3,6
						C13.4,6,13.4,6,13.3,6C13.4,6,13.4,6,13.3,6C13.4,6,13.4,6.1,13.3,6C13.4,6.1,13.4,6.1,13.3,6c0.1,0.1,0.1,0.1,0.1,0.1
						c0,0,0,0-0.1,0s0,0-0.1,0C13.3,6.1,13.3,6.1,13.3,6L13.3,6C13.3,6.1,13.3,6.1,13.3,6c0,0.1,0,0.1,0,0.1
						C13.4,6.1,13.4,6.1,13.3,6C13.4,6.1,13.4,6.1,13.3,6C13.4,6.1,13.4,6.1,13.3,6C13.4,6.1,13.4,6.1,13.3,6L13.3,6L13.3,6z"/>
				</g>
				<g>
					<path d="M14.2,5.4L14.2,5.4L14.2,5.4L14.2,5.4l0-0.1h0V5.4z"/>
					<path d="M14.3,5.3L14.3,5.3c0,0.1,0,0.1,0,0.1c0,0,0,0,0,0l0,0c0,0,0,0,0,0c0,0,0,0,0,0V5.3H14.3L14.3,5.3
						c-0.1,0.1-0.1,0.1-0.1,0.1c0,0,0,0,0,0c0,0,0,0,0,0C14.3,5.4,14.3,5.4,14.3,5.3L14.3,5.3L14.3,5.3z"/>
					<path d="M14.5,5.4L14.5,5.4l-0.1-0.1L14.5,5.4h-0.1V5.3h0L14.5,5.4l0-0.1h0V5.4z"/>
				</g>
				<g>
					<path d="M14.4,6.1L14.4,6.1L14.4,6.1L14.4,6.1L14.4,6.1L14.4,6.1L14.4,6.1l-0.1,0v0l0.1-0.2h0V6.1z M14.3,6.1L14.3,6.1L14.3,6
						l0,0L14.3,6.1z"/>
				</g>
			</g>
			<g>
				<rect x="5.9" y="4.4" class="st1" width="9.7" height="0.8"/>
				<g>
					<path d="M8.1,4.8V4.6h0.1c0,0,0,0,0,0c0,0,0,0,0,0c0,0,0,0,0,0v0c0,0,0,0,0,0C8.3,4.8,8.3,4.8,8.1,4.8C8.2,4.8,8.2,4.8,8.1,4.8
						L8.1,4.8z M8.2,4.7v0.1h0c0,0,0,0,0,0C8.2,4.8,8.3,4.8,8.2,4.7L8.2,4.7C8.3,4.7,8.2,4.7,8.2,4.7C8.2,4.7,8.2,4.7,8.2,4.7
						L8.2,4.7z"/>
					<path d="M8.3,4.7C8.3,4.6,8.3,4.6,8.3,4.7C8.3,4.6,8.3,4.6,8.3,4.7C8.3,4.6,8.3,4.6,8.3,4.7C8.3,4.6,8.3,4.6,8.3,4.7
						C8.3,4.7,8.3,4.7,8.3,4.7C8.3,4.7,8.3,4.7,8.3,4.7C8.3,4.7,8.3,4.7,8.3,4.7C8.3,4.7,8.3,4.7,8.3,4.7z M8.3,4.8L8.3,4.8l0-0.1h0
						V4.8z"/>
					<path d="M8.4,4.8C8.4,4.8,8.4,4.8,8.4,4.8C8.5,4.8,8.5,4.8,8.4,4.8L8.4,4.8C8.5,4.8,8.5,4.8,8.4,4.8C8.5,4.8,8.5,4.8,8.4,4.8
						C8.4,4.8,8.4,4.8,8.4,4.8C8.4,4.8,8.4,4.8,8.4,4.8C8.4,4.8,8.4,4.8,8.4,4.8L8.4,4.8C8.4,4.7,8.4,4.7,8.4,4.8c0-0.1,0-0.1,0-0.1
						c0,0,0,0,0,0c0,0,0,0,0,0C8.5,4.7,8.5,4.7,8.4,4.8L8.4,4.8C8.5,4.7,8.5,4.7,8.4,4.8c0-0.1,0-0.1,0-0.1C8.4,4.7,8.4,4.7,8.4,4.8
						C8.4,4.7,8.4,4.7,8.4,4.8L8.4,4.8C8.4,4.8,8.4,4.8,8.4,4.8C8.4,4.8,8.4,4.8,8.4,4.8z"/>
					<path d="M8.5,4.7C8.5,4.6,8.5,4.6,8.5,4.7C8.5,4.6,8.5,4.6,8.5,4.7C8.5,4.6,8.5,4.6,8.5,4.7C8.5,4.6,8.5,4.6,8.5,4.7
						C8.5,4.7,8.5,4.7,8.5,4.7C8.5,4.7,8.5,4.7,8.5,4.7C8.5,4.7,8.5,4.7,8.5,4.7C8.5,4.7,8.5,4.7,8.5,4.7z M8.5,4.8L8.5,4.8l0-0.1h0
						V4.8z"/>
					<path d="M8.6,4.8C8.6,4.8,8.6,4.8,8.6,4.8C8.6,4.8,8.6,4.8,8.6,4.8L8.6,4.8C8.6,4.7,8.6,4.7,8.6,4.7c0,0,0,0,0,0c0,0,0,0,0,0
						c0,0,0,0,0,0C8.7,4.7,8.7,4.7,8.6,4.8L8.6,4.8L8.6,4.8C8.6,4.8,8.6,4.8,8.6,4.8C8.6,4.8,8.6,4.8,8.6,4.8
						C8.6,4.8,8.6,4.8,8.6,4.8C8.7,4.8,8.7,4.8,8.6,4.8L8.6,4.8C8.7,4.8,8.7,4.8,8.6,4.8z M8.6,4.7C8.6,4.7,8.6,4.7,8.6,4.7
						C8.6,4.7,8.6,4.7,8.6,4.7L8.6,4.7L8.6,4.7C8.7,4.7,8.7,4.7,8.6,4.7C8.6,4.7,8.6,4.7,8.6,4.7z"/>
					<path d="M8.7,4.7L8.7,4.7C8.7,4.7,8.8,4.7,8.7,4.7C8.8,4.7,8.8,4.7,8.7,4.7C8.8,4.7,8.8,4.7,8.7,4.7c0.1,0,0.1,0,0.1,0
						c0,0,0,0,0,0v0.1h0V4.7c0,0,0,0,0,0s0,0,0,0C8.8,4.7,8.8,4.7,8.7,4.7C8.8,4.7,8.8,4.7,8.7,4.7l0.1,0.1h0L8.7,4.7
						C8.8,4.7,8.8,4.7,8.7,4.7C8.8,4.7,8.7,4.7,8.7,4.7l0,0.1h0L8.7,4.7L8.7,4.7z"/>
					<path d="M9.1,4.8C9.1,4.8,9.1,4.8,9.1,4.8C9,4.8,9,4.8,9.1,4.8C9,4.8,9,4.8,9.1,4.8L9.1,4.8L8.9,4.8V4.6h0L9.1,4.8
						C9,4.7,9,4.7,9.1,4.8C9,4.7,9,4.7,9.1,4.8C9.1,4.7,9.1,4.7,9.1,4.8L9.1,4.8z M9,4.8C9,4.7,9,4.7,9,4.8C9,4.7,9,4.7,9,4.8
						C9,4.7,9,4.7,9,4.8L9,4.8C9,4.8,9,4.8,9,4.8C9,4.8,9,4.8,9,4.8C9,4.8,9,4.8,9,4.8z"/>
					<path d="M9.2,4.7C9.1,4.7,9.1,4.7,9.2,4.7C9.1,4.7,9.1,4.7,9.2,4.7l0,0.1h0L9.2,4.7L9.2,4.7L9.2,4.7C9.1,4.7,9.1,4.7,9.2,4.7
						C9.1,4.7,9.2,4.7,9.2,4.7L9.2,4.7z"/>
					<path d="M9.2,4.8C9.2,4.8,9.2,4.8,9.2,4.8C9.2,4.8,9.2,4.8,9.2,4.8L9.2,4.8C9.2,4.7,9.2,4.7,9.2,4.7c0,0,0,0,0,0c0,0,0,0,0,0
						c0,0,0,0,0,0C9.3,4.7,9.3,4.7,9.2,4.8L9.2,4.8L9.2,4.8C9.2,4.8,9.2,4.8,9.2,4.8C9.2,4.8,9.2,4.8,9.2,4.8
						C9.2,4.8,9.2,4.8,9.2,4.8C9.3,4.8,9.3,4.8,9.2,4.8L9.2,4.8C9.3,4.8,9.3,4.8,9.2,4.8z M9.2,4.7C9.2,4.7,9.2,4.7,9.2,4.7
						C9.2,4.7,9.2,4.7,9.2,4.7L9.2,4.7L9.2,4.7C9.3,4.7,9.3,4.7,9.2,4.7C9.2,4.7,9.2,4.7,9.2,4.7z"/>
					<path d="M9.5,4.8H9.4v0L9.5,4.8c0-0.1,0-0.1,0-0.1c0,0,0,0,0,0c0,0,0,0,0,0c0,0,0,0,0,0c0,0,0,0,0,0c0,0,0,0,0,0h0c0,0,0,0,0,0
						c0,0,0,0,0,0c0,0,0,0,0,0c0,0,0,0,0,0C9.5,4.7,9.5,4.7,9.5,4.8L9.5,4.8L9.5,4.8L9.5,4.8z"/>
					<path d="M9.6,4.7C9.6,4.7,9.6,4.7,9.6,4.7C9.6,4.7,9.6,4.7,9.6,4.7C9.6,4.7,9.6,4.7,9.6,4.7C9.6,4.8,9.6,4.8,9.6,4.7
						c0,0.1,0,0.1,0,0.1c0,0,0,0,0,0c0,0,0,0,0,0c0,0,0,0,0,0c0,0,0,0,0,0C9.5,4.7,9.5,4.7,9.6,4.7c-0.1,0-0.1,0-0.1,0c0,0,0,0,0,0
						C9.5,4.7,9.5,4.7,9.6,4.7C9.5,4.6,9.6,4.6,9.6,4.7C9.6,4.6,9.6,4.6,9.6,4.7C9.6,4.7,9.6,4.7,9.6,4.7z M9.6,4.8
						C9.6,4.8,9.6,4.8,9.6,4.8C9.6,4.7,9.6,4.7,9.6,4.8C9.6,4.7,9.6,4.7,9.6,4.8C9.5,4.8,9.5,4.8,9.6,4.8C9.5,4.8,9.5,4.8,9.6,4.8
						C9.6,4.8,9.6,4.8,9.6,4.8C9.6,4.8,9.6,4.8,9.6,4.8C9.6,4.8,9.6,4.8,9.6,4.8z M9.6,4.7C9.6,4.7,9.6,4.7,9.6,4.7
						C9.5,4.7,9.5,4.7,9.6,4.7C9.5,4.7,9.5,4.7,9.6,4.7C9.6,4.7,9.6,4.7,9.6,4.7C9.6,4.7,9.6,4.7,9.6,4.7C9.6,4.7,9.6,4.7,9.6,4.7
						C9.6,4.7,9.6,4.7,9.6,4.7C9.6,4.7,9.6,4.7,9.6,4.7z"/>
					<path d="M9.7,4.9L9.7,4.9C9.7,4.8,9.7,4.8,9.7,4.9L9.7,4.9L9.7,4.9L9.7,4.9C9.7,4.8,9.7,4.8,9.7,4.9C9.7,4.9,9.7,4.9,9.7,4.9z"
						/>
					<path d="M9.9,4.8H9.8v0L9.9,4.8c0-0.1,0-0.1,0-0.1c0,0,0,0,0,0c0,0,0,0,0,0c0,0,0,0,0,0c0,0,0,0,0,0c0,0,0,0,0,0h0c0,0,0,0,0,0
						c0,0,0,0,0,0c0,0,0,0,0,0c0,0,0,0,0,0C9.9,4.7,9.9,4.7,9.9,4.8L9.9,4.8L9.9,4.8L9.9,4.8z"/>
					<path d="M10,4.7C10,4.8,10,4.8,10,4.7C10,4.8,10,4.8,10,4.7C10,4.8,10,4.8,9.9,4.8c0,0,0,0,0-0.1v0c0,0,0,0,0-0.1c0,0,0,0,0,0
						C10,4.6,10,4.6,10,4.7C10,4.7,10,4.7,10,4.7L10,4.7z M10,4.7C10,4.7,10,4.7,10,4.7C10,4.7,10,4.7,10,4.7C10,4.7,10,4.7,10,4.7
						C10,4.7,10,4.7,10,4.7L10,4.7C10,4.8,10,4.8,10,4.7C10,4.8,10,4.8,10,4.7C10,4.8,10,4.8,10,4.7C10,4.8,10,4.8,10,4.7L10,4.7z"
						/>
					<path d="M10.2,4.8h-0.1v0L10.2,4.8c0-0.1,0-0.1,0-0.1c0,0,0,0,0,0c0,0,0,0,0,0c0,0,0,0,0,0c0,0,0,0,0,0c0,0,0,0,0,0h0
						c0,0,0,0,0,0c0,0,0,0,0,0c0,0,0,0,0,0c0,0,0,0,0,0C10.2,4.7,10.2,4.7,10.2,4.8L10.2,4.8L10.2,4.8L10.2,4.8z"/>
					<path d="M10.3,4.7C10.3,4.8,10.3,4.8,10.3,4.7C10.3,4.8,10.3,4.8,10.3,4.7c-0.1,0.1-0.1,0.1-0.1,0.1c0,0,0,0,0-0.1v0
						c0,0,0,0,0-0.1c0,0,0,0,0,0C10.3,4.6,10.3,4.6,10.3,4.7C10.3,4.7,10.3,4.7,10.3,4.7L10.3,4.7z M10.3,4.7
						C10.3,4.7,10.3,4.7,10.3,4.7C10.3,4.7,10.3,4.7,10.3,4.7C10.3,4.7,10.3,4.7,10.3,4.7C10.2,4.7,10.2,4.7,10.3,4.7L10.3,4.7
						C10.2,4.8,10.2,4.8,10.3,4.7C10.3,4.8,10.3,4.8,10.3,4.7C10.3,4.8,10.3,4.8,10.3,4.7C10.3,4.8,10.3,4.8,10.3,4.7L10.3,4.7z"/>
				</g>
				<g>
					<g>
						<path d="M12,4.8L12,4.8L12,4.8l-0.1-0.1v0.1h0V4.6h0v0.1h0.1V4.6h0V4.8z"/>
						<path d="M12,4.8C12,4.7,12,4.7,12,4.8C12,4.7,12,4.7,12,4.8C12,4.7,12,4.7,12,4.8c0.1-0.1,0.1-0.1,0.1-0.1c0,0,0,0,0,0.1v0
							c0,0,0,0,0,0C12.1,4.8,12.1,4.8,12,4.8C12.1,4.8,12.1,4.8,12,4.8C12,4.8,12,4.8,12,4.8C12,4.8,12,4.8,12,4.8L12,4.8z M12,4.8
							C12,4.8,12,4.8,12,4.8C12,4.8,12,4.8,12,4.8C12.1,4.8,12.1,4.8,12,4.8C12.1,4.8,12.1,4.8,12,4.8C12.1,4.7,12.1,4.7,12,4.8
							C12.1,4.7,12.1,4.7,12,4.8C12,4.7,12,4.7,12,4.8C12,4.7,12,4.7,12,4.8z"/>
						<path d="M12.2,4.8l0-0.1h0L12.2,4.8C12.2,4.9,12.2,4.9,12.2,4.8L12.2,4.8L12.2,4.8L12.2,4.8L12.2,4.8
							C12.1,4.9,12.2,4.9,12.2,4.8C12.2,4.9,12.2,4.8,12.2,4.8L12.2,4.8l-0.1-0.1h0L12.2,4.8z"/>
					</g>
				</g>
			</g>
			<g>
				<path class="st6" d="M12.4,8.8H6.9c0,0-0.1,0-0.1-0.1V8.4c0,0,0-0.1,0.1-0.1h5.5c0,0,0.1,0,0.1,0.1L12.4,8.8
					C12.4,8.8,12.4,8.8,12.4,8.8z"/>
				<g>
					<g>
						<path class="st4" d="M7.2,8.5l0.1,0.2l0.1-0.2h0v0.2h0V8.6l0-0.1L7.2,8.7h0L7.2,8.5l0,0.1v0.1h0L7.2,8.5L7.2,8.5z"/>
						<path class="st4" d="M7.5,8.7C7.5,8.7,7.5,8.7,7.5,8.7C7.4,8.7,7.4,8.7,7.5,8.7C7.4,8.7,7.4,8.7,7.5,8.7
							C7.4,8.6,7.4,8.6,7.5,8.7C7.4,8.6,7.4,8.6,7.5,8.7C7.4,8.6,7.4,8.6,7.5,8.7L7.5,8.7L7.5,8.7c0-0.1,0-0.1,0-0.1s0,0,0,0
							c0,0,0,0,0,0C7.4,8.5,7.4,8.6,7.5,8.7L7.5,8.7C7.4,8.6,7.4,8.5,7.4,8.5c0,0,0,0,0,0c0,0,0,0,0,0c0,0,0,0,0,0
							C7.5,8.5,7.5,8.6,7.5,8.7L7.5,8.7C7.5,8.6,7.5,8.7,7.5,8.7L7.5,8.7L7.5,8.7z M7.4,8.6C7.4,8.6,7.4,8.6,7.4,8.6
							C7.4,8.6,7.4,8.6,7.4,8.6L7.4,8.6L7.4,8.6C7.4,8.6,7.4,8.6,7.4,8.6C7.4,8.6,7.4,8.6,7.4,8.6C7.4,8.6,7.4,8.6,7.4,8.6z"/>
						<path class="st4" d="M7.6,8.5C7.6,8.5,7.6,8.5,7.6,8.5C7.6,8.5,7.5,8.5,7.6,8.5l0,0.1h0L7.6,8.5L7.6,8.5L7.6,8.5
							C7.5,8.5,7.6,8.5,7.6,8.5C7.6,8.5,7.6,8.5,7.6,8.5L7.6,8.5z"/>
						<path class="st4" d="M7.6,8.5L7.6,8.5L7.6,8.5L7.6,8.5L7.6,8.5z M7.6,8.7L7.6,8.7l0-0.1h0V8.7z"/>
						<path class="st4" d="M7.7,8.7C7.7,8.7,7.7,8.7,7.7,8.7C7.7,8.7,7.7,8.7,7.7,8.7C7.7,8.7,7.7,8.7,7.7,8.7
							C7.7,8.6,7.7,8.6,7.7,8.7C7.7,8.6,7.7,8.6,7.7,8.7C7.7,8.6,7.7,8.6,7.7,8.7L7.7,8.7L7.7,8.7c0-0.1,0-0.1,0-0.1s0,0,0,0
							c0,0,0,0,0,0C7.7,8.5,7.7,8.6,7.7,8.7L7.7,8.7C7.7,8.6,7.7,8.5,7.7,8.5c0,0,0,0,0,0c0,0,0,0,0,0c0,0,0,0,0,0
							C7.8,8.5,7.8,8.6,7.7,8.7L7.7,8.7C7.8,8.6,7.8,8.7,7.7,8.7L7.7,8.7L7.7,8.7z M7.7,8.6C7.7,8.6,7.7,8.6,7.7,8.6
							C7.7,8.6,7.7,8.6,7.7,8.6L7.7,8.6L7.7,8.6C7.7,8.6,7.7,8.6,7.7,8.6C7.7,8.6,7.7,8.6,7.7,8.6C7.7,8.6,7.7,8.6,7.7,8.6z"/>
					</g>
					<g>
						<path class="st4" d="M8,8.7L8,8.7l0-0.2l0,0v0l0.1,0h0V8.7z"/>
						<path class="st4" d="M8.2,8.6C8.2,8.6,8.2,8.6,8.2,8.6C8.2,8.7,8.2,8.7,8.2,8.6C8.1,8.7,8.1,8.7,8.1,8.6c0,0,0,0,0-0.1v0
							c0,0,0,0,0-0.1c0,0,0,0,0,0C8.2,8.5,8.2,8.5,8.2,8.6C8.2,8.5,8.2,8.5,8.2,8.6L8.2,8.6z M8.2,8.5C8.2,8.5,8.2,8.5,8.2,8.5
							C8.2,8.5,8.2,8.5,8.2,8.5C8.1,8.5,8.1,8.5,8.2,8.5C8.1,8.5,8.1,8.5,8.2,8.5L8.2,8.5C8.1,8.6,8.1,8.6,8.2,8.5
							C8.1,8.6,8.1,8.6,8.2,8.5C8.2,8.6,8.2,8.6,8.2,8.5C8.2,8.6,8.2,8.6,8.2,8.5L8.2,8.5z"/>
						<path class="st4" d="M8.3,8.5C8.3,8.5,8.4,8.5,8.3,8.5C8.4,8.5,8.4,8.5,8.3,8.5l0.1,0.1h0L8.3,8.5C8.4,8.6,8.4,8.6,8.3,8.5
							C8.4,8.5,8.4,8.5,8.3,8.5C8.4,8.5,8.4,8.5,8.3,8.5C8.3,8.6,8.3,8.6,8.3,8.5v0.1h0L8.3,8.5L8.3,8.5L8.3,8.5z"/>
						<path class="st4" d="M8.5,8.6C8.5,8.6,8.5,8.6,8.5,8.6C8.5,8.6,8.5,8.6,8.5,8.6C8.5,8.6,8.5,8.6,8.5,8.6
							C8.5,8.6,8.5,8.6,8.5,8.6C8.5,8.6,8.5,8.6,8.5,8.6C8.5,8.5,8.5,8.5,8.5,8.6c-0.1-0.1,0-0.1,0-0.1C8.5,8.5,8.5,8.5,8.5,8.6
							C8.6,8.5,8.6,8.6,8.5,8.6L8.5,8.6C8.5,8.6,8.5,8.6,8.5,8.6C8.5,8.5,8.5,8.5,8.5,8.6C8.5,8.5,8.5,8.5,8.5,8.6
							C8.5,8.5,8.5,8.6,8.5,8.6C8.5,8.6,8.5,8.6,8.5,8.6C8.5,8.6,8.5,8.6,8.5,8.6C8.5,8.6,8.5,8.6,8.5,8.6C8.5,8.6,8.6,8.6,8.5,8.6
							C8.6,8.6,8.6,8.6,8.5,8.6C8.6,8.6,8.6,8.6,8.5,8.6C8.5,8.7,8.5,8.7,8.5,8.6C8.5,8.7,8.5,8.7,8.5,8.6C8.5,8.7,8.5,8.6,8.5,8.6
							C8.5,8.6,8.5,8.6,8.5,8.6L8.5,8.6C8.5,8.6,8.5,8.6,8.5,8.6C8.5,8.6,8.5,8.6,8.5,8.6C8.5,8.6,8.5,8.6,8.5,8.6
							C8.5,8.6,8.5,8.6,8.5,8.6z"/>
						<path class="st4" d="M8.6,8.6C8.6,8.6,8.6,8.6,8.6,8.6C8.6,8.6,8.6,8.6,8.6,8.6C8.6,8.6,8.6,8.6,8.6,8.6
							C8.6,8.6,8.6,8.6,8.6,8.6C8.6,8.7,8.6,8.7,8.6,8.6C8.6,8.7,8.6,8.7,8.6,8.6C8.6,8.7,8.6,8.7,8.6,8.6C8.6,8.7,8.6,8.7,8.6,8.6z
							"/>
					</g>
				</g>
			</g>
			<g>
				<path class="st6" d="M12.4,9.5H6.9c0,0-0.1,0-0.1-0.1V9.1c0,0,0-0.1,0.1-0.1h5.5c0,0,0.1,0,0.1,0.1L12.4,9.5
					C12.4,9.5,12.4,9.5,12.4,9.5z"/>
				<g>
					<g>
						<path class="st4" d="M7.3,9.3C7.3,9.3,7.3,9.3,7.3,9.3C7.2,9.3,7.2,9.4,7.3,9.3c-0.1,0.1-0.1,0.1-0.1,0c0,0,0,0,0-0.1v0
							c0,0,0,0,0,0c0,0,0,0,0,0c0,0,0,0,0,0c0,0,0,0,0,0C7.3,9.2,7.3,9.2,7.3,9.3L7.3,9.3C7.3,9.2,7.2,9.2,7.3,9.3
							c0-0.1-0.1-0.1-0.1-0.1c0,0,0,0,0,0c0,0,0,0,0,0v0c0,0,0,0,0,0C7.2,9.3,7.2,9.3,7.3,9.3C7.2,9.3,7.2,9.3,7.3,9.3
							C7.2,9.3,7.3,9.3,7.3,9.3L7.3,9.3z"/>
						<path class="st4" d="M7.4,9.4C7.4,9.3,7.4,9.3,7.4,9.4C7.4,9.3,7.4,9.4,7.4,9.4C7.3,9.4,7.3,9.4,7.4,9.4
							C7.3,9.3,7.3,9.3,7.4,9.4C7.3,9.3,7.3,9.3,7.4,9.4C7.3,9.3,7.3,9.3,7.4,9.4L7.4,9.4L7.4,9.4c0-0.1,0-0.1,0-0.1s0,0,0,0
							c0,0,0,0,0,0C7.3,9.2,7.3,9.2,7.4,9.4L7.4,9.4C7.3,9.2,7.3,9.2,7.3,9.2c0,0,0,0,0,0c0,0,0,0,0,0c0,0,0,0,0,0
							C7.4,9.2,7.4,9.2,7.4,9.4L7.4,9.4C7.4,9.3,7.4,9.3,7.4,9.4L7.4,9.4L7.4,9.4z M7.4,9.3C7.4,9.3,7.4,9.3,7.4,9.3
							C7.4,9.3,7.4,9.3,7.4,9.3L7.4,9.3L7.4,9.3C7.3,9.3,7.3,9.3,7.4,9.3C7.3,9.3,7.3,9.3,7.4,9.3C7.3,9.3,7.3,9.3,7.4,9.3z"/>
						<path class="st4" d="M7.5,9.2C7.5,9.2,7.5,9.2,7.5,9.2C7.5,9.2,7.5,9.2,7.5,9.2l0,0.1h0L7.5,9.2L7.5,9.2L7.5,9.2
							C7.5,9.2,7.5,9.2,7.5,9.2C7.5,9.2,7.5,9.2,7.5,9.2L7.5,9.2z"/>
						<path class="st4" d="M7.6,9.4L7.6,9.4l0-0.2h0V9.4z"/>
						<path class="st4" d="M7.6,9.3C7.6,9.3,7.6,9.3,7.6,9.3C7.6,9.2,7.6,9.2,7.6,9.3C7.6,9.2,7.6,9.2,7.6,9.3
							c0.1-0.1,0.1-0.1,0.1-0.1s0,0,0,0.1v0c0,0,0,0,0,0S7.7,9.3,7.6,9.3C7.7,9.4,7.7,9.4,7.6,9.3C7.6,9.4,7.6,9.3,7.6,9.3
							C7.6,9.3,7.6,9.3,7.6,9.3L7.6,9.3z M7.6,9.3C7.6,9.3,7.6,9.3,7.6,9.3C7.6,9.3,7.6,9.3,7.6,9.3C7.7,9.3,7.7,9.3,7.6,9.3
							C7.7,9.3,7.7,9.3,7.6,9.3C7.7,9.3,7.7,9.3,7.6,9.3C7.7,9.2,7.7,9.2,7.6,9.3C7.6,9.2,7.6,9.2,7.6,9.3C7.6,9.3,7.6,9.3,7.6,9.3z
							"/>
						<path class="st4" d="M7.8,9.3C7.8,9.3,7.8,9.3,7.8,9.3C7.8,9.3,7.8,9.3,7.8,9.3C7.8,9.3,7.8,9.3,7.8,9.3
							C7.8,9.3,7.8,9.3,7.8,9.3C7.8,9.3,7.8,9.3,7.8,9.3C7.8,9.2,7.8,9.2,7.8,9.3c-0.1-0.1,0-0.1,0-0.1C7.8,9.2,7.8,9.2,7.8,9.3
							C7.9,9.2,7.9,9.2,7.8,9.3L7.8,9.3C7.8,9.2,7.8,9.2,7.8,9.3C7.8,9.2,7.8,9.2,7.8,9.3C7.8,9.2,7.8,9.2,7.8,9.3
							C7.8,9.2,7.8,9.2,7.8,9.3C7.8,9.3,7.8,9.3,7.8,9.3C7.8,9.3,7.8,9.3,7.8,9.3C7.8,9.3,7.8,9.3,7.8,9.3C7.8,9.3,7.8,9.3,7.8,9.3
							C7.9,9.3,7.9,9.3,7.8,9.3C7.9,9.3,7.9,9.3,7.8,9.3C7.8,9.4,7.8,9.4,7.8,9.3C7.8,9.4,7.8,9.4,7.8,9.3C7.8,9.3,7.8,9.3,7.8,9.3
							C7.7,9.3,7.7,9.3,7.8,9.3L7.8,9.3C7.8,9.3,7.8,9.3,7.8,9.3C7.8,9.3,7.8,9.3,7.8,9.3C7.8,9.3,7.8,9.3,7.8,9.3
							C7.8,9.3,7.8,9.3,7.8,9.3z"/>
					</g>
					<g>
						<path class="st4" d="M8,9.4L8,9.4l0-0.2l0,0v0l0.1,0h0V9.4z"/>
						<path class="st4" d="M8.2,9.4L8.2,9.4l0-0.2l0,0v0l0.1,0h0V9.4z"/>
						<path class="st4" d="M8.3,9.2C8.3,9.2,8.4,9.2,8.3,9.2C8.4,9.2,8.4,9.2,8.3,9.2l0.1,0.1h0L8.3,9.2C8.4,9.3,8.4,9.2,8.3,9.2
							C8.4,9.2,8.4,9.2,8.3,9.2C8.4,9.2,8.4,9.2,8.3,9.2C8.3,9.2,8.3,9.2,8.3,9.2v0.1h0L8.3,9.2L8.3,9.2L8.3,9.2z"/>
						<path class="st4" d="M8.5,9.3C8.5,9.3,8.5,9.3,8.5,9.3C8.5,9.3,8.5,9.3,8.5,9.3C8.5,9.3,8.5,9.3,8.5,9.3
							C8.5,9.3,8.5,9.3,8.5,9.3C8.5,9.3,8.5,9.3,8.5,9.3C8.5,9.2,8.5,9.2,8.5,9.3c-0.1-0.1,0-0.1,0-0.1C8.5,9.2,8.5,9.2,8.5,9.3
							C8.6,9.2,8.6,9.2,8.5,9.3L8.5,9.3C8.5,9.2,8.5,9.2,8.5,9.3C8.5,9.2,8.5,9.2,8.5,9.3C8.5,9.2,8.5,9.2,8.5,9.3
							C8.5,9.2,8.5,9.2,8.5,9.3C8.5,9.3,8.5,9.3,8.5,9.3C8.5,9.3,8.5,9.3,8.5,9.3C8.5,9.3,8.5,9.3,8.5,9.3C8.5,9.3,8.6,9.3,8.5,9.3
							C8.6,9.3,8.6,9.3,8.5,9.3C8.6,9.3,8.6,9.3,8.5,9.3C8.5,9.4,8.5,9.4,8.5,9.3C8.5,9.4,8.5,9.4,8.5,9.3C8.5,9.3,8.5,9.3,8.5,9.3
							C8.5,9.3,8.5,9.3,8.5,9.3L8.5,9.3C8.5,9.3,8.5,9.3,8.5,9.3C8.5,9.3,8.5,9.3,8.5,9.3C8.5,9.3,8.5,9.3,8.5,9.3
							C8.5,9.3,8.5,9.3,8.5,9.3z"/>
						<path class="st4" d="M8.6,9.3C8.6,9.3,8.6,9.3,8.6,9.3C8.6,9.3,8.6,9.3,8.6,9.3C8.6,9.3,8.6,9.3,8.6,9.3
							C8.6,9.3,8.6,9.3,8.6,9.3C8.6,9.3,8.6,9.3,8.6,9.3C8.6,9.4,8.6,9.4,8.6,9.3C8.6,9.4,8.6,9.4,8.6,9.3C8.6,9.3,8.6,9.3,8.6,9.3z
							"/>
					</g>
				</g>
			</g>
			<g>
				<path class="st6" d="M12.4,11.6H6.9c0,0-0.1,0-0.1-0.1v-0.4c0,0,0-0.1,0.1-0.1h5.5c0,0,0.1,0,0.1,0.1L12.4,11.6
					C12.4,11.6,12.4,11.6,12.4,11.6z"/>
				<g>
					<g>
						<path class="st4" d="M7.1,11.5v-0.2h0.1c0,0,0,0,0,0c0,0,0,0,0,0c0,0,0,0,0,0C7.3,11.4,7.2,11.4,7.1,11.5
							c0.1-0.1,0.1-0.1,0.1-0.1c0,0,0,0,0,0c0,0,0,0,0,0C7.2,11.5,7.2,11.5,7.1,11.5L7.1,11.5z M7.2,11.4L7.2,11.4
							C7.2,11.4,7.2,11.4,7.2,11.4C7.2,11.4,7.2,11.4,7.2,11.4C7.2,11.3,7.2,11.3,7.2,11.4C7.2,11.3,7.2,11.3,7.2,11.4L7.2,11.4
							L7.2,11.4z M7.2,11.4L7.2,11.4L7.2,11.4C7.2,11.5,7.2,11.5,7.2,11.4C7.2,11.4,7.2,11.4,7.2,11.4C7.2,11.4,7.2,11.4,7.2,11.4
							L7.2,11.4z"/>
						<path class="st4" d="M7.4,11.5C7.3,11.5,7.3,11.5,7.4,11.5C7.3,11.5,7.3,11.4,7.4,11.5L7.4,11.5c-0.1-0.1-0.1-0.1-0.1-0.1
							c0,0,0,0,0,0c0,0,0,0,0,0c0,0,0,0,0,0C7.4,11.4,7.4,11.4,7.4,11.5L7.4,11.5L7.4,11.5C7.3,11.4,7.3,11.4,7.4,11.5
							C7.3,11.5,7.4,11.5,7.4,11.5C7.4,11.5,7.4,11.5,7.4,11.5C7.4,11.5,7.4,11.5,7.4,11.5L7.4,11.5C7.4,11.5,7.4,11.5,7.4,11.5z
							 M7.4,11.4C7.3,11.4,7.3,11.4,7.4,11.4C7.3,11.4,7.3,11.4,7.4,11.4L7.4,11.4L7.4,11.4C7.4,11.4,7.4,11.4,7.4,11.4
							C7.4,11.4,7.4,11.4,7.4,11.4z"/>
						<path class="st4" d="M7.5,11.5L7.5,11.5l0-0.2h0V11.5z"/>
						<path class="st4" d="M7.6,11.5C7.5,11.5,7.5,11.5,7.6,11.5C7.5,11.5,7.5,11.4,7.6,11.5L7.6,11.5c-0.1-0.1-0.1-0.1-0.1-0.1
							c0,0,0,0,0,0c0,0,0,0,0,0c0,0,0,0,0,0C7.6,11.4,7.6,11.4,7.6,11.5L7.6,11.5L7.6,11.5C7.5,11.4,7.5,11.4,7.6,11.5
							C7.5,11.5,7.6,11.5,7.6,11.5C7.6,11.5,7.6,11.5,7.6,11.5C7.6,11.5,7.6,11.5,7.6,11.5L7.6,11.5C7.6,11.5,7.6,11.5,7.6,11.5z
							 M7.6,11.4C7.5,11.4,7.5,11.4,7.6,11.4C7.5,11.4,7.5,11.4,7.6,11.4L7.6,11.4L7.6,11.4C7.6,11.4,7.6,11.4,7.6,11.4
							C7.6,11.4,7.6,11.4,7.6,11.4z M7.6,11.3L7.6,11.3L7.6,11.3L7.6,11.3L7.6,11.3z"/>
						<path class="st4" d="M7.7,11.3L7.7,11.3C7.7,11.4,7.7,11.3,7.7,11.3C7.7,11.3,7.8,11.4,7.7,11.3l0.1,0.1h0L7.7,11.3
							C7.7,11.4,7.7,11.4,7.7,11.3C7.7,11.4,7.7,11.4,7.7,11.3C7.7,11.4,7.7,11.4,7.7,11.3C7.7,11.4,7.7,11.4,7.7,11.3l0,0.1h0
							L7.7,11.3L7.7,11.3z"/>
					</g>
					<g>
						<path class="st4" d="M8.1,11.5H8v0L8.1,11.5c0-0.1,0-0.1,0-0.1c0,0,0,0,0,0c0,0,0,0,0,0c0,0,0,0,0,0c0,0,0,0,0,0c0,0,0,0,0,0
							h0c0,0,0,0,0,0c0,0,0,0,0,0c0,0,0,0,0,0c0,0,0,0,0,0C8.1,11.4,8.1,11.4,8.1,11.5L8.1,11.5L8.1,11.5L8.1,11.5z"/>
						<path class="st4" d="M8.2,11.4C8.2,11.4,8.2,11.3,8.2,11.4C8.3,11.3,8.3,11.4,8.2,11.4l0.1,0.1h0L8.2,11.4
							C8.3,11.4,8.3,11.4,8.2,11.4C8.2,11.4,8.2,11.4,8.2,11.4C8.2,11.4,8.2,11.4,8.2,11.4C8.2,11.4,8.2,11.4,8.2,11.4v0.1h0
							L8.2,11.4L8.2,11.4L8.2,11.4z"/>
						<path class="st4" d="M8.4,11.4C8.4,11.4,8.4,11.4,8.4,11.4C8.4,11.4,8.4,11.4,8.4,11.4C8.3,11.4,8.3,11.4,8.4,11.4
							C8.3,11.4,8.3,11.4,8.4,11.4C8.3,11.4,8.3,11.4,8.4,11.4C8.3,11.4,8.3,11.4,8.4,11.4c-0.1-0.1,0-0.1,0-0.1
							C8.4,11.3,8.4,11.3,8.4,11.4C8.4,11.4,8.4,11.4,8.4,11.4L8.4,11.4C8.4,11.4,8.4,11.4,8.4,11.4C8.4,11.4,8.4,11.4,8.4,11.4
							C8.4,11.4,8.3,11.4,8.4,11.4C8.3,11.4,8.3,11.4,8.4,11.4C8.3,11.4,8.3,11.4,8.4,11.4C8.3,11.4,8.4,11.4,8.4,11.4
							C8.4,11.4,8.4,11.4,8.4,11.4C8.4,11.4,8.4,11.4,8.4,11.4C8.4,11.4,8.4,11.4,8.4,11.4C8.4,11.5,8.4,11.5,8.4,11.4
							C8.4,11.5,8.4,11.5,8.4,11.4C8.4,11.5,8.3,11.5,8.4,11.4C8.3,11.5,8.3,11.5,8.4,11.4C8.3,11.5,8.3,11.4,8.4,11.4L8.4,11.4
							C8.3,11.4,8.3,11.5,8.4,11.4C8.3,11.5,8.4,11.5,8.4,11.4C8.4,11.5,8.4,11.5,8.4,11.4C8.4,11.5,8.4,11.5,8.4,11.4z"/>
						<path class="st4" d="M8.4,11.5C8.4,11.5,8.4,11.5,8.4,11.5C8.5,11.5,8.5,11.5,8.4,11.5C8.5,11.5,8.5,11.5,8.4,11.5
							C8.5,11.5,8.5,11.5,8.4,11.5C8.5,11.5,8.5,11.5,8.4,11.5C8.5,11.5,8.5,11.5,8.4,11.5C8.5,11.5,8.5,11.5,8.4,11.5
							C8.4,11.5,8.4,11.5,8.4,11.5z"/>
					</g>
				</g>
			</g>
			<g>
				<path class="st6" d="M12.4,12.3H6.9c0,0-0.1,0-0.1-0.1v-0.4c0,0,0-0.1,0.1-0.1h5.5c0,0,0.1,0,0.1,0.1L12.4,12.3
					C12.4,12.3,12.4,12.3,12.4,12.3z"/>
				<g>
					<g>
						<path class="st4" d="M7.2,12L7.2,12l0,0.1c0,0,0,0,0,0c0,0,0,0,0,0c0,0,0,0,0,0c0,0,0,0,0,0h0c0,0,0,0,0,0c0,0,0,0,0,0
							c0,0,0,0,0,0c0,0,0,0,0,0V12z"/>
						<path class="st4" d="M7.4,12.2C7.4,12.2,7.3,12.2,7.4,12.2C7.3,12.2,7.3,12.2,7.4,12.2C7.3,12.2,7.3,12.2,7.4,12.2L7.3,12h0
							L7.4,12.2C7.3,12.2,7.3,12.2,7.4,12.2C7.4,12.2,7.4,12.2,7.4,12.2l0-0.1h0L7.4,12.2L7.4,12.2L7.4,12.2z"/>
						<path class="st4" d="M7.5,12.2C7.5,12.2,7.5,12.2,7.5,12.2C7.5,12.2,7.5,12.2,7.5,12.2C7.5,12.2,7.4,12.2,7.5,12.2
							C7.4,12.2,7.4,12.2,7.5,12.2C7.4,12.1,7.4,12.1,7.5,12.2C7.5,12.1,7.5,12.1,7.5,12.2L7.5,12.2L7.5,12.2c0-0.1,0-0.1,0-0.1
							s0,0,0,0c0,0,0,0,0,0C7.5,12.1,7.5,12.1,7.5,12.2L7.5,12.2c-0.1-0.1-0.1-0.1-0.1-0.1c0,0,0,0,0,0c0,0,0,0,0,0c0,0,0,0,0,0
							C7.5,12.1,7.5,12.1,7.5,12.2L7.5,12.2C7.5,12.2,7.5,12.2,7.5,12.2L7.5,12.2L7.5,12.2z M7.5,12.2C7.5,12.2,7.5,12.2,7.5,12.2
							C7.5,12.2,7.5,12.1,7.5,12.2L7.5,12.2L7.5,12.2C7.5,12.1,7.4,12.1,7.5,12.2C7.4,12.1,7.5,12.2,7.5,12.2
							C7.5,12.2,7.5,12.2,7.5,12.2z"/>
						<path class="st4" d="M7.6,12L7.6,12C7.6,12,7.6,12,7.6,12C7.7,12,7.7,12.1,7.6,12l0.1,0.1h0L7.6,12C7.7,12.1,7.7,12.1,7.6,12
							C7.6,12.1,7.6,12.1,7.6,12C7.6,12.1,7.6,12.1,7.6,12C7.6,12.1,7.6,12.1,7.6,12l0,0.1h0L7.6,12L7.6,12z"/>
					</g>
					<g>
						<path class="st4" d="M8,12.1L8,12.1C8,12.1,8,12.1,8,12.1C8,12.1,8,12.1,8,12.1C8,12,8,12,8,12.1C8,12,8,12,8,12.1
							C8,12,8,12,8,12.1L8,12.1C8,12,8,12,8,12.1C8,12,8,12,8,12.1C8,12,8,12,8,12.1C8.1,12,8.1,12,8,12.1C8.1,12.1,8.1,12.1,8,12.1
							C8.1,12.1,8,12.1,8,12.1C8,12.1,8.1,12.1,8,12.1C8.1,12.1,8.1,12.1,8,12.1C8.1,12.1,8.1,12.2,8,12.1c0.1,0.1,0,0.1,0,0.1
							S8,12.2,8,12.1C8,12.2,8,12.1,8,12.1L8,12.1C8,12.1,8,12.2,8,12.1C8,12.2,8,12.2,8,12.1C8,12.2,8,12.2,8,12.1
							C8,12.2,8,12.1,8,12.1C8,12.1,8,12.1,8,12.1C8,12.1,8,12.1,8,12.1L8,12.1L8,12.1z"/>
						<path class="st4" d="M8.2,12.1C8.2,12,8.2,12,8.2,12.1C8.3,12,8.3,12.1,8.2,12.1l0.1,0.1h0L8.2,12.1
							C8.3,12.1,8.3,12.1,8.2,12.1C8.2,12.1,8.2,12.1,8.2,12.1C8.2,12.1,8.2,12.1,8.2,12.1C8.2,12.1,8.2,12.1,8.2,12.1v0.1h0
							L8.2,12.1L8.2,12.1L8.2,12.1z"/>
						<path class="st4" d="M8.4,12.1C8.4,12.1,8.4,12.1,8.4,12.1C8.4,12.1,8.4,12.1,8.4,12.1C8.3,12.1,8.3,12.1,8.4,12.1
							C8.3,12.1,8.3,12.1,8.4,12.1C8.3,12.1,8.3,12.1,8.4,12.1C8.3,12.1,8.3,12.1,8.4,12.1c-0.1-0.1,0-0.1,0-0.1
							C8.4,12,8.4,12,8.4,12.1C8.4,12.1,8.4,12.1,8.4,12.1L8.4,12.1C8.4,12.1,8.4,12.1,8.4,12.1C8.4,12.1,8.4,12.1,8.4,12.1
							C8.4,12.1,8.3,12.1,8.4,12.1C8.3,12.1,8.3,12.1,8.4,12.1C8.3,12.1,8.3,12.1,8.4,12.1C8.3,12.1,8.4,12.1,8.4,12.1
							C8.4,12.1,8.4,12.1,8.4,12.1C8.4,12.1,8.4,12.1,8.4,12.1C8.4,12.1,8.4,12.1,8.4,12.1C8.4,12.2,8.4,12.2,8.4,12.1
							C8.4,12.2,8.4,12.2,8.4,12.1C8.4,12.2,8.3,12.2,8.4,12.1C8.3,12.2,8.3,12.2,8.4,12.1C8.3,12.2,8.3,12.1,8.4,12.1L8.4,12.1
							C8.3,12.1,8.3,12.2,8.4,12.1C8.3,12.2,8.4,12.2,8.4,12.1C8.4,12.2,8.4,12.2,8.4,12.1C8.4,12.2,8.4,12.2,8.4,12.1z"/>
						<path class="st4" d="M8.4,12.2C8.4,12.2,8.4,12.2,8.4,12.2C8.5,12.2,8.5,12.2,8.4,12.2C8.5,12.2,8.5,12.2,8.4,12.2
							C8.5,12.2,8.5,12.2,8.4,12.2C8.5,12.2,8.5,12.2,8.4,12.2C8.5,12.2,8.5,12.2,8.4,12.2C8.5,12.2,8.5,12.2,8.4,12.2
							C8.4,12.2,8.4,12.2,8.4,12.2z"/>
					</g>
				</g>
			</g>
			<g>
				<path class="st6" d="M12.4,13H6.9c0,0-0.1,0-0.1-0.1v-0.4c0,0,0-0.1,0.1-0.1h5.5c0,0,0.1,0,0.1,0.1L12.4,13
					C12.4,13,12.4,13,12.4,13z"/>
				<g>
					<g>
						<path class="st4" d="M7.2,12.8L7.2,12.8L7.2,12.8L7.2,12.8L7.2,12.8l-0.1,0.1v-0.2L7.2,12.8L7.2,12.8L7.2,12.8L7.2,12.8
							L7.2,12.8L7.2,12.8z"/>
						<path class="st4" d="M7.3,12.9L7.3,12.9l0-0.2h0V12.9z"/>
						<path class="st4" d="M7.4,12.8C7.4,12.8,7.4,12.8,7.4,12.8C7.4,12.8,7.4,12.8,7.4,12.8C7.4,12.8,7.4,12.8,7.4,12.8
							C7.4,12.8,7.4,12.8,7.4,12.8C7.4,12.8,7.4,12.8,7.4,12.8C7.4,12.8,7.4,12.8,7.4,12.8c-0.1-0.1,0-0.1,0-0.1
							C7.4,12.7,7.4,12.7,7.4,12.8C7.5,12.8,7.5,12.8,7.4,12.8L7.4,12.8C7.4,12.8,7.4,12.8,7.4,12.8C7.4,12.8,7.4,12.8,7.4,12.8
							C7.4,12.8,7.4,12.8,7.4,12.8C7.4,12.8,7.4,12.8,7.4,12.8C7.4,12.8,7.4,12.8,7.4,12.8C7.4,12.8,7.4,12.8,7.4,12.8
							C7.4,12.8,7.4,12.8,7.4,12.8C7.4,12.8,7.4,12.8,7.4,12.8C7.5,12.8,7.5,12.8,7.4,12.8C7.5,12.9,7.5,12.9,7.4,12.8
							C7.4,12.9,7.4,12.9,7.4,12.8C7.4,12.9,7.4,12.9,7.4,12.8C7.4,12.9,7.4,12.9,7.4,12.8C7.3,12.9,7.3,12.8,7.4,12.8L7.4,12.8
							C7.4,12.8,7.4,12.9,7.4,12.8C7.4,12.9,7.4,12.9,7.4,12.8C7.4,12.9,7.4,12.9,7.4,12.8C7.4,12.9,7.4,12.8,7.4,12.8z"/>
						<path class="st4" d="M7.6,12.9C7.6,12.9,7.6,12.9,7.6,12.9C7.6,12.9,7.5,12.9,7.6,12.9C7.5,12.9,7.5,12.9,7.6,12.9
							C7.5,12.9,7.5,12.9,7.6,12.9C7.5,12.8,7.5,12.8,7.6,12.9C7.5,12.8,7.5,12.8,7.6,12.9L7.6,12.9L7.6,12.9c0-0.1,0-0.1,0-0.1
							s0,0,0,0c0,0,0,0,0,0C7.5,12.8,7.5,12.8,7.6,12.9L7.6,12.9c-0.1-0.1-0.1-0.1-0.1-0.1c0,0,0,0,0,0c0,0,0,0,0,0c0,0,0,0,0,0
							C7.6,12.8,7.6,12.8,7.6,12.9L7.6,12.9C7.6,12.9,7.6,12.9,7.6,12.9L7.6,12.9L7.6,12.9z M7.5,12.9C7.5,12.9,7.5,12.9,7.5,12.9
							C7.6,12.9,7.6,12.8,7.5,12.9L7.5,12.9L7.5,12.9C7.5,12.8,7.5,12.8,7.5,12.9C7.5,12.8,7.5,12.9,7.5,12.9
							C7.5,12.9,7.5,12.9,7.5,12.9z"/>
					</g>
					<g>
						<path class="st4" d="M8.1,12.8L8.1,12.8L8.1,12.8L8.1,12.8L8.1,12.8L8.1,12.8L8.1,12.8l-0.1,0v0L8,12.7h0V12.8z M8,12.8
							L8,12.8L8,12.8L8,12.8L8,12.8z"/>
						<path class="st4" d="M8.2,12.8C8.2,12.7,8.2,12.7,8.2,12.8C8.3,12.7,8.3,12.8,8.2,12.8l0.1,0.1h0L8.2,12.8
							C8.3,12.8,8.3,12.8,8.2,12.8C8.2,12.8,8.2,12.8,8.2,12.8C8.2,12.8,8.2,12.8,8.2,12.8C8.2,12.8,8.2,12.8,8.2,12.8v0.1h0
							L8.2,12.8L8.2,12.8L8.2,12.8z"/>
						<path class="st4" d="M8.4,12.8C8.4,12.8,8.4,12.8,8.4,12.8C8.4,12.8,8.4,12.8,8.4,12.8C8.3,12.8,8.3,12.8,8.4,12.8
							C8.3,12.8,8.3,12.8,8.4,12.8C8.3,12.8,8.3,12.8,8.4,12.8C8.3,12.8,8.3,12.8,8.4,12.8c-0.1-0.1,0-0.1,0-0.1
							C8.4,12.7,8.4,12.7,8.4,12.8C8.4,12.8,8.4,12.8,8.4,12.8L8.4,12.8C8.4,12.8,8.4,12.8,8.4,12.8C8.4,12.8,8.4,12.8,8.4,12.8
							C8.4,12.8,8.3,12.8,8.4,12.8C8.3,12.8,8.3,12.8,8.4,12.8C8.3,12.8,8.3,12.8,8.4,12.8C8.3,12.8,8.4,12.8,8.4,12.8
							C8.4,12.8,8.4,12.8,8.4,12.8C8.4,12.8,8.4,12.8,8.4,12.8C8.4,12.8,8.4,12.8,8.4,12.8C8.4,12.9,8.4,12.9,8.4,12.8
							C8.4,12.9,8.4,12.9,8.4,12.8C8.4,12.9,8.3,12.9,8.4,12.8C8.3,12.9,8.3,12.9,8.4,12.8C8.3,12.9,8.3,12.8,8.4,12.8L8.4,12.8
							C8.3,12.8,8.3,12.9,8.4,12.8C8.3,12.9,8.4,12.9,8.4,12.8C8.4,12.9,8.4,12.9,8.4,12.8C8.4,12.9,8.4,12.8,8.4,12.8z"/>
						<path class="st4" d="M8.4,12.9C8.4,12.9,8.4,12.9,8.4,12.9C8.5,12.9,8.5,12.9,8.4,12.9C8.5,12.9,8.5,12.9,8.4,12.9
							C8.5,12.9,8.5,12.9,8.4,12.9C8.5,12.9,8.5,12.9,8.4,12.9C8.5,12.9,8.5,12.9,8.4,12.9C8.5,12.9,8.5,12.9,8.4,12.9
							C8.4,12.9,8.4,12.9,8.4,12.9z"/>
					</g>
				</g>
			</g>
			<g>
				<path class="st6" d="M12.4,13.8H6.9c0,0-0.1,0-0.1-0.1v-0.4c0,0,0-0.1,0.1-0.1h5.5c0,0,0.1,0,0.1,0.1L12.4,13.8
					C12.4,13.7,12.4,13.8,12.4,13.8z"/>
				<g>
					<g>
						<path class="st4" d="M7.2,13.5L7.2,13.5L7.2,13.5l0-0.1h0.1C7.2,13.4,7.2,13.4,7.2,13.5c0.1-0.1,0.1-0.1,0.1-0.1
							C7.3,13.5,7.3,13.5,7.2,13.5C7.3,13.5,7.2,13.5,7.2,13.5L7.2,13.5z M7.2,13.5L7.2,13.5C7.2,13.5,7.2,13.5,7.2,13.5
							C7.3,13.5,7.3,13.5,7.2,13.5C7.3,13.5,7.3,13.5,7.2,13.5C7.2,13.5,7.2,13.5,7.2,13.5L7.2,13.5L7.2,13.5z"/>
						<path class="st4" d="M7.4,13.6C7.3,13.6,7.3,13.6,7.4,13.6C7.3,13.6,7.3,13.6,7.4,13.6L7.4,13.6c-0.1-0.1-0.1-0.1-0.1-0.1
							c0,0,0,0,0,0c0,0,0,0,0,0c0,0,0,0,0,0C7.4,13.5,7.4,13.5,7.4,13.6L7.4,13.6L7.4,13.6C7.3,13.6,7.3,13.6,7.4,13.6
							C7.3,13.6,7.4,13.6,7.4,13.6C7.4,13.6,7.4,13.6,7.4,13.6C7.4,13.6,7.4,13.6,7.4,13.6L7.4,13.6C7.4,13.6,7.4,13.6,7.4,13.6z
							 M7.4,13.5C7.3,13.5,7.3,13.5,7.4,13.5C7.3,13.5,7.3,13.5,7.4,13.5L7.4,13.5L7.4,13.5C7.4,13.5,7.4,13.5,7.4,13.5
							C7.4,13.5,7.4,13.5,7.4,13.5z"/>
						<path class="st4" d="M7.4,13.5C7.4,13.5,7.4,13.5,7.4,13.5C7.5,13.5,7.5,13.5,7.4,13.5C7.5,13.5,7.5,13.5,7.4,13.5l0.1-0.1h0
							v0.2L7.4,13.5L7.4,13.5C7.5,13.6,7.5,13.6,7.4,13.5C7.5,13.6,7.5,13.6,7.4,13.5C7.4,13.6,7.4,13.6,7.4,13.5L7.4,13.5z
							 M7.5,13.5C7.5,13.6,7.5,13.6,7.5,13.5C7.5,13.6,7.5,13.6,7.5,13.5C7.5,13.6,7.5,13.6,7.5,13.5L7.5,13.5
							C7.5,13.5,7.5,13.5,7.5,13.5C7.5,13.5,7.5,13.5,7.5,13.5C7.5,13.5,7.5,13.5,7.5,13.5z"/>
						<path class="st4" d="M7.7,13.5C7.7,13.5,7.6,13.5,7.7,13.5C7.6,13.5,7.6,13.5,7.7,13.5l0,0.1h0L7.7,13.5L7.7,13.5L7.7,13.5
							C7.6,13.5,7.6,13.5,7.7,13.5C7.6,13.5,7.7,13.5,7.7,13.5L7.7,13.5z"/>
						<path class="st4" d="M7.7,13.5C7.7,13.5,7.7,13.5,7.7,13.5C7.7,13.5,7.7,13.5,7.7,13.5C7.7,13.5,7.7,13.5,7.7,13.5
							c0.1-0.1,0.1-0.1,0.1-0.1c0,0,0,0,0,0.1v0c0,0,0,0,0,0S7.8,13.6,7.7,13.5C7.8,13.6,7.7,13.6,7.7,13.5
							C7.7,13.6,7.7,13.6,7.7,13.5C7.7,13.6,7.7,13.6,7.7,13.5L7.7,13.5z M7.7,13.5C7.7,13.6,7.7,13.6,7.7,13.5
							C7.7,13.6,7.7,13.6,7.7,13.5C7.7,13.6,7.8,13.6,7.7,13.5C7.8,13.6,7.8,13.6,7.7,13.5C7.8,13.5,7.8,13.5,7.7,13.5
							C7.8,13.5,7.7,13.5,7.7,13.5C7.7,13.5,7.7,13.5,7.7,13.5C7.7,13.5,7.7,13.5,7.7,13.5z"/>
					</g>
					<g>
						<path class="st4" d="M8,13.5L8,13.5l0.1-0.1v0L8,13.5L8,13.5C8,13.5,8,13.5,8,13.5C8,13.5,8.1,13.5,8,13.5c0.1,0,0.1,0,0.1,0
							C8.1,13.6,8.1,13.6,8,13.5C8,13.6,8,13.6,8,13.5C8,13.6,8,13.6,8,13.5C8,13.6,8,13.6,8,13.5L8,13.5C8,13.6,8,13.6,8,13.5
							C8,13.6,8,13.6,8,13.5C8,13.6,8,13.6,8,13.5C8,13.6,8.1,13.6,8,13.5C8.1,13.5,8,13.5,8,13.5C8,13.5,8,13.5,8,13.5
							C8,13.5,8,13.5,8,13.5L8,13.5L8,13.5z"/>
						<path class="st4" d="M8.2,13.5C8.2,13.5,8.2,13.5,8.2,13.5C8.3,13.5,8.3,13.5,8.2,13.5l0.1,0.1h0L8.2,13.5
							C8.3,13.5,8.3,13.5,8.2,13.5C8.2,13.5,8.2,13.5,8.2,13.5C8.2,13.5,8.2,13.5,8.2,13.5C8.2,13.5,8.2,13.5,8.2,13.5v0.1h0
							L8.2,13.5L8.2,13.5L8.2,13.5z"/>
						<path class="st4" d="M8.4,13.6C8.4,13.6,8.4,13.6,8.4,13.6C8.4,13.6,8.4,13.6,8.4,13.6C8.3,13.6,8.3,13.5,8.4,13.6
							C8.3,13.5,8.3,13.5,8.4,13.6C8.3,13.5,8.3,13.5,8.4,13.6C8.3,13.5,8.3,13.5,8.4,13.6c-0.1-0.1,0-0.1,0-0.1
							C8.4,13.5,8.4,13.5,8.4,13.6C8.4,13.5,8.4,13.5,8.4,13.6L8.4,13.6C8.4,13.5,8.4,13.5,8.4,13.6C8.4,13.5,8.4,13.5,8.4,13.6
							C8.4,13.5,8.3,13.5,8.4,13.6C8.3,13.5,8.3,13.5,8.4,13.6C8.3,13.5,8.3,13.5,8.4,13.6C8.3,13.5,8.4,13.5,8.4,13.6
							C8.4,13.5,8.4,13.5,8.4,13.6C8.4,13.5,8.4,13.6,8.4,13.6C8.4,13.6,8.4,13.6,8.4,13.6C8.4,13.6,8.4,13.6,8.4,13.6
							C8.4,13.6,8.4,13.6,8.4,13.6C8.4,13.6,8.3,13.6,8.4,13.6C8.3,13.6,8.3,13.6,8.4,13.6C8.3,13.6,8.3,13.6,8.4,13.6L8.4,13.6
							C8.3,13.6,8.3,13.6,8.4,13.6C8.3,13.6,8.4,13.6,8.4,13.6C8.4,13.6,8.4,13.6,8.4,13.6C8.4,13.6,8.4,13.6,8.4,13.6z"/>
						<path class="st4" d="M8.4,13.6C8.4,13.6,8.4,13.6,8.4,13.6C8.5,13.6,8.5,13.6,8.4,13.6C8.5,13.6,8.5,13.6,8.4,13.6
							C8.5,13.6,8.5,13.6,8.4,13.6C8.5,13.6,8.5,13.6,8.4,13.6C8.5,13.6,8.5,13.6,8.4,13.6C8.5,13.6,8.5,13.6,8.4,13.6
							C8.4,13.6,8.4,13.6,8.4,13.6z"/>
					</g>
				</g>
			</g>
			<g>
				<path class="st6" d="M12.4,9.5H6.9c0,0-0.1,0-0.1-0.1V9.1c0,0,0-0.1,0.1-0.1h5.5c0,0,0.1,0,0.1,0.1L12.4,9.5
					C12.4,9.5,12.4,9.5,12.4,9.5z"/>
				<g>
					<g>
						<path class="st4" d="M7.2,9.3L7.2,9.3L7.2,9.3l-0.1,0l0.1-0.2h0L7.2,9.3L7.2,9.3L7.2,9.3z M7.2,9.3L7.2,9.3L7.2,9.3L7.2,9.3z"
							/>
						<path class="st4" d="M7.3,9.3C7.3,9.3,7.3,9.2,7.3,9.3C7.3,9.2,7.3,9.2,7.3,9.3C7.4,9.2,7.4,9.2,7.3,9.3L7.3,9.3l0.1-0.1v0.1
							c0,0,0,0,0,0c0,0,0,0,0,0c0,0,0,0,0,0c0,0,0,0,0,0L7.3,9.3c0,0.1,0,0.1,0.1,0.1C7.4,9.4,7.4,9.4,7.3,9.3
							C7.4,9.4,7.4,9.4,7.3,9.3L7.3,9.3C7.4,9.3,7.4,9.4,7.3,9.3C7.3,9.4,7.3,9.3,7.3,9.3C7.3,9.3,7.3,9.3,7.3,9.3z M7.3,9.3
							C7.3,9.3,7.3,9.3,7.3,9.3C7.3,9.3,7.4,9.3,7.3,9.3C7.4,9.3,7.4,9.3,7.3,9.3L7.3,9.3C7.4,9.2,7.4,9.2,7.3,9.3
							C7.4,9.2,7.3,9.2,7.3,9.3C7.3,9.3,7.3,9.3,7.3,9.3z"/>
						<path class="st4" d="M7.5,9.3C7.5,9.3,7.5,9.4,7.5,9.3C7.5,9.4,7.5,9.4,7.5,9.3C7.5,9.3,7.5,9.3,7.5,9.3L7.5,9.2h0L7.5,9.3
							C7.5,9.3,7.5,9.3,7.5,9.3C7.5,9.3,7.5,9.3,7.5,9.3l0-0.1h0L7.5,9.3L7.5,9.3L7.5,9.3z"/>
						<path class="st4" d="M7.7,9.3C7.7,9.3,7.7,9.3,7.7,9.3C7.7,9.3,7.7,9.3,7.7,9.3C7.6,9.3,7.6,9.3,7.7,9.3
							C7.6,9.3,7.6,9.3,7.7,9.3C7.6,9.3,7.6,9.3,7.7,9.3C7.6,9.2,7.6,9.2,7.7,9.3c-0.1-0.1,0-0.1,0-0.1C7.7,9.2,7.7,9.2,7.7,9.3
							C7.7,9.2,7.7,9.2,7.7,9.3L7.7,9.3C7.7,9.2,7.7,9.2,7.7,9.3C7.7,9.2,7.7,9.2,7.7,9.3C7.6,9.2,7.6,9.2,7.7,9.3
							C7.6,9.2,7.6,9.2,7.7,9.3C7.6,9.3,7.6,9.3,7.7,9.3C7.6,9.3,7.6,9.3,7.7,9.3C7.7,9.3,7.7,9.3,7.7,9.3C7.7,9.3,7.7,9.3,7.7,9.3
							C7.7,9.3,7.7,9.3,7.7,9.3C7.7,9.3,7.7,9.3,7.7,9.3C7.7,9.4,7.7,9.4,7.7,9.3C7.6,9.4,7.6,9.4,7.7,9.3C7.6,9.3,7.6,9.3,7.7,9.3
							C7.6,9.3,7.6,9.3,7.7,9.3L7.7,9.3C7.6,9.3,7.6,9.3,7.7,9.3C7.6,9.3,7.6,9.3,7.7,9.3C7.7,9.3,7.7,9.3,7.7,9.3
							C7.7,9.3,7.7,9.3,7.7,9.3z"/>
						<path class="st4" d="M7.8,9.2L7.8,9.2L7.8,9.2L7.8,9.2L7.8,9.2v0.1c0,0,0,0,0,0c0,0,0,0,0,0c0,0,0,0,0,0v0c0,0,0,0,0,0
							c0,0,0,0,0,0c0,0,0,0,0,0L7.8,9.2L7.8,9.2L7.8,9.2L7.8,9.2L7.8,9.2L7.8,9.2z"/>
						<path class="st4" d="M7.8,9.2C7.8,9.2,7.8,9.2,7.8,9.2C7.8,9.2,7.8,9.2,7.8,9.2C7.8,9.2,7.8,9.2,7.8,9.2
							C7.8,9.2,7.8,9.2,7.8,9.2C7.8,9.2,7.8,9.2,7.8,9.2C7.8,9.2,7.8,9.2,7.8,9.2C7.8,9.2,7.8,9.2,7.8,9.2C7.8,9.2,7.8,9.2,7.8,9.2z
							 M7.8,9.4L7.8,9.4l0-0.1h0V9.4z"/>
						<path class="st4" d="M7.9,9.2L7.9,9.2C7.9,9.2,7.9,9.2,7.9,9.2C8,9.2,8,9.2,7.9,9.2L8,9.4h0L7.9,9.2C8,9.3,8,9.2,7.9,9.2
							C8,9.2,8,9.2,7.9,9.2C7.9,9.2,7.9,9.2,7.9,9.2C7.9,9.2,7.9,9.2,7.9,9.2l0,0.1h0L7.9,9.2L7.9,9.2z"/>
						<path class="st4" d="M8.1,9.4C8.1,9.3,8.1,9.3,8.1,9.4C8.1,9.3,8.1,9.4,8.1,9.4C8.1,9.4,8,9.4,8.1,9.4C8,9.3,8,9.3,8.1,9.4
							C8,9.3,8,9.3,8.1,9.4C8.1,9.3,8.1,9.3,8.1,9.4L8.1,9.4L8.1,9.4c0-0.1,0-0.1,0-0.1s0,0,0,0c0,0,0,0,0,0
							C8.1,9.2,8.1,9.2,8.1,9.4L8.1,9.4C8,9.2,8,9.2,8,9.2c0,0,0,0,0,0c0,0,0,0,0,0c0,0,0,0,0,0C8.1,9.2,8.1,9.2,8.1,9.4L8.1,9.4
							C8.1,9.3,8.1,9.3,8.1,9.4L8.1,9.4L8.1,9.4z M8.1,9.3C8.1,9.3,8.1,9.3,8.1,9.3C8.1,9.3,8.1,9.3,8.1,9.3L8.1,9.3L8.1,9.3
							C8.1,9.3,8,9.3,8.1,9.3C8,9.3,8.1,9.3,8.1,9.3C8.1,9.3,8.1,9.3,8.1,9.3z"/>
					</g>
					<g>
						<path class="st4" d="M8.4,9.2L8.4,9.2L8.4,9.2C8.4,9.2,8.4,9.2,8.4,9.2C8.3,9.2,8.3,9.2,8.4,9.2C8.3,9.2,8.4,9.2,8.4,9.2
							C8.4,9.2,8.4,9.2,8.4,9.2c0,0.1,0,0.1,0,0.1c0,0,0,0,0,0c0,0,0,0,0,0c0,0,0,0,0,0c0,0,0,0,0-0.1v0C8.3,9.2,8.3,9.2,8.4,9.2
							C8.3,9.2,8.4,9.2,8.4,9.2L8.4,9.2z M8.4,9.3C8.4,9.3,8.4,9.3,8.4,9.3C8.3,9.3,8.3,9.3,8.4,9.3L8.4,9.3
							C8.3,9.3,8.3,9.3,8.4,9.3C8.3,9.3,8.4,9.3,8.4,9.3C8.4,9.3,8.4,9.3,8.4,9.3C8.4,9.3,8.4,9.3,8.4,9.3C8.4,9.3,8.4,9.3,8.4,9.3
							C8.4,9.3,8.4,9.3,8.4,9.3z"/>
						<path class="st4" d="M8.5,9.2C8.6,9.2,8.6,9.2,8.5,9.2C8.6,9.2,8.6,9.2,8.5,9.2l0.1,0.1h0L8.5,9.2C8.6,9.3,8.6,9.2,8.5,9.2
							C8.6,9.2,8.6,9.2,8.5,9.2C8.6,9.2,8.6,9.2,8.5,9.2C8.6,9.2,8.5,9.2,8.5,9.2v0.1h0L8.5,9.2L8.5,9.2L8.5,9.2z"/>
						<path class="st4" d="M8.7,9.3C8.7,9.3,8.7,9.3,8.7,9.3C8.7,9.3,8.7,9.3,8.7,9.3C8.7,9.3,8.7,9.3,8.7,9.3
							C8.7,9.3,8.7,9.3,8.7,9.3C8.7,9.3,8.7,9.3,8.7,9.3C8.7,9.2,8.7,9.2,8.7,9.3c-0.1-0.1,0-0.1,0-0.1C8.7,9.2,8.7,9.2,8.7,9.3
							C8.8,9.2,8.8,9.2,8.7,9.3L8.7,9.3C8.7,9.2,8.7,9.2,8.7,9.3C8.7,9.2,8.7,9.2,8.7,9.3C8.7,9.2,8.7,9.2,8.7,9.3
							C8.7,9.2,8.7,9.2,8.7,9.3C8.7,9.3,8.7,9.3,8.7,9.3C8.7,9.3,8.7,9.3,8.7,9.3C8.7,9.3,8.7,9.3,8.7,9.3C8.8,9.3,8.8,9.3,8.7,9.3
							C8.8,9.3,8.8,9.3,8.7,9.3C8.8,9.3,8.8,9.3,8.7,9.3C8.7,9.4,8.7,9.4,8.7,9.3C8.7,9.4,8.7,9.4,8.7,9.3C8.7,9.3,8.7,9.3,8.7,9.3
							C8.7,9.3,8.7,9.3,8.7,9.3L8.7,9.3C8.7,9.3,8.7,9.3,8.7,9.3C8.7,9.3,8.7,9.3,8.7,9.3C8.7,9.3,8.7,9.3,8.7,9.3
							C8.7,9.3,8.7,9.3,8.7,9.3z"/>
						<path class="st4" d="M8.8,9.3C8.8,9.3,8.8,9.3,8.8,9.3C8.8,9.3,8.8,9.3,8.8,9.3C8.8,9.3,8.8,9.3,8.8,9.3
							C8.8,9.3,8.8,9.3,8.8,9.3C8.8,9.3,8.8,9.3,8.8,9.3C8.8,9.4,8.8,9.4,8.8,9.3C8.8,9.4,8.8,9.4,8.8,9.3C8.8,9.3,8.8,9.3,8.8,9.3z
							"/>
					</g>
				</g>
			</g>
		</g>
	</g>
	<path class="st7" d="M11.9,4.5c0.2,0,0.4,0.1,0.6,0.2c0.2,0.2,0.2,0.4,0.2,0.6V17c0,0.2-0.1,0.4-0.2,0.6c-0.2,0.2-0.4,0.2-0.6,0.2
		H7c-0.2,0-0.4-0.1-0.6-0.2S6.2,17.3,6.2,17V5.3c0-0.2,0.1-0.4,0.2-0.6C6.6,4.5,6.8,4.5,7,4.5H11.9 M11.9,4.3H7c-0.5,0-1,0.4-1,1V17
		c0,0.5,0.4,1,1,1h4.9c0.5,0,1-0.4,1-1V5.3C12.8,4.7,12.4,4.3,11.9,4.3L11.9,4.3z"/>
</g>
</svg>
